G04 #@! TF.FileFunction,Copper,L2,Bot,Signal*
%FSLAX46Y46*%
G04 Gerber Fmt 4.6, Leading zero omitted, Abs format (unit mm)*
G04 Created by KiCad (PCBNEW 4.0.5-e0-6337~49~ubuntu16.04.1) date Thu Jan 26 10:19:32 2017*
%MOMM*%
%LPD*%
G01*
G04 APERTURE LIST*
%ADD10C,0.100000*%
%ADD11C,0.150000*%
%ADD12C,1.501140*%
%ADD13R,2.000000X2.000000*%
%ADD14C,2.000000*%
%ADD15R,1.727200X2.032000*%
%ADD16O,1.727200X2.032000*%
%ADD17C,2.400000*%
%ADD18R,2.400000X2.400000*%
%ADD19R,2.700000X1.600000*%
%ADD20O,2.700000X1.600000*%
%ADD21C,0.685800*%
%ADD22C,0.250000*%
%ADD23C,0.400000*%
%ADD24C,0.254000*%
G04 APERTURE END LIST*
D10*
D11*
X248709526Y-70986905D02*
X248252383Y-70986905D01*
X248480954Y-71786905D02*
X248480954Y-70986905D01*
X247985716Y-71786905D02*
X247985716Y-70986905D01*
X247642859Y-71786905D02*
X247642859Y-71367857D01*
X247680954Y-71291667D01*
X247757144Y-71253571D01*
X247871430Y-71253571D01*
X247947621Y-71291667D01*
X247985716Y-71329762D01*
X247147620Y-71786905D02*
X247223811Y-71748810D01*
X247261906Y-71710714D01*
X247300001Y-71634524D01*
X247300001Y-71405952D01*
X247261906Y-71329762D01*
X247223811Y-71291667D01*
X247147620Y-71253571D01*
X247033334Y-71253571D01*
X246957144Y-71291667D01*
X246919049Y-71329762D01*
X246880953Y-71405952D01*
X246880953Y-71634524D01*
X246919049Y-71710714D01*
X246957144Y-71748810D01*
X247033334Y-71786905D01*
X247147620Y-71786905D01*
X246538096Y-71786905D02*
X246538096Y-71253571D01*
X246538096Y-71329762D02*
X246500001Y-71291667D01*
X246423810Y-71253571D01*
X246309524Y-71253571D01*
X246233334Y-71291667D01*
X246195239Y-71367857D01*
X246195239Y-71786905D01*
X246195239Y-71367857D02*
X246157143Y-71291667D01*
X246080953Y-71253571D01*
X245966667Y-71253571D01*
X245890477Y-71291667D01*
X245852382Y-71367857D01*
X245852382Y-71786905D01*
X245128572Y-71786905D02*
X245128572Y-71367857D01*
X245166667Y-71291667D01*
X245242857Y-71253571D01*
X245395238Y-71253571D01*
X245471429Y-71291667D01*
X245128572Y-71748810D02*
X245204762Y-71786905D01*
X245395238Y-71786905D01*
X245471429Y-71748810D01*
X245509524Y-71672619D01*
X245509524Y-71596429D01*
X245471429Y-71520238D01*
X245395238Y-71482143D01*
X245204762Y-71482143D01*
X245128572Y-71444048D01*
X244785714Y-71748810D02*
X244709524Y-71786905D01*
X244557143Y-71786905D01*
X244480952Y-71748810D01*
X244442857Y-71672619D01*
X244442857Y-71634524D01*
X244480952Y-71558333D01*
X244557143Y-71520238D01*
X244671428Y-71520238D01*
X244747619Y-71482143D01*
X244785714Y-71405952D01*
X244785714Y-71367857D01*
X244747619Y-71291667D01*
X244671428Y-71253571D01*
X244557143Y-71253571D01*
X244480952Y-71291667D01*
X243490476Y-71786905D02*
X243490476Y-70986905D01*
X243300000Y-70986905D01*
X243185714Y-71025000D01*
X243109523Y-71101190D01*
X243071428Y-71177381D01*
X243033333Y-71329762D01*
X243033333Y-71444048D01*
X243071428Y-71596429D01*
X243109523Y-71672619D01*
X243185714Y-71748810D01*
X243300000Y-71786905D01*
X243490476Y-71786905D01*
X242576190Y-71786905D02*
X242652381Y-71748810D01*
X242690476Y-71710714D01*
X242728571Y-71634524D01*
X242728571Y-71405952D01*
X242690476Y-71329762D01*
X242652381Y-71291667D01*
X242576190Y-71253571D01*
X242461904Y-71253571D01*
X242385714Y-71291667D01*
X242347619Y-71329762D01*
X242309523Y-71405952D01*
X242309523Y-71634524D01*
X242347619Y-71710714D01*
X242385714Y-71748810D01*
X242461904Y-71786905D01*
X242576190Y-71786905D01*
X241966666Y-71786905D02*
X241966666Y-70986905D01*
X241966666Y-71291667D02*
X241890475Y-71253571D01*
X241738094Y-71253571D01*
X241661904Y-71291667D01*
X241623809Y-71329762D01*
X241585713Y-71405952D01*
X241585713Y-71634524D01*
X241623809Y-71710714D01*
X241661904Y-71748810D01*
X241738094Y-71786905D01*
X241890475Y-71786905D01*
X241966666Y-71748810D01*
X241242856Y-71786905D02*
X241242856Y-70986905D01*
X241242856Y-71291667D02*
X241166665Y-71253571D01*
X241014284Y-71253571D01*
X240938094Y-71291667D01*
X240899999Y-71329762D01*
X240861903Y-71405952D01*
X240861903Y-71634524D01*
X240899999Y-71710714D01*
X240938094Y-71748810D01*
X241014284Y-71786905D01*
X241166665Y-71786905D01*
X241242856Y-71748810D01*
X240214284Y-71748810D02*
X240290474Y-71786905D01*
X240442855Y-71786905D01*
X240519046Y-71748810D01*
X240557141Y-71672619D01*
X240557141Y-71367857D01*
X240519046Y-71291667D01*
X240442855Y-71253571D01*
X240290474Y-71253571D01*
X240214284Y-71291667D01*
X240176189Y-71367857D01*
X240176189Y-71444048D01*
X240557141Y-71520238D01*
X239719046Y-71786905D02*
X239795237Y-71748810D01*
X239833332Y-71672619D01*
X239833332Y-70986905D01*
X239071427Y-71786905D02*
X239071427Y-71367857D01*
X239109522Y-71291667D01*
X239185712Y-71253571D01*
X239338093Y-71253571D01*
X239414284Y-71291667D01*
X239071427Y-71748810D02*
X239147617Y-71786905D01*
X239338093Y-71786905D01*
X239414284Y-71748810D01*
X239452379Y-71672619D01*
X239452379Y-71596429D01*
X239414284Y-71520238D01*
X239338093Y-71482143D01*
X239147617Y-71482143D01*
X239071427Y-71444048D01*
X238385712Y-71748810D02*
X238461902Y-71786905D01*
X238614283Y-71786905D01*
X238690474Y-71748810D01*
X238728569Y-71672619D01*
X238728569Y-71367857D01*
X238690474Y-71291667D01*
X238614283Y-71253571D01*
X238461902Y-71253571D01*
X238385712Y-71291667D01*
X238347617Y-71367857D01*
X238347617Y-71444048D01*
X238728569Y-71520238D01*
X238004760Y-71786905D02*
X238004760Y-71253571D01*
X238004760Y-71405952D02*
X237966665Y-71329762D01*
X237928569Y-71291667D01*
X237852379Y-71253571D01*
X237776188Y-71253571D01*
X237204760Y-71748810D02*
X237280950Y-71786905D01*
X237433331Y-71786905D01*
X237509522Y-71748810D01*
X237547617Y-71672619D01*
X237547617Y-71367857D01*
X237509522Y-71291667D01*
X237433331Y-71253571D01*
X237280950Y-71253571D01*
X237204760Y-71291667D01*
X237166665Y-71367857D01*
X237166665Y-71444048D01*
X237547617Y-71520238D01*
X247719048Y-73098810D02*
X247604762Y-73136905D01*
X247414286Y-73136905D01*
X247338096Y-73098810D01*
X247300000Y-73060714D01*
X247261905Y-72984524D01*
X247261905Y-72908333D01*
X247300000Y-72832143D01*
X247338096Y-72794048D01*
X247414286Y-72755952D01*
X247566667Y-72717857D01*
X247642858Y-72679762D01*
X247680953Y-72641667D01*
X247719048Y-72565476D01*
X247719048Y-72489286D01*
X247680953Y-72413095D01*
X247642858Y-72375000D01*
X247566667Y-72336905D01*
X247376191Y-72336905D01*
X247261905Y-72375000D01*
X246614286Y-73098810D02*
X246690476Y-73136905D01*
X246842857Y-73136905D01*
X246919048Y-73098810D01*
X246957143Y-73022619D01*
X246957143Y-72717857D01*
X246919048Y-72641667D01*
X246842857Y-72603571D01*
X246690476Y-72603571D01*
X246614286Y-72641667D01*
X246576191Y-72717857D01*
X246576191Y-72794048D01*
X246957143Y-72870238D01*
X246233334Y-72603571D02*
X246233334Y-73403571D01*
X246233334Y-72641667D02*
X246157143Y-72603571D01*
X246004762Y-72603571D01*
X245928572Y-72641667D01*
X245890477Y-72679762D01*
X245852381Y-72755952D01*
X245852381Y-72984524D01*
X245890477Y-73060714D01*
X245928572Y-73098810D01*
X246004762Y-73136905D01*
X246157143Y-73136905D01*
X246233334Y-73098810D01*
X245623810Y-72603571D02*
X245319048Y-72603571D01*
X245509524Y-72336905D02*
X245509524Y-73022619D01*
X245471429Y-73098810D01*
X245395238Y-73136905D01*
X245319048Y-73136905D01*
X244747619Y-73098810D02*
X244823809Y-73136905D01*
X244976190Y-73136905D01*
X245052381Y-73098810D01*
X245090476Y-73022619D01*
X245090476Y-72717857D01*
X245052381Y-72641667D01*
X244976190Y-72603571D01*
X244823809Y-72603571D01*
X244747619Y-72641667D01*
X244709524Y-72717857D01*
X244709524Y-72794048D01*
X245090476Y-72870238D01*
X244366667Y-73136905D02*
X244366667Y-72603571D01*
X244366667Y-72679762D02*
X244328572Y-72641667D01*
X244252381Y-72603571D01*
X244138095Y-72603571D01*
X244061905Y-72641667D01*
X244023810Y-72717857D01*
X244023810Y-73136905D01*
X244023810Y-72717857D02*
X243985714Y-72641667D01*
X243909524Y-72603571D01*
X243795238Y-72603571D01*
X243719048Y-72641667D01*
X243680953Y-72717857D01*
X243680953Y-73136905D01*
X243300000Y-73136905D02*
X243300000Y-72336905D01*
X243300000Y-72641667D02*
X243223809Y-72603571D01*
X243071428Y-72603571D01*
X242995238Y-72641667D01*
X242957143Y-72679762D01*
X242919047Y-72755952D01*
X242919047Y-72984524D01*
X242957143Y-73060714D01*
X242995238Y-73098810D01*
X243071428Y-73136905D01*
X243223809Y-73136905D01*
X243300000Y-73098810D01*
X242271428Y-73098810D02*
X242347618Y-73136905D01*
X242499999Y-73136905D01*
X242576190Y-73098810D01*
X242614285Y-73022619D01*
X242614285Y-72717857D01*
X242576190Y-72641667D01*
X242499999Y-72603571D01*
X242347618Y-72603571D01*
X242271428Y-72641667D01*
X242233333Y-72717857D01*
X242233333Y-72794048D01*
X242614285Y-72870238D01*
X241890476Y-73136905D02*
X241890476Y-72603571D01*
X241890476Y-72755952D02*
X241852381Y-72679762D01*
X241814285Y-72641667D01*
X241738095Y-72603571D01*
X241661904Y-72603571D01*
X240823809Y-72413095D02*
X240785714Y-72375000D01*
X240709523Y-72336905D01*
X240519047Y-72336905D01*
X240442857Y-72375000D01*
X240404761Y-72413095D01*
X240366666Y-72489286D01*
X240366666Y-72565476D01*
X240404761Y-72679762D01*
X240861904Y-73136905D01*
X240366666Y-73136905D01*
X239871428Y-72336905D02*
X239795237Y-72336905D01*
X239719047Y-72375000D01*
X239680952Y-72413095D01*
X239642856Y-72489286D01*
X239604761Y-72641667D01*
X239604761Y-72832143D01*
X239642856Y-72984524D01*
X239680952Y-73060714D01*
X239719047Y-73098810D01*
X239795237Y-73136905D01*
X239871428Y-73136905D01*
X239947618Y-73098810D01*
X239985714Y-73060714D01*
X240023809Y-72984524D01*
X240061904Y-72832143D01*
X240061904Y-72641667D01*
X240023809Y-72489286D01*
X239985714Y-72413095D01*
X239947618Y-72375000D01*
X239871428Y-72336905D01*
X238842856Y-73136905D02*
X239299999Y-73136905D01*
X239071428Y-73136905D02*
X239071428Y-72336905D01*
X239147618Y-72451190D01*
X239223809Y-72527381D01*
X239299999Y-72565476D01*
X238157142Y-72336905D02*
X238309523Y-72336905D01*
X238385713Y-72375000D01*
X238423808Y-72413095D01*
X238499999Y-72527381D01*
X238538094Y-72679762D01*
X238538094Y-72984524D01*
X238499999Y-73060714D01*
X238461904Y-73098810D01*
X238385713Y-73136905D01*
X238233332Y-73136905D01*
X238157142Y-73098810D01*
X238119046Y-73060714D01*
X238080951Y-72984524D01*
X238080951Y-72794048D01*
X238119046Y-72717857D01*
X238157142Y-72679762D01*
X238233332Y-72641667D01*
X238385713Y-72641667D01*
X238461904Y-72679762D01*
X238499999Y-72717857D01*
X238538094Y-72794048D01*
D12*
X228854000Y-56034940D03*
X228854000Y-51153060D03*
D13*
X219202000Y-26543000D03*
D14*
X221742000Y-26543000D03*
X224536000Y-31369000D03*
X221996000Y-31369000D03*
X219456000Y-31369000D03*
D15*
X246761000Y-46228000D03*
D16*
X244221000Y-46228000D03*
X241681000Y-46228000D03*
X239141000Y-46228000D03*
X236601000Y-46228000D03*
X234061000Y-46228000D03*
D17*
X212000000Y-28000000D03*
D18*
X215500000Y-28000000D03*
D17*
X208500000Y-28000000D03*
X205000000Y-28000000D03*
X201500000Y-28000000D03*
D19*
X229489000Y-41656000D03*
D20*
X229489000Y-36576000D03*
X229489000Y-31496000D03*
X229489000Y-26416000D03*
D19*
X235077000Y-41656000D03*
D20*
X235077000Y-36576000D03*
X235077000Y-31496000D03*
X235077000Y-26416000D03*
D19*
X246253000Y-41656000D03*
D20*
X246253000Y-36576000D03*
X246253000Y-31496000D03*
X246253000Y-26416000D03*
D19*
X240690400Y-41656000D03*
D20*
X240690400Y-36576000D03*
X240690400Y-31496000D03*
X240690400Y-26416000D03*
D21*
X211124804Y-42595800D03*
X219608400Y-45821600D03*
X217220800Y-42138600D03*
X230505000Y-49657000D03*
X225806000Y-60579000D03*
X214426800Y-44577000D03*
X218516200Y-47167800D03*
X208915321Y-63500000D03*
X215798400Y-34391600D03*
X219125800Y-40868600D03*
X200660000Y-37185600D03*
X201091800Y-52882800D03*
X209423000Y-60429089D03*
X202514200Y-61722000D03*
X206527400Y-63525392D03*
X201168000Y-63525396D03*
X235331004Y-63195200D03*
X233349794Y-61849000D03*
X232257600Y-69900798D03*
X240436400Y-65354200D03*
X222656400Y-55689500D03*
X226822000Y-53594000D03*
X231648000Y-54483000D03*
X231648000Y-51562000D03*
X202565000Y-72390000D03*
X235331000Y-71501000D03*
X247015000Y-57886600D03*
X244678200Y-63576200D03*
X230759000Y-67208400D03*
X225171000Y-66344800D03*
X217474800Y-63500000D03*
X214934800Y-71628000D03*
X221996000Y-49657000D03*
X214909402Y-48031400D03*
X219456000Y-67945000D03*
X223202500Y-35877500D03*
X228854000Y-49276000D03*
X220345000Y-59944000D03*
X222123000Y-54864000D03*
X211803090Y-44325195D03*
X212394800Y-52197000D03*
X214757000Y-57277000D03*
X214249000Y-60274200D03*
X209962342Y-68863724D03*
X204472657Y-68339508D03*
X233299000Y-39116000D03*
X235839000Y-40005000D03*
X205028806Y-38760400D03*
X207365600Y-35687000D03*
X227711000Y-45593000D03*
X205116841Y-48546910D03*
X241935000Y-54356000D03*
X239141000Y-47879000D03*
X240665000Y-54356000D03*
X236601000Y-47879000D03*
X213283802Y-43942000D03*
X211962996Y-50647600D03*
X215823800Y-46253398D03*
X207111600Y-44424600D03*
X214223600Y-68453000D03*
X216408000Y-67310000D03*
X224028000Y-65659000D03*
X236855000Y-51562000D03*
X218770200Y-58851800D03*
X216916000Y-58851800D03*
X235585000Y-51562000D03*
X234315000Y-53213000D03*
X228854000Y-53213000D03*
X221488000Y-59690000D03*
X236855000Y-57912000D03*
X236855000Y-62230000D03*
X205917800Y-46405800D03*
X215138000Y-56261000D03*
X207155078Y-43401090D03*
X220929200Y-41249600D03*
X205536800Y-44704000D03*
X205536800Y-42468800D03*
X206958864Y-47112567D03*
X207747746Y-49784000D03*
D22*
X216763600Y-42595800D02*
X211609737Y-42595800D01*
X211609737Y-42595800D02*
X211124804Y-42595800D01*
X217220800Y-42138600D02*
X216763600Y-42595800D01*
X218719400Y-42138600D02*
X219608400Y-43027600D01*
X219608400Y-43027600D02*
X219608400Y-45821600D01*
X217220800Y-42138600D02*
X218719400Y-42138600D01*
X230505000Y-56769000D02*
X230505000Y-49657000D01*
X229235000Y-58039000D02*
X230505000Y-56769000D01*
X227330000Y-58039000D02*
X229235000Y-58039000D01*
X225806000Y-59563000D02*
X227330000Y-58039000D01*
X225806000Y-60579000D02*
X225806000Y-59563000D01*
X219456000Y-52577998D02*
X215252301Y-48374299D01*
X219456000Y-67945000D02*
X219456000Y-52577998D01*
X215252301Y-48374299D02*
X214909402Y-48031400D01*
D23*
X223202500Y-36258500D02*
X223202500Y-35877500D01*
X223647000Y-36703000D02*
X223202500Y-36258500D01*
X225679000Y-36703000D02*
X223647000Y-36703000D01*
X227711000Y-38735000D02*
X225679000Y-36703000D01*
X230124000Y-38735000D02*
X227711000Y-38735000D01*
X231775000Y-40386000D02*
X230124000Y-38735000D01*
X231775000Y-46355000D02*
X231775000Y-40386000D01*
X228854000Y-49276000D02*
X231775000Y-46355000D01*
X220345000Y-56642000D02*
X220345000Y-59944000D01*
X222123000Y-54864000D02*
X220345000Y-56642000D01*
D22*
X211460191Y-44668094D02*
X211803090Y-44325195D01*
X211289901Y-51092101D02*
X211289901Y-44838384D01*
X211289901Y-44838384D02*
X211460191Y-44668094D01*
X212394800Y-52197000D02*
X211289901Y-51092101D01*
X214249000Y-60274200D02*
X214757000Y-59766200D01*
X214757000Y-59766200D02*
X214757000Y-57277000D01*
X204472657Y-68339508D02*
X204996873Y-68863724D01*
X209477409Y-68863724D02*
X209962342Y-68863724D01*
X204996873Y-68863724D02*
X209477409Y-68863724D01*
X246253000Y-39878000D02*
X246253000Y-41656000D01*
X245491000Y-39116000D02*
X246253000Y-39878000D01*
X233299000Y-39116000D02*
X245491000Y-39116000D01*
X240665000Y-40640000D02*
X240665000Y-41656000D01*
X240030000Y-40005000D02*
X240665000Y-40640000D01*
X235839000Y-40005000D02*
X240030000Y-40005000D01*
X205000000Y-28000000D02*
X205000000Y-38731594D01*
X205000000Y-38731594D02*
X205028806Y-38760400D01*
X217805000Y-35687000D02*
X207850533Y-35687000D01*
X207850533Y-35687000D02*
X207365600Y-35687000D01*
X227711000Y-45593000D02*
X217805000Y-35687000D01*
X205116841Y-45987559D02*
X205116841Y-48061977D01*
X205638400Y-45466000D02*
X205116841Y-45987559D01*
X205943200Y-45466000D02*
X205638400Y-45466000D01*
X206298800Y-32207200D02*
X206298800Y-45110400D01*
X205116841Y-48061977D02*
X205116841Y-48546910D01*
X207187800Y-31318200D02*
X206298800Y-32207200D01*
X212000000Y-28000000D02*
X208681800Y-31318200D01*
X206298800Y-45110400D02*
X205943200Y-45466000D01*
X208681800Y-31318200D02*
X207187800Y-31318200D01*
X241935000Y-51054000D02*
X241935000Y-54356000D01*
X239141000Y-47879000D02*
X241935000Y-51054000D01*
X240665000Y-52324000D02*
X240665000Y-54356000D01*
X236601000Y-47879000D02*
X240665000Y-52324000D01*
X211962996Y-50647600D02*
X211962996Y-45262806D01*
X211962996Y-45262806D02*
X212940903Y-44284899D01*
X212940903Y-44284899D02*
X213283802Y-43942000D01*
X215823800Y-45768465D02*
X215823800Y-46253398D01*
X215823800Y-44452104D02*
X215823800Y-45768465D01*
X214493394Y-43121698D02*
X215823800Y-44452104D01*
X210563896Y-44424600D02*
X211866798Y-43121698D01*
X207111600Y-44424600D02*
X210563896Y-44424600D01*
X211866798Y-43121698D02*
X214493394Y-43121698D01*
X216408000Y-67310000D02*
X215366600Y-67310000D01*
X214566499Y-68110101D02*
X214223600Y-68453000D01*
X215366600Y-67310000D02*
X214566499Y-68110101D01*
X224028000Y-65659000D02*
X226314000Y-63373000D01*
X226314000Y-63373000D02*
X235839000Y-53848000D01*
X236855000Y-52832000D02*
X236855000Y-51562000D01*
X235839000Y-53848000D02*
X236855000Y-52832000D01*
X216916000Y-58851800D02*
X218770200Y-58851800D01*
X235585000Y-51943000D02*
X235585000Y-51562000D01*
X234315000Y-53213000D02*
X235585000Y-51943000D01*
X228346000Y-53213000D02*
X228854000Y-53213000D01*
X225679000Y-55880000D02*
X228346000Y-53213000D01*
X225679000Y-57785000D02*
X225679000Y-55880000D01*
X223774000Y-59690000D02*
X225679000Y-57785000D01*
X221488000Y-59690000D02*
X223774000Y-59690000D01*
X236855000Y-62230000D02*
X236855000Y-57912000D01*
X205917800Y-46890733D02*
X205917800Y-46405800D01*
X205917800Y-49530000D02*
X205917800Y-46890733D01*
X212648800Y-56261000D02*
X205917800Y-49530000D01*
X215138000Y-56261000D02*
X212648800Y-56261000D01*
X207497977Y-43058191D02*
X207155078Y-43401090D01*
X209180373Y-41375795D02*
X207497977Y-43058191D01*
X218083595Y-41375795D02*
X209180373Y-41375795D01*
X220929200Y-41249600D02*
X220586301Y-41592499D01*
X218300299Y-41592499D02*
X218083595Y-41375795D01*
X220586301Y-41592499D02*
X218300299Y-41592499D01*
X205536800Y-42468800D02*
X205536800Y-44704000D01*
X207747746Y-47901449D02*
X207301763Y-47455466D01*
X207747746Y-49784000D02*
X207747746Y-47901449D01*
X207301763Y-47455466D02*
X206958864Y-47112567D01*
D24*
G36*
X248844000Y-70273000D02*
X236300000Y-70273000D01*
X236253841Y-70281685D01*
X236211447Y-70308965D01*
X236183006Y-70350590D01*
X236173000Y-70400000D01*
X236173000Y-73444000D01*
X199756000Y-73444000D01*
X199756000Y-68482869D01*
X203748632Y-68482869D01*
X203858607Y-68749029D01*
X204062065Y-68952843D01*
X204328033Y-69063282D01*
X204480972Y-69063415D01*
X204639077Y-69221520D01*
X204803235Y-69331207D01*
X204996873Y-69369724D01*
X209444602Y-69369724D01*
X209551750Y-69477059D01*
X209817718Y-69587498D01*
X210105703Y-69587749D01*
X210371863Y-69477774D01*
X210575677Y-69274316D01*
X210686116Y-69008348D01*
X210686367Y-68720363D01*
X210635131Y-68596361D01*
X213499575Y-68596361D01*
X213609550Y-68862521D01*
X213813008Y-69066335D01*
X214078976Y-69176774D01*
X214366961Y-69177025D01*
X214633121Y-69067050D01*
X214836935Y-68863592D01*
X214947374Y-68597624D01*
X214947507Y-68444685D01*
X215576192Y-67816000D01*
X215890260Y-67816000D01*
X215997408Y-67923335D01*
X216263376Y-68033774D01*
X216551361Y-68034025D01*
X216817521Y-67924050D01*
X217021335Y-67720592D01*
X217131774Y-67454624D01*
X217132025Y-67166639D01*
X217022050Y-66900479D01*
X216818592Y-66696665D01*
X216552624Y-66586226D01*
X216264639Y-66585975D01*
X215998479Y-66695950D01*
X215890240Y-66804000D01*
X215366600Y-66804000D01*
X215172962Y-66842517D01*
X215087819Y-66899408D01*
X215008804Y-66952204D01*
X214231901Y-67729107D01*
X214080239Y-67728975D01*
X213814079Y-67838950D01*
X213610265Y-68042408D01*
X213499826Y-68308376D01*
X213499575Y-68596361D01*
X210635131Y-68596361D01*
X210576392Y-68454203D01*
X210372934Y-68250389D01*
X210106966Y-68139950D01*
X209818981Y-68139699D01*
X209552821Y-68249674D01*
X209444582Y-68357724D01*
X205206465Y-68357724D01*
X205196550Y-68347809D01*
X205196682Y-68196147D01*
X205086707Y-67929987D01*
X204883249Y-67726173D01*
X204617281Y-67615734D01*
X204329296Y-67615483D01*
X204063136Y-67725458D01*
X203859322Y-67928916D01*
X203748883Y-68194884D01*
X203748632Y-68482869D01*
X199756000Y-68482869D01*
X199756000Y-48690271D01*
X204392816Y-48690271D01*
X204502791Y-48956431D01*
X204706249Y-49160245D01*
X204972217Y-49270684D01*
X205260202Y-49270935D01*
X205411800Y-49208296D01*
X205411800Y-49530000D01*
X205450317Y-49723638D01*
X205560004Y-49887796D01*
X212291004Y-56618796D01*
X212455162Y-56728483D01*
X212648800Y-56767000D01*
X214243247Y-56767000D01*
X214143665Y-56866408D01*
X214033226Y-57132376D01*
X214032975Y-57420361D01*
X214142950Y-57686521D01*
X214251000Y-57794760D01*
X214251000Y-59550302D01*
X214105639Y-59550175D01*
X213839479Y-59660150D01*
X213635665Y-59863608D01*
X213525226Y-60129576D01*
X213524975Y-60417561D01*
X213634950Y-60683721D01*
X213838408Y-60887535D01*
X214104376Y-60997974D01*
X214392361Y-60998225D01*
X214658521Y-60888250D01*
X214862335Y-60684792D01*
X214972774Y-60418824D01*
X214972907Y-60265885D01*
X215114796Y-60123996D01*
X215224483Y-59959838D01*
X215263000Y-59766200D01*
X215263000Y-57794740D01*
X215370335Y-57687592D01*
X215480774Y-57421624D01*
X215481025Y-57133639D01*
X215399457Y-56936229D01*
X215547521Y-56875050D01*
X215751335Y-56671592D01*
X215861774Y-56405624D01*
X215862025Y-56117639D01*
X215752050Y-55851479D01*
X215548592Y-55647665D01*
X215282624Y-55537226D01*
X214994639Y-55536975D01*
X214728479Y-55646950D01*
X214620240Y-55755000D01*
X212858392Y-55755000D01*
X207611173Y-50507781D01*
X207891107Y-50508025D01*
X208157267Y-50398050D01*
X208361081Y-50194592D01*
X208471520Y-49928624D01*
X208471771Y-49640639D01*
X208361796Y-49374479D01*
X208253746Y-49266240D01*
X208253746Y-47901449D01*
X208215229Y-47707811D01*
X208105542Y-47543653D01*
X207682757Y-47120868D01*
X207682889Y-46969206D01*
X207572914Y-46703046D01*
X207369456Y-46499232D01*
X207103488Y-46388793D01*
X206815503Y-46388542D01*
X206641652Y-46460376D01*
X206641825Y-46262439D01*
X206531850Y-45996279D01*
X206330358Y-45794434D01*
X206656596Y-45468196D01*
X206766283Y-45304038D01*
X206804800Y-45110400D01*
X206804800Y-45081033D01*
X206966976Y-45148374D01*
X207254961Y-45148625D01*
X207521121Y-45038650D01*
X207629360Y-44930600D01*
X210563896Y-44930600D01*
X210757534Y-44892083D01*
X210783901Y-44874465D01*
X210783901Y-51092101D01*
X210822418Y-51285739D01*
X210932105Y-51449897D01*
X211670907Y-52188699D01*
X211670775Y-52340361D01*
X211780750Y-52606521D01*
X211984208Y-52810335D01*
X212250176Y-52920774D01*
X212538161Y-52921025D01*
X212804321Y-52811050D01*
X213008135Y-52607592D01*
X213118574Y-52341624D01*
X213118825Y-52053639D01*
X213008850Y-51787479D01*
X212805392Y-51583665D01*
X212539424Y-51473226D01*
X212386485Y-51473093D01*
X212232780Y-51319388D01*
X212372517Y-51261650D01*
X212576331Y-51058192D01*
X212686770Y-50792224D01*
X212687021Y-50504239D01*
X212577046Y-50238079D01*
X212468996Y-50129840D01*
X212468996Y-48174761D01*
X214185377Y-48174761D01*
X214295352Y-48440921D01*
X214498810Y-48644735D01*
X214764778Y-48755174D01*
X214917717Y-48755307D01*
X218950000Y-52787590D01*
X218950000Y-58142632D01*
X218914824Y-58128026D01*
X218626839Y-58127775D01*
X218360679Y-58237750D01*
X218252440Y-58345800D01*
X217433740Y-58345800D01*
X217326592Y-58238465D01*
X217060624Y-58128026D01*
X216772639Y-58127775D01*
X216506479Y-58237750D01*
X216302665Y-58441208D01*
X216192226Y-58707176D01*
X216191975Y-58995161D01*
X216301950Y-59261321D01*
X216505408Y-59465135D01*
X216771376Y-59575574D01*
X217059361Y-59575825D01*
X217325521Y-59465850D01*
X217433760Y-59357800D01*
X218252460Y-59357800D01*
X218359608Y-59465135D01*
X218625576Y-59575574D01*
X218913561Y-59575825D01*
X218950000Y-59560769D01*
X218950000Y-67427260D01*
X218842665Y-67534408D01*
X218732226Y-67800376D01*
X218731975Y-68088361D01*
X218841950Y-68354521D01*
X219045408Y-68558335D01*
X219311376Y-68668774D01*
X219599361Y-68669025D01*
X219865521Y-68559050D01*
X220069335Y-68355592D01*
X220179774Y-68089624D01*
X220179834Y-68020588D01*
X240047636Y-68020588D01*
X240173818Y-68325971D01*
X240407260Y-68559821D01*
X240712423Y-68686535D01*
X241042848Y-68686824D01*
X241348231Y-68560642D01*
X241582081Y-68327200D01*
X241708795Y-68022037D01*
X241708796Y-68020588D01*
X244446916Y-68020588D01*
X244573098Y-68325971D01*
X244806540Y-68559821D01*
X245111703Y-68686535D01*
X245442128Y-68686824D01*
X245747511Y-68560642D01*
X245981361Y-68327200D01*
X246108075Y-68022037D01*
X246108364Y-67691612D01*
X245982182Y-67386229D01*
X245748740Y-67152379D01*
X245443577Y-67025665D01*
X245113152Y-67025376D01*
X244807769Y-67151558D01*
X244573919Y-67385000D01*
X244447205Y-67690163D01*
X244446916Y-68020588D01*
X241708796Y-68020588D01*
X241709084Y-67691612D01*
X241582902Y-67386229D01*
X241349460Y-67152379D01*
X241044297Y-67025665D01*
X240713872Y-67025376D01*
X240408489Y-67151558D01*
X240174639Y-67385000D01*
X240047925Y-67690163D01*
X240047636Y-68020588D01*
X220179834Y-68020588D01*
X220180025Y-67801639D01*
X220070050Y-67535479D01*
X219962000Y-67427240D01*
X219962000Y-65802361D01*
X223303975Y-65802361D01*
X223413950Y-66068521D01*
X223617408Y-66272335D01*
X223883376Y-66382774D01*
X224171361Y-66383025D01*
X224437521Y-66273050D01*
X224641335Y-66069592D01*
X224751774Y-65803624D01*
X224751907Y-65650685D01*
X232347231Y-58055361D01*
X236130975Y-58055361D01*
X236240950Y-58321521D01*
X236349000Y-58429760D01*
X236349000Y-61712260D01*
X236241665Y-61819408D01*
X236131226Y-62085376D01*
X236130975Y-62373361D01*
X236240950Y-62639521D01*
X236444408Y-62843335D01*
X236710376Y-62953774D01*
X236998361Y-62954025D01*
X237264521Y-62844050D01*
X237468335Y-62640592D01*
X237578774Y-62374624D01*
X237579025Y-62086639D01*
X237469050Y-61820479D01*
X237361000Y-61712240D01*
X237361000Y-58429740D01*
X237468335Y-58322592D01*
X237578774Y-58056624D01*
X237579025Y-57768639D01*
X237469050Y-57502479D01*
X237265592Y-57298665D01*
X236999624Y-57188226D01*
X236711639Y-57187975D01*
X236445479Y-57297950D01*
X236241665Y-57501408D01*
X236131226Y-57767376D01*
X236130975Y-58055361D01*
X232347231Y-58055361D01*
X237212796Y-53189796D01*
X237322483Y-53025638D01*
X237361000Y-52832000D01*
X237361000Y-52079740D01*
X237468335Y-51972592D01*
X237578774Y-51706624D01*
X237579025Y-51418639D01*
X237469050Y-51152479D01*
X237265592Y-50948665D01*
X236999624Y-50838226D01*
X236711639Y-50837975D01*
X236445479Y-50947950D01*
X236241665Y-51151408D01*
X236220083Y-51203383D01*
X236199050Y-51152479D01*
X235995592Y-50948665D01*
X235729624Y-50838226D01*
X235441639Y-50837975D01*
X235175479Y-50947950D01*
X234971665Y-51151408D01*
X234861226Y-51417376D01*
X234860975Y-51705361D01*
X234932922Y-51879486D01*
X234323301Y-52489107D01*
X234171639Y-52488975D01*
X233905479Y-52598950D01*
X233701665Y-52802408D01*
X233591226Y-53068376D01*
X233590975Y-53356361D01*
X233700950Y-53622521D01*
X233904408Y-53826335D01*
X234170376Y-53936774D01*
X234458361Y-53937025D01*
X234724521Y-53827050D01*
X234928335Y-53623592D01*
X235038774Y-53357624D01*
X235038907Y-53204685D01*
X235942796Y-52300796D01*
X236052483Y-52136638D01*
X236057062Y-52113618D01*
X236198335Y-51972592D01*
X236219917Y-51920617D01*
X236240950Y-51971521D01*
X236349000Y-52079760D01*
X236349000Y-52622408D01*
X224036301Y-64935107D01*
X223884639Y-64934975D01*
X223618479Y-65044950D01*
X223414665Y-65248408D01*
X223304226Y-65514376D01*
X223303975Y-65802361D01*
X219962000Y-65802361D01*
X219962000Y-60722361D01*
X225081975Y-60722361D01*
X225191950Y-60988521D01*
X225395408Y-61192335D01*
X225661376Y-61302774D01*
X225949361Y-61303025D01*
X226215521Y-61193050D01*
X226419335Y-60989592D01*
X226529774Y-60723624D01*
X226530025Y-60435639D01*
X226420050Y-60169479D01*
X226312000Y-60061240D01*
X226312000Y-59772592D01*
X227539592Y-58545000D01*
X229235000Y-58545000D01*
X229428638Y-58506483D01*
X229592796Y-58396796D01*
X230862796Y-57126796D01*
X230972483Y-56962638D01*
X231011000Y-56769000D01*
X231011000Y-50174740D01*
X231118335Y-50067592D01*
X231228774Y-49801624D01*
X231229025Y-49513639D01*
X231119050Y-49247479D01*
X230915592Y-49043665D01*
X230649624Y-48933226D01*
X230361639Y-48932975D01*
X230095479Y-49042950D01*
X229891665Y-49246408D01*
X229781226Y-49512376D01*
X229780975Y-49800361D01*
X229890950Y-50066521D01*
X229999000Y-50174760D01*
X229999000Y-56559408D01*
X229025408Y-57533000D01*
X227330000Y-57533000D01*
X227136362Y-57571517D01*
X226972204Y-57681204D01*
X225448204Y-59205204D01*
X225338517Y-59369362D01*
X225300000Y-59563000D01*
X225300000Y-60061260D01*
X225192665Y-60168408D01*
X225082226Y-60434376D01*
X225081975Y-60722361D01*
X219962000Y-60722361D01*
X219962000Y-60568792D01*
X220200376Y-60667774D01*
X220488361Y-60668025D01*
X220754521Y-60558050D01*
X220958335Y-60354592D01*
X221008346Y-60234152D01*
X221077408Y-60303335D01*
X221343376Y-60413774D01*
X221631361Y-60414025D01*
X221897521Y-60304050D01*
X222005760Y-60196000D01*
X223774000Y-60196000D01*
X223967638Y-60157483D01*
X224131796Y-60047796D01*
X226036796Y-58142796D01*
X226146483Y-57978638D01*
X226185000Y-57785000D01*
X226185000Y-56259036D01*
X227722234Y-56259036D01*
X227894142Y-56675086D01*
X228212180Y-56993679D01*
X228627929Y-57166313D01*
X229078096Y-57166706D01*
X229494146Y-56994798D01*
X229812739Y-56676760D01*
X229985373Y-56261011D01*
X229985766Y-55810844D01*
X229813858Y-55394794D01*
X229495820Y-55076201D01*
X229080071Y-54903567D01*
X228629904Y-54903174D01*
X228213854Y-55075082D01*
X227895261Y-55393120D01*
X227722627Y-55808869D01*
X227722234Y-56259036D01*
X226185000Y-56259036D01*
X226185000Y-56089592D01*
X228446834Y-53827758D01*
X228709376Y-53936774D01*
X228997361Y-53937025D01*
X229263521Y-53827050D01*
X229467335Y-53623592D01*
X229577774Y-53357624D01*
X229578025Y-53069639D01*
X229468050Y-52803479D01*
X229264592Y-52599665D01*
X228998624Y-52489226D01*
X228710639Y-52488975D01*
X228444479Y-52598950D01*
X228333811Y-52709425D01*
X228152362Y-52745517D01*
X228054285Y-52811050D01*
X227988204Y-52855204D01*
X225321204Y-55522204D01*
X225211517Y-55686362D01*
X225173000Y-55880000D01*
X225173000Y-57575408D01*
X223564408Y-59184000D01*
X222005740Y-59184000D01*
X221898592Y-59076665D01*
X221632624Y-58966226D01*
X221344639Y-58965975D01*
X221078479Y-59075950D01*
X220926000Y-59228163D01*
X220926000Y-56882658D01*
X222220673Y-55587985D01*
X222266361Y-55588025D01*
X222532521Y-55478050D01*
X222736335Y-55274592D01*
X222846774Y-55008624D01*
X222847025Y-54720639D01*
X222737050Y-54454479D01*
X222533592Y-54250665D01*
X222267624Y-54140226D01*
X221979639Y-54139975D01*
X221713479Y-54249950D01*
X221509665Y-54453408D01*
X221399226Y-54719376D01*
X221399185Y-54766157D01*
X219962000Y-56203342D01*
X219962000Y-52577998D01*
X219923483Y-52384360D01*
X219813796Y-52220202D01*
X218970750Y-51377156D01*
X227722234Y-51377156D01*
X227894142Y-51793206D01*
X228212180Y-52111799D01*
X228627929Y-52284433D01*
X229078096Y-52284826D01*
X229494146Y-52112918D01*
X229812739Y-51794880D01*
X229985373Y-51379131D01*
X229985766Y-50928964D01*
X229813858Y-50512914D01*
X229495820Y-50194321D01*
X229080071Y-50021687D01*
X228629904Y-50021294D01*
X228213854Y-50193202D01*
X227895261Y-50511240D01*
X227722627Y-50926989D01*
X227722234Y-51377156D01*
X218970750Y-51377156D01*
X215633295Y-48039701D01*
X215633427Y-47888039D01*
X215523452Y-47621879D01*
X215319994Y-47418065D01*
X215054026Y-47307626D01*
X214766041Y-47307375D01*
X214499881Y-47417350D01*
X214296067Y-47620808D01*
X214185628Y-47886776D01*
X214185377Y-48174761D01*
X212468996Y-48174761D01*
X212468996Y-45472398D01*
X213275501Y-44665893D01*
X213427163Y-44666025D01*
X213693323Y-44556050D01*
X213897137Y-44352592D01*
X214007576Y-44086624D01*
X214007827Y-43798639D01*
X213937196Y-43627698D01*
X214283802Y-43627698D01*
X215317800Y-44661696D01*
X215317800Y-45735658D01*
X215210465Y-45842806D01*
X215100026Y-46108774D01*
X215099775Y-46396759D01*
X215209750Y-46662919D01*
X215413208Y-46866733D01*
X215679176Y-46977172D01*
X215967161Y-46977423D01*
X216233321Y-46867448D01*
X216437135Y-46663990D01*
X216547574Y-46398022D01*
X216547825Y-46110037D01*
X216437850Y-45843877D01*
X216329800Y-45735638D01*
X216329800Y-44452104D01*
X216291283Y-44258466D01*
X216181596Y-44094308D01*
X215189088Y-43101800D01*
X216763600Y-43101800D01*
X216957238Y-43063283D01*
X217121396Y-42953596D01*
X217212499Y-42862493D01*
X217364161Y-42862625D01*
X217630321Y-42752650D01*
X217738560Y-42644600D01*
X218509808Y-42644600D01*
X219102400Y-43237192D01*
X219102400Y-45303860D01*
X218995065Y-45411008D01*
X218884626Y-45676976D01*
X218884375Y-45964961D01*
X218994350Y-46231121D01*
X219197808Y-46434935D01*
X219463776Y-46545374D01*
X219751761Y-46545625D01*
X220017921Y-46435650D01*
X220221735Y-46232192D01*
X220332174Y-45966224D01*
X220332425Y-45678239D01*
X220222450Y-45412079D01*
X220114400Y-45303840D01*
X220114400Y-43027600D01*
X220075883Y-42833962D01*
X219966196Y-42669804D01*
X219394891Y-42098499D01*
X220586301Y-42098499D01*
X220779939Y-42059982D01*
X220909394Y-41973483D01*
X221072561Y-41973625D01*
X221338721Y-41863650D01*
X221542535Y-41660192D01*
X221652974Y-41394224D01*
X221653225Y-41106239D01*
X221543250Y-40840079D01*
X221339792Y-40636265D01*
X221073824Y-40525826D01*
X220785839Y-40525575D01*
X220519679Y-40635550D01*
X220315865Y-40839008D01*
X220213098Y-41086499D01*
X218509891Y-41086499D01*
X218441391Y-41017999D01*
X218277233Y-40908312D01*
X218083595Y-40869795D01*
X209180373Y-40869795D01*
X208986735Y-40908312D01*
X208822577Y-41017999D01*
X207163379Y-42677197D01*
X207011717Y-42677065D01*
X206804800Y-42762561D01*
X206804800Y-36149864D01*
X206955008Y-36300335D01*
X207220976Y-36410774D01*
X207508961Y-36411025D01*
X207775121Y-36301050D01*
X207883360Y-36193000D01*
X217595408Y-36193000D01*
X226987107Y-45584699D01*
X226986975Y-45736361D01*
X227096950Y-46002521D01*
X227300408Y-46206335D01*
X227566376Y-46316774D01*
X227854361Y-46317025D01*
X228120521Y-46207050D01*
X228324335Y-46003592D01*
X228434774Y-45737624D01*
X228435025Y-45449639D01*
X228325050Y-45183479D01*
X228121592Y-44979665D01*
X227855624Y-44869226D01*
X227702685Y-44869093D01*
X218854453Y-36020861D01*
X222478475Y-36020861D01*
X222588450Y-36287021D01*
X222636809Y-36335465D01*
X222665726Y-36480839D01*
X222791671Y-36669329D01*
X223236171Y-37113829D01*
X223424661Y-37239774D01*
X223647000Y-37284000D01*
X225438342Y-37284000D01*
X227300171Y-39145829D01*
X227488661Y-39271774D01*
X227711000Y-39316000D01*
X229883342Y-39316000D01*
X231194000Y-40626658D01*
X231194000Y-40704092D01*
X231117454Y-40585135D01*
X230990134Y-40498141D01*
X230839000Y-40467536D01*
X228139000Y-40467536D01*
X227997810Y-40494103D01*
X227868135Y-40577546D01*
X227781141Y-40704866D01*
X227750536Y-40856000D01*
X227750536Y-42456000D01*
X227777103Y-42597190D01*
X227860546Y-42726865D01*
X227987866Y-42813859D01*
X228139000Y-42844464D01*
X230839000Y-42844464D01*
X230980190Y-42817897D01*
X231109865Y-42734454D01*
X231194000Y-42611318D01*
X231194000Y-46114342D01*
X228756327Y-48552015D01*
X228710639Y-48551975D01*
X228444479Y-48661950D01*
X228240665Y-48865408D01*
X228130226Y-49131376D01*
X228129975Y-49419361D01*
X228239950Y-49685521D01*
X228443408Y-49889335D01*
X228709376Y-49999774D01*
X228997361Y-50000025D01*
X229263521Y-49890050D01*
X229467335Y-49686592D01*
X229577774Y-49420624D01*
X229577815Y-49373843D01*
X232185829Y-46765829D01*
X232311774Y-46577339D01*
X232356000Y-46355000D01*
X232356000Y-46048231D01*
X232816400Y-46048231D01*
X232816400Y-46407769D01*
X232911140Y-46884057D01*
X233180935Y-47287834D01*
X233584712Y-47557629D01*
X234061000Y-47652369D01*
X234537288Y-47557629D01*
X234941065Y-47287834D01*
X235210860Y-46884057D01*
X235305600Y-46407769D01*
X235305600Y-46048231D01*
X235356400Y-46048231D01*
X235356400Y-46407769D01*
X235451140Y-46884057D01*
X235720935Y-47287834D01*
X235989076Y-47467000D01*
X235987665Y-47468408D01*
X235877226Y-47734376D01*
X235876975Y-48022361D01*
X235986950Y-48288521D01*
X236190408Y-48492335D01*
X236456376Y-48602774D01*
X236577222Y-48602879D01*
X240159000Y-52520449D01*
X240159000Y-53838260D01*
X240051665Y-53945408D01*
X239941226Y-54211376D01*
X239940975Y-54499361D01*
X240050950Y-54765521D01*
X240254408Y-54969335D01*
X240520376Y-55079774D01*
X240808361Y-55080025D01*
X241074521Y-54970050D01*
X241278335Y-54766592D01*
X241299917Y-54714617D01*
X241320950Y-54765521D01*
X241524408Y-54969335D01*
X241790376Y-55079774D01*
X242078361Y-55080025D01*
X242344521Y-54970050D01*
X242548335Y-54766592D01*
X242658774Y-54500624D01*
X242659025Y-54212639D01*
X242549050Y-53946479D01*
X242441000Y-53838240D01*
X242441000Y-51054000D01*
X242424829Y-50972702D01*
X242413869Y-50890535D01*
X242405672Y-50876393D01*
X242402483Y-50860362D01*
X242356431Y-50791440D01*
X242314861Y-50719722D01*
X239864851Y-47935619D01*
X239865025Y-47735639D01*
X239755050Y-47469479D01*
X239752715Y-47467140D01*
X240021065Y-47287834D01*
X240290860Y-46884057D01*
X240293704Y-46869757D01*
X240389046Y-47142320D01*
X240778964Y-47578732D01*
X241306209Y-47832709D01*
X241321974Y-47835358D01*
X241554000Y-47714217D01*
X241554000Y-46355000D01*
X241534000Y-46355000D01*
X241534000Y-46101000D01*
X241554000Y-46101000D01*
X241554000Y-44741783D01*
X241808000Y-44741783D01*
X241808000Y-46101000D01*
X241828000Y-46101000D01*
X241828000Y-46355000D01*
X241808000Y-46355000D01*
X241808000Y-47714217D01*
X242040026Y-47835358D01*
X242055791Y-47832709D01*
X242583036Y-47578732D01*
X242972954Y-47142320D01*
X243068296Y-46869757D01*
X243071140Y-46884057D01*
X243340935Y-47287834D01*
X243744712Y-47557629D01*
X244221000Y-47652369D01*
X244697288Y-47557629D01*
X245101065Y-47287834D01*
X245370860Y-46884057D01*
X245465600Y-46407769D01*
X245465600Y-46048231D01*
X245370860Y-45571943D01*
X245130354Y-45212000D01*
X245508936Y-45212000D01*
X245508936Y-47244000D01*
X245535503Y-47385190D01*
X245618946Y-47514865D01*
X245746266Y-47601859D01*
X245897400Y-47632464D01*
X247624600Y-47632464D01*
X247765790Y-47605897D01*
X247895465Y-47522454D01*
X247982459Y-47395134D01*
X248013064Y-47244000D01*
X248013064Y-45212000D01*
X247986497Y-45070810D01*
X247903054Y-44941135D01*
X247775734Y-44854141D01*
X247624600Y-44823536D01*
X245897400Y-44823536D01*
X245756210Y-44850103D01*
X245626535Y-44933546D01*
X245539541Y-45060866D01*
X245508936Y-45212000D01*
X245130354Y-45212000D01*
X245101065Y-45168166D01*
X244697288Y-44898371D01*
X244221000Y-44803631D01*
X243744712Y-44898371D01*
X243340935Y-45168166D01*
X243071140Y-45571943D01*
X243068296Y-45586243D01*
X242972954Y-45313680D01*
X242583036Y-44877268D01*
X242055791Y-44623291D01*
X242040026Y-44620642D01*
X241808000Y-44741783D01*
X241554000Y-44741783D01*
X241321974Y-44620642D01*
X241306209Y-44623291D01*
X240778964Y-44877268D01*
X240389046Y-45313680D01*
X240293704Y-45586243D01*
X240290860Y-45571943D01*
X240021065Y-45168166D01*
X239617288Y-44898371D01*
X239141000Y-44803631D01*
X238664712Y-44898371D01*
X238260935Y-45168166D01*
X237991140Y-45571943D01*
X237896400Y-46048231D01*
X237896400Y-46407769D01*
X237991140Y-46884057D01*
X238260935Y-47287834D01*
X238529076Y-47467000D01*
X238527665Y-47468408D01*
X238417226Y-47734376D01*
X238416975Y-48022361D01*
X238526950Y-48288521D01*
X238730408Y-48492335D01*
X238996376Y-48602774D01*
X239103978Y-48602868D01*
X241429000Y-51244938D01*
X241429000Y-53838260D01*
X241321665Y-53945408D01*
X241300083Y-53997383D01*
X241279050Y-53946479D01*
X241171000Y-53838240D01*
X241171000Y-52324000D01*
X241153908Y-52238071D01*
X241140677Y-52151467D01*
X241134725Y-52141634D01*
X241132483Y-52130362D01*
X241083812Y-52057521D01*
X241038443Y-51982567D01*
X237324864Y-47920840D01*
X237325025Y-47735639D01*
X237215050Y-47469479D01*
X237212715Y-47467140D01*
X237481065Y-47287834D01*
X237750860Y-46884057D01*
X237845600Y-46407769D01*
X237845600Y-46048231D01*
X237750860Y-45571943D01*
X237481065Y-45168166D01*
X237077288Y-44898371D01*
X236601000Y-44803631D01*
X236124712Y-44898371D01*
X235720935Y-45168166D01*
X235451140Y-45571943D01*
X235356400Y-46048231D01*
X235305600Y-46048231D01*
X235210860Y-45571943D01*
X234941065Y-45168166D01*
X234537288Y-44898371D01*
X234061000Y-44803631D01*
X233584712Y-44898371D01*
X233180935Y-45168166D01*
X232911140Y-45571943D01*
X232816400Y-46048231D01*
X232356000Y-46048231D01*
X232356000Y-40386000D01*
X232311774Y-40163661D01*
X232185829Y-39975171D01*
X231470019Y-39259361D01*
X232574975Y-39259361D01*
X232684950Y-39525521D01*
X232888408Y-39729335D01*
X233154376Y-39839774D01*
X233442361Y-39840025D01*
X233708521Y-39730050D01*
X233816760Y-39622000D01*
X235214208Y-39622000D01*
X235115226Y-39860376D01*
X235114975Y-40148361D01*
X235224950Y-40414521D01*
X235277872Y-40467536D01*
X233727000Y-40467536D01*
X233585810Y-40494103D01*
X233456135Y-40577546D01*
X233369141Y-40704866D01*
X233338536Y-40856000D01*
X233338536Y-42456000D01*
X233365103Y-42597190D01*
X233448546Y-42726865D01*
X233575866Y-42813859D01*
X233727000Y-42844464D01*
X236427000Y-42844464D01*
X236568190Y-42817897D01*
X236697865Y-42734454D01*
X236784859Y-42607134D01*
X236815464Y-42456000D01*
X236815464Y-40856000D01*
X236788897Y-40714810D01*
X236705454Y-40585135D01*
X236596954Y-40511000D01*
X239172951Y-40511000D01*
X239069535Y-40577546D01*
X238982541Y-40704866D01*
X238951936Y-40856000D01*
X238951936Y-42456000D01*
X238978503Y-42597190D01*
X239061946Y-42726865D01*
X239189266Y-42813859D01*
X239340400Y-42844464D01*
X242040400Y-42844464D01*
X242181590Y-42817897D01*
X242311265Y-42734454D01*
X242398259Y-42607134D01*
X242428864Y-42456000D01*
X242428864Y-40856000D01*
X242402297Y-40714810D01*
X242318854Y-40585135D01*
X242191534Y-40498141D01*
X242040400Y-40467536D01*
X241136695Y-40467536D01*
X241132483Y-40446362D01*
X241022796Y-40282204D01*
X240387796Y-39647204D01*
X240350076Y-39622000D01*
X245281408Y-39622000D01*
X245747000Y-40087592D01*
X245747000Y-40467536D01*
X244903000Y-40467536D01*
X244761810Y-40494103D01*
X244632135Y-40577546D01*
X244545141Y-40704866D01*
X244514536Y-40856000D01*
X244514536Y-42456000D01*
X244541103Y-42597190D01*
X244624546Y-42726865D01*
X244751866Y-42813859D01*
X244903000Y-42844464D01*
X247603000Y-42844464D01*
X247744190Y-42817897D01*
X247873865Y-42734454D01*
X247960859Y-42607134D01*
X247991464Y-42456000D01*
X247991464Y-40856000D01*
X247964897Y-40714810D01*
X247881454Y-40585135D01*
X247754134Y-40498141D01*
X247603000Y-40467536D01*
X246759000Y-40467536D01*
X246759000Y-39878000D01*
X246720483Y-39684362D01*
X246610796Y-39520204D01*
X245848796Y-38758204D01*
X245684638Y-38648517D01*
X245491000Y-38610000D01*
X233816740Y-38610000D01*
X233709592Y-38502665D01*
X233443624Y-38392226D01*
X233155639Y-38391975D01*
X232889479Y-38501950D01*
X232685665Y-38705408D01*
X232575226Y-38971376D01*
X232574975Y-39259361D01*
X231470019Y-39259361D01*
X230534829Y-38324171D01*
X230346339Y-38198226D01*
X230124000Y-38154000D01*
X227951658Y-38154000D01*
X226373658Y-36576000D01*
X227724088Y-36576000D01*
X227813986Y-37027949D01*
X228069995Y-37411093D01*
X228453139Y-37667102D01*
X228905088Y-37757000D01*
X230072912Y-37757000D01*
X230524861Y-37667102D01*
X230908005Y-37411093D01*
X231164014Y-37027949D01*
X231253912Y-36576000D01*
X233312088Y-36576000D01*
X233401986Y-37027949D01*
X233657995Y-37411093D01*
X234041139Y-37667102D01*
X234493088Y-37757000D01*
X235660912Y-37757000D01*
X236112861Y-37667102D01*
X236496005Y-37411093D01*
X236752014Y-37027949D01*
X236841912Y-36576000D01*
X238925488Y-36576000D01*
X239015386Y-37027949D01*
X239271395Y-37411093D01*
X239654539Y-37667102D01*
X240106488Y-37757000D01*
X241274312Y-37757000D01*
X241726261Y-37667102D01*
X242109405Y-37411093D01*
X242365414Y-37027949D01*
X242455312Y-36576000D01*
X244488088Y-36576000D01*
X244577986Y-37027949D01*
X244833995Y-37411093D01*
X245217139Y-37667102D01*
X245669088Y-37757000D01*
X246836912Y-37757000D01*
X247288861Y-37667102D01*
X247672005Y-37411093D01*
X247928014Y-37027949D01*
X248017912Y-36576000D01*
X247928014Y-36124051D01*
X247672005Y-35740907D01*
X247288861Y-35484898D01*
X246836912Y-35395000D01*
X245669088Y-35395000D01*
X245217139Y-35484898D01*
X244833995Y-35740907D01*
X244577986Y-36124051D01*
X244488088Y-36576000D01*
X242455312Y-36576000D01*
X242365414Y-36124051D01*
X242109405Y-35740907D01*
X241726261Y-35484898D01*
X241274312Y-35395000D01*
X240106488Y-35395000D01*
X239654539Y-35484898D01*
X239271395Y-35740907D01*
X239015386Y-36124051D01*
X238925488Y-36576000D01*
X236841912Y-36576000D01*
X236752014Y-36124051D01*
X236496005Y-35740907D01*
X236112861Y-35484898D01*
X235660912Y-35395000D01*
X234493088Y-35395000D01*
X234041139Y-35484898D01*
X233657995Y-35740907D01*
X233401986Y-36124051D01*
X233312088Y-36576000D01*
X231253912Y-36576000D01*
X231164014Y-36124051D01*
X230908005Y-35740907D01*
X230524861Y-35484898D01*
X230072912Y-35395000D01*
X228905088Y-35395000D01*
X228453139Y-35484898D01*
X228069995Y-35740907D01*
X227813986Y-36124051D01*
X227724088Y-36576000D01*
X226373658Y-36576000D01*
X226089829Y-36292171D01*
X225901339Y-36166226D01*
X225679000Y-36122000D01*
X223887658Y-36122000D01*
X223885640Y-36119982D01*
X223926274Y-36022124D01*
X223926525Y-35734139D01*
X223816550Y-35467979D01*
X223613092Y-35264165D01*
X223347124Y-35153726D01*
X223059139Y-35153475D01*
X222792979Y-35263450D01*
X222589165Y-35466908D01*
X222478726Y-35732876D01*
X222478475Y-36020861D01*
X218854453Y-36020861D01*
X218162796Y-35329204D01*
X217998638Y-35219517D01*
X217805000Y-35181000D01*
X207883340Y-35181000D01*
X207776192Y-35073665D01*
X207510224Y-34963226D01*
X207222239Y-34962975D01*
X206956079Y-35072950D01*
X206804800Y-35223965D01*
X206804800Y-32416792D01*
X207397392Y-31824200D01*
X208681800Y-31824200D01*
X208875438Y-31785683D01*
X209039596Y-31675996D01*
X209073099Y-31642493D01*
X218074761Y-31642493D01*
X218284563Y-32150251D01*
X218672705Y-32539072D01*
X219180097Y-32749759D01*
X219729493Y-32750239D01*
X220237251Y-32540437D01*
X220256189Y-32521532D01*
X221023073Y-32521532D01*
X221121736Y-32788387D01*
X221731461Y-33014908D01*
X222381460Y-32990856D01*
X222870264Y-32788387D01*
X222968927Y-32521532D01*
X221996000Y-31548605D01*
X221023073Y-32521532D01*
X220256189Y-32521532D01*
X220564423Y-32213836D01*
X220576613Y-32243264D01*
X220843468Y-32341927D01*
X221816395Y-31369000D01*
X222175605Y-31369000D01*
X223148532Y-32341927D01*
X223415387Y-32243264D01*
X223426786Y-32212582D01*
X223752705Y-32539072D01*
X224260097Y-32749759D01*
X224809493Y-32750239D01*
X225317251Y-32540437D01*
X225706072Y-32152295D01*
X225833655Y-31845039D01*
X227547096Y-31845039D01*
X227564633Y-31927819D01*
X227834500Y-32420896D01*
X228272517Y-32773166D01*
X228812000Y-32931000D01*
X229362000Y-32931000D01*
X229362000Y-31623000D01*
X229616000Y-31623000D01*
X229616000Y-32931000D01*
X230166000Y-32931000D01*
X230705483Y-32773166D01*
X231143500Y-32420896D01*
X231413367Y-31927819D01*
X231430904Y-31845039D01*
X233135096Y-31845039D01*
X233152633Y-31927819D01*
X233422500Y-32420896D01*
X233860517Y-32773166D01*
X234400000Y-32931000D01*
X234950000Y-32931000D01*
X234950000Y-31623000D01*
X235204000Y-31623000D01*
X235204000Y-32931000D01*
X235754000Y-32931000D01*
X236293483Y-32773166D01*
X236731500Y-32420896D01*
X237001367Y-31927819D01*
X237018904Y-31845039D01*
X238748496Y-31845039D01*
X238766033Y-31927819D01*
X239035900Y-32420896D01*
X239473917Y-32773166D01*
X240013400Y-32931000D01*
X240563400Y-32931000D01*
X240563400Y-31623000D01*
X240817400Y-31623000D01*
X240817400Y-32931000D01*
X241367400Y-32931000D01*
X241906883Y-32773166D01*
X242344900Y-32420896D01*
X242614767Y-31927819D01*
X242632304Y-31845039D01*
X244311096Y-31845039D01*
X244328633Y-31927819D01*
X244598500Y-32420896D01*
X245036517Y-32773166D01*
X245576000Y-32931000D01*
X246126000Y-32931000D01*
X246126000Y-31623000D01*
X246380000Y-31623000D01*
X246380000Y-32931000D01*
X246930000Y-32931000D01*
X247469483Y-32773166D01*
X247907500Y-32420896D01*
X248177367Y-31927819D01*
X248194904Y-31845039D01*
X248072915Y-31623000D01*
X246380000Y-31623000D01*
X246126000Y-31623000D01*
X244433085Y-31623000D01*
X244311096Y-31845039D01*
X242632304Y-31845039D01*
X242510315Y-31623000D01*
X240817400Y-31623000D01*
X240563400Y-31623000D01*
X238870485Y-31623000D01*
X238748496Y-31845039D01*
X237018904Y-31845039D01*
X236896915Y-31623000D01*
X235204000Y-31623000D01*
X234950000Y-31623000D01*
X233257085Y-31623000D01*
X233135096Y-31845039D01*
X231430904Y-31845039D01*
X231308915Y-31623000D01*
X229616000Y-31623000D01*
X229362000Y-31623000D01*
X227669085Y-31623000D01*
X227547096Y-31845039D01*
X225833655Y-31845039D01*
X225916759Y-31644903D01*
X225917194Y-31146961D01*
X227547096Y-31146961D01*
X227669085Y-31369000D01*
X229362000Y-31369000D01*
X229362000Y-30061000D01*
X229616000Y-30061000D01*
X229616000Y-31369000D01*
X231308915Y-31369000D01*
X231430904Y-31146961D01*
X233135096Y-31146961D01*
X233257085Y-31369000D01*
X234950000Y-31369000D01*
X234950000Y-30061000D01*
X235204000Y-30061000D01*
X235204000Y-31369000D01*
X236896915Y-31369000D01*
X237018904Y-31146961D01*
X238748496Y-31146961D01*
X238870485Y-31369000D01*
X240563400Y-31369000D01*
X240563400Y-30061000D01*
X240817400Y-30061000D01*
X240817400Y-31369000D01*
X242510315Y-31369000D01*
X242632304Y-31146961D01*
X244311096Y-31146961D01*
X244433085Y-31369000D01*
X246126000Y-31369000D01*
X246126000Y-30061000D01*
X246380000Y-30061000D01*
X246380000Y-31369000D01*
X248072915Y-31369000D01*
X248194904Y-31146961D01*
X248177367Y-31064181D01*
X247907500Y-30571104D01*
X247469483Y-30218834D01*
X246930000Y-30061000D01*
X246380000Y-30061000D01*
X246126000Y-30061000D01*
X245576000Y-30061000D01*
X245036517Y-30218834D01*
X244598500Y-30571104D01*
X244328633Y-31064181D01*
X244311096Y-31146961D01*
X242632304Y-31146961D01*
X242614767Y-31064181D01*
X242344900Y-30571104D01*
X241906883Y-30218834D01*
X241367400Y-30061000D01*
X240817400Y-30061000D01*
X240563400Y-30061000D01*
X240013400Y-30061000D01*
X239473917Y-30218834D01*
X239035900Y-30571104D01*
X238766033Y-31064181D01*
X238748496Y-31146961D01*
X237018904Y-31146961D01*
X237001367Y-31064181D01*
X236731500Y-30571104D01*
X236293483Y-30218834D01*
X235754000Y-30061000D01*
X235204000Y-30061000D01*
X234950000Y-30061000D01*
X234400000Y-30061000D01*
X233860517Y-30218834D01*
X233422500Y-30571104D01*
X233152633Y-31064181D01*
X233135096Y-31146961D01*
X231430904Y-31146961D01*
X231413367Y-31064181D01*
X231143500Y-30571104D01*
X230705483Y-30218834D01*
X230166000Y-30061000D01*
X229616000Y-30061000D01*
X229362000Y-30061000D01*
X228812000Y-30061000D01*
X228272517Y-30218834D01*
X227834500Y-30571104D01*
X227564633Y-31064181D01*
X227547096Y-31146961D01*
X225917194Y-31146961D01*
X225917239Y-31095507D01*
X225707437Y-30587749D01*
X225319295Y-30198928D01*
X224811903Y-29988241D01*
X224262507Y-29987761D01*
X223754749Y-30197563D01*
X223427577Y-30524164D01*
X223415387Y-30494736D01*
X223148532Y-30396073D01*
X222175605Y-31369000D01*
X221816395Y-31369000D01*
X220843468Y-30396073D01*
X220576613Y-30494736D01*
X220565214Y-30525418D01*
X220256805Y-30216468D01*
X221023073Y-30216468D01*
X221996000Y-31189395D01*
X222968927Y-30216468D01*
X222870264Y-29949613D01*
X222260539Y-29723092D01*
X221610540Y-29747144D01*
X221121736Y-29949613D01*
X221023073Y-30216468D01*
X220256805Y-30216468D01*
X220239295Y-30198928D01*
X219731903Y-29988241D01*
X219182507Y-29987761D01*
X218674749Y-30197563D01*
X218285928Y-30585705D01*
X218075241Y-31093097D01*
X218074761Y-31642493D01*
X209073099Y-31642493D01*
X211296026Y-29419566D01*
X211684140Y-29580725D01*
X212313101Y-29581274D01*
X212894395Y-29341088D01*
X213339525Y-28896734D01*
X213580725Y-28315860D01*
X213581274Y-27686899D01*
X213341088Y-27105605D01*
X213036016Y-26800000D01*
X213911536Y-26800000D01*
X213911536Y-29200000D01*
X213938103Y-29341190D01*
X214021546Y-29470865D01*
X214148866Y-29557859D01*
X214300000Y-29588464D01*
X216700000Y-29588464D01*
X216841190Y-29561897D01*
X216970865Y-29478454D01*
X217057859Y-29351134D01*
X217088464Y-29200000D01*
X217088464Y-26828750D01*
X217567000Y-26828750D01*
X217567000Y-27669309D01*
X217663673Y-27902698D01*
X217842301Y-28081327D01*
X218075690Y-28178000D01*
X218916250Y-28178000D01*
X219075000Y-28019250D01*
X219075000Y-26670000D01*
X217725750Y-26670000D01*
X217567000Y-26828750D01*
X217088464Y-26828750D01*
X217088464Y-26800000D01*
X217061897Y-26658810D01*
X216978454Y-26529135D01*
X216851134Y-26442141D01*
X216700000Y-26411536D01*
X214300000Y-26411536D01*
X214158810Y-26438103D01*
X214029135Y-26521546D01*
X213942141Y-26648866D01*
X213911536Y-26800000D01*
X213036016Y-26800000D01*
X212896734Y-26660475D01*
X212315860Y-26419275D01*
X211686899Y-26418726D01*
X211105605Y-26658912D01*
X210660475Y-27103266D01*
X210419275Y-27684140D01*
X210418726Y-28313101D01*
X210580291Y-28704117D01*
X208472208Y-30812200D01*
X207187800Y-30812200D01*
X206994162Y-30850717D01*
X206830004Y-30960404D01*
X205941004Y-31849404D01*
X205831317Y-32013562D01*
X205792800Y-32207200D01*
X205792800Y-41791273D01*
X205681424Y-41745026D01*
X205393439Y-41744775D01*
X205127279Y-41854750D01*
X204923465Y-42058208D01*
X204813026Y-42324176D01*
X204812775Y-42612161D01*
X204922750Y-42878321D01*
X205030800Y-42986560D01*
X205030800Y-44186260D01*
X204923465Y-44293408D01*
X204813026Y-44559376D01*
X204812775Y-44847361D01*
X204922750Y-45113521D01*
X205098864Y-45289944D01*
X204759045Y-45629763D01*
X204649358Y-45793921D01*
X204610841Y-45987559D01*
X204610841Y-48029170D01*
X204503506Y-48136318D01*
X204393067Y-48402286D01*
X204392816Y-48690271D01*
X199756000Y-48690271D01*
X199756000Y-29297175D01*
X200382430Y-29297175D01*
X200505565Y-29584788D01*
X201187734Y-29844707D01*
X201917443Y-29823786D01*
X202494435Y-29584788D01*
X202617570Y-29297175D01*
X201500000Y-28179605D01*
X200382430Y-29297175D01*
X199756000Y-29297175D01*
X199756000Y-28610063D01*
X199915212Y-28994435D01*
X200202825Y-29117570D01*
X201320395Y-28000000D01*
X201679605Y-28000000D01*
X202797175Y-29117570D01*
X203084788Y-28994435D01*
X203344388Y-28313101D01*
X203418726Y-28313101D01*
X203658912Y-28894395D01*
X204103266Y-29339525D01*
X204494000Y-29501772D01*
X204494000Y-38271416D01*
X204415471Y-38349808D01*
X204305032Y-38615776D01*
X204304781Y-38903761D01*
X204414756Y-39169921D01*
X204618214Y-39373735D01*
X204884182Y-39484174D01*
X205172167Y-39484425D01*
X205438327Y-39374450D01*
X205642141Y-39170992D01*
X205752580Y-38905024D01*
X205752831Y-38617039D01*
X205642856Y-38350879D01*
X205506000Y-38213784D01*
X205506000Y-29501570D01*
X205894395Y-29341088D01*
X206339525Y-28896734D01*
X206580725Y-28315860D01*
X206580727Y-28313101D01*
X206918726Y-28313101D01*
X207158912Y-28894395D01*
X207603266Y-29339525D01*
X208184140Y-29580725D01*
X208813101Y-29581274D01*
X209394395Y-29341088D01*
X209839525Y-28896734D01*
X210080725Y-28315860D01*
X210081274Y-27686899D01*
X209841088Y-27105605D01*
X209396734Y-26660475D01*
X208815860Y-26419275D01*
X208186899Y-26418726D01*
X207605605Y-26658912D01*
X207160475Y-27103266D01*
X206919275Y-27684140D01*
X206918726Y-28313101D01*
X206580727Y-28313101D01*
X206581274Y-27686899D01*
X206341088Y-27105605D01*
X205896734Y-26660475D01*
X205315860Y-26419275D01*
X204686899Y-26418726D01*
X204105605Y-26658912D01*
X203660475Y-27103266D01*
X203419275Y-27684140D01*
X203418726Y-28313101D01*
X203344388Y-28313101D01*
X203344707Y-28312266D01*
X203323786Y-27582557D01*
X203084788Y-27005565D01*
X202797175Y-26882430D01*
X201679605Y-28000000D01*
X201320395Y-28000000D01*
X200202825Y-26882430D01*
X199915212Y-27005565D01*
X199756000Y-27423424D01*
X199756000Y-26702825D01*
X200382430Y-26702825D01*
X201500000Y-27820395D01*
X202617570Y-26702825D01*
X202494435Y-26415212D01*
X201812266Y-26155293D01*
X201082557Y-26176214D01*
X200505565Y-26415212D01*
X200382430Y-26702825D01*
X199756000Y-26702825D01*
X199756000Y-25416691D01*
X217567000Y-25416691D01*
X217567000Y-26257250D01*
X217725750Y-26416000D01*
X219075000Y-26416000D01*
X219075000Y-25066750D01*
X219329000Y-25066750D01*
X219329000Y-26416000D01*
X219349000Y-26416000D01*
X219349000Y-26670000D01*
X219329000Y-26670000D01*
X219329000Y-28019250D01*
X219487750Y-28178000D01*
X220328310Y-28178000D01*
X220561699Y-28081327D01*
X220740327Y-27902698D01*
X220837000Y-27669309D01*
X220837000Y-27591154D01*
X220958705Y-27713072D01*
X221466097Y-27923759D01*
X222015493Y-27924239D01*
X222523251Y-27714437D01*
X222912072Y-27326295D01*
X223122759Y-26818903D01*
X223123111Y-26416000D01*
X227724088Y-26416000D01*
X227813986Y-26867949D01*
X228069995Y-27251093D01*
X228453139Y-27507102D01*
X228905088Y-27597000D01*
X230072912Y-27597000D01*
X230524861Y-27507102D01*
X230908005Y-27251093D01*
X231164014Y-26867949D01*
X231184484Y-26765039D01*
X233135096Y-26765039D01*
X233152633Y-26847819D01*
X233422500Y-27340896D01*
X233860517Y-27693166D01*
X234400000Y-27851000D01*
X234950000Y-27851000D01*
X234950000Y-26543000D01*
X235204000Y-26543000D01*
X235204000Y-27851000D01*
X235754000Y-27851000D01*
X236293483Y-27693166D01*
X236731500Y-27340896D01*
X237001367Y-26847819D01*
X237018904Y-26765039D01*
X238748496Y-26765039D01*
X238766033Y-26847819D01*
X239035900Y-27340896D01*
X239473917Y-27693166D01*
X240013400Y-27851000D01*
X240563400Y-27851000D01*
X240563400Y-26543000D01*
X240817400Y-26543000D01*
X240817400Y-27851000D01*
X241367400Y-27851000D01*
X241906883Y-27693166D01*
X242344900Y-27340896D01*
X242614767Y-26847819D01*
X242632304Y-26765039D01*
X244311096Y-26765039D01*
X244328633Y-26847819D01*
X244598500Y-27340896D01*
X245036517Y-27693166D01*
X245576000Y-27851000D01*
X246126000Y-27851000D01*
X246126000Y-26543000D01*
X246380000Y-26543000D01*
X246380000Y-27851000D01*
X246930000Y-27851000D01*
X247469483Y-27693166D01*
X247907500Y-27340896D01*
X248177367Y-26847819D01*
X248194904Y-26765039D01*
X248072915Y-26543000D01*
X246380000Y-26543000D01*
X246126000Y-26543000D01*
X244433085Y-26543000D01*
X244311096Y-26765039D01*
X242632304Y-26765039D01*
X242510315Y-26543000D01*
X240817400Y-26543000D01*
X240563400Y-26543000D01*
X238870485Y-26543000D01*
X238748496Y-26765039D01*
X237018904Y-26765039D01*
X236896915Y-26543000D01*
X235204000Y-26543000D01*
X234950000Y-26543000D01*
X233257085Y-26543000D01*
X233135096Y-26765039D01*
X231184484Y-26765039D01*
X231253912Y-26416000D01*
X231184485Y-26066961D01*
X233135096Y-26066961D01*
X233257085Y-26289000D01*
X234950000Y-26289000D01*
X234950000Y-24981000D01*
X235204000Y-24981000D01*
X235204000Y-26289000D01*
X236896915Y-26289000D01*
X237018904Y-26066961D01*
X238748496Y-26066961D01*
X238870485Y-26289000D01*
X240563400Y-26289000D01*
X240563400Y-24981000D01*
X240817400Y-24981000D01*
X240817400Y-26289000D01*
X242510315Y-26289000D01*
X242632304Y-26066961D01*
X244311096Y-26066961D01*
X244433085Y-26289000D01*
X246126000Y-26289000D01*
X246126000Y-24981000D01*
X246380000Y-24981000D01*
X246380000Y-26289000D01*
X248072915Y-26289000D01*
X248194904Y-26066961D01*
X248177367Y-25984181D01*
X247907500Y-25491104D01*
X247469483Y-25138834D01*
X246930000Y-24981000D01*
X246380000Y-24981000D01*
X246126000Y-24981000D01*
X245576000Y-24981000D01*
X245036517Y-25138834D01*
X244598500Y-25491104D01*
X244328633Y-25984181D01*
X244311096Y-26066961D01*
X242632304Y-26066961D01*
X242614767Y-25984181D01*
X242344900Y-25491104D01*
X241906883Y-25138834D01*
X241367400Y-24981000D01*
X240817400Y-24981000D01*
X240563400Y-24981000D01*
X240013400Y-24981000D01*
X239473917Y-25138834D01*
X239035900Y-25491104D01*
X238766033Y-25984181D01*
X238748496Y-26066961D01*
X237018904Y-26066961D01*
X237001367Y-25984181D01*
X236731500Y-25491104D01*
X236293483Y-25138834D01*
X235754000Y-24981000D01*
X235204000Y-24981000D01*
X234950000Y-24981000D01*
X234400000Y-24981000D01*
X233860517Y-25138834D01*
X233422500Y-25491104D01*
X233152633Y-25984181D01*
X233135096Y-26066961D01*
X231184485Y-26066961D01*
X231164014Y-25964051D01*
X230908005Y-25580907D01*
X230524861Y-25324898D01*
X230072912Y-25235000D01*
X228905088Y-25235000D01*
X228453139Y-25324898D01*
X228069995Y-25580907D01*
X227813986Y-25964051D01*
X227724088Y-26416000D01*
X223123111Y-26416000D01*
X223123239Y-26269507D01*
X222913437Y-25761749D01*
X222525295Y-25372928D01*
X222017903Y-25162241D01*
X221468507Y-25161761D01*
X220960749Y-25371563D01*
X220837000Y-25495096D01*
X220837000Y-25416691D01*
X220740327Y-25183302D01*
X220561699Y-25004673D01*
X220328310Y-24908000D01*
X219487750Y-24908000D01*
X219329000Y-25066750D01*
X219075000Y-25066750D01*
X218916250Y-24908000D01*
X218075690Y-24908000D01*
X217842301Y-25004673D01*
X217663673Y-25183302D01*
X217567000Y-25416691D01*
X199756000Y-25416691D01*
X199756000Y-24356000D01*
X248844000Y-24356000D01*
X248844000Y-70273000D01*
X248844000Y-70273000D01*
G37*
X248844000Y-70273000D02*
X236300000Y-70273000D01*
X236253841Y-70281685D01*
X236211447Y-70308965D01*
X236183006Y-70350590D01*
X236173000Y-70400000D01*
X236173000Y-73444000D01*
X199756000Y-73444000D01*
X199756000Y-68482869D01*
X203748632Y-68482869D01*
X203858607Y-68749029D01*
X204062065Y-68952843D01*
X204328033Y-69063282D01*
X204480972Y-69063415D01*
X204639077Y-69221520D01*
X204803235Y-69331207D01*
X204996873Y-69369724D01*
X209444602Y-69369724D01*
X209551750Y-69477059D01*
X209817718Y-69587498D01*
X210105703Y-69587749D01*
X210371863Y-69477774D01*
X210575677Y-69274316D01*
X210686116Y-69008348D01*
X210686367Y-68720363D01*
X210635131Y-68596361D01*
X213499575Y-68596361D01*
X213609550Y-68862521D01*
X213813008Y-69066335D01*
X214078976Y-69176774D01*
X214366961Y-69177025D01*
X214633121Y-69067050D01*
X214836935Y-68863592D01*
X214947374Y-68597624D01*
X214947507Y-68444685D01*
X215576192Y-67816000D01*
X215890260Y-67816000D01*
X215997408Y-67923335D01*
X216263376Y-68033774D01*
X216551361Y-68034025D01*
X216817521Y-67924050D01*
X217021335Y-67720592D01*
X217131774Y-67454624D01*
X217132025Y-67166639D01*
X217022050Y-66900479D01*
X216818592Y-66696665D01*
X216552624Y-66586226D01*
X216264639Y-66585975D01*
X215998479Y-66695950D01*
X215890240Y-66804000D01*
X215366600Y-66804000D01*
X215172962Y-66842517D01*
X215087819Y-66899408D01*
X215008804Y-66952204D01*
X214231901Y-67729107D01*
X214080239Y-67728975D01*
X213814079Y-67838950D01*
X213610265Y-68042408D01*
X213499826Y-68308376D01*
X213499575Y-68596361D01*
X210635131Y-68596361D01*
X210576392Y-68454203D01*
X210372934Y-68250389D01*
X210106966Y-68139950D01*
X209818981Y-68139699D01*
X209552821Y-68249674D01*
X209444582Y-68357724D01*
X205206465Y-68357724D01*
X205196550Y-68347809D01*
X205196682Y-68196147D01*
X205086707Y-67929987D01*
X204883249Y-67726173D01*
X204617281Y-67615734D01*
X204329296Y-67615483D01*
X204063136Y-67725458D01*
X203859322Y-67928916D01*
X203748883Y-68194884D01*
X203748632Y-68482869D01*
X199756000Y-68482869D01*
X199756000Y-48690271D01*
X204392816Y-48690271D01*
X204502791Y-48956431D01*
X204706249Y-49160245D01*
X204972217Y-49270684D01*
X205260202Y-49270935D01*
X205411800Y-49208296D01*
X205411800Y-49530000D01*
X205450317Y-49723638D01*
X205560004Y-49887796D01*
X212291004Y-56618796D01*
X212455162Y-56728483D01*
X212648800Y-56767000D01*
X214243247Y-56767000D01*
X214143665Y-56866408D01*
X214033226Y-57132376D01*
X214032975Y-57420361D01*
X214142950Y-57686521D01*
X214251000Y-57794760D01*
X214251000Y-59550302D01*
X214105639Y-59550175D01*
X213839479Y-59660150D01*
X213635665Y-59863608D01*
X213525226Y-60129576D01*
X213524975Y-60417561D01*
X213634950Y-60683721D01*
X213838408Y-60887535D01*
X214104376Y-60997974D01*
X214392361Y-60998225D01*
X214658521Y-60888250D01*
X214862335Y-60684792D01*
X214972774Y-60418824D01*
X214972907Y-60265885D01*
X215114796Y-60123996D01*
X215224483Y-59959838D01*
X215263000Y-59766200D01*
X215263000Y-57794740D01*
X215370335Y-57687592D01*
X215480774Y-57421624D01*
X215481025Y-57133639D01*
X215399457Y-56936229D01*
X215547521Y-56875050D01*
X215751335Y-56671592D01*
X215861774Y-56405624D01*
X215862025Y-56117639D01*
X215752050Y-55851479D01*
X215548592Y-55647665D01*
X215282624Y-55537226D01*
X214994639Y-55536975D01*
X214728479Y-55646950D01*
X214620240Y-55755000D01*
X212858392Y-55755000D01*
X207611173Y-50507781D01*
X207891107Y-50508025D01*
X208157267Y-50398050D01*
X208361081Y-50194592D01*
X208471520Y-49928624D01*
X208471771Y-49640639D01*
X208361796Y-49374479D01*
X208253746Y-49266240D01*
X208253746Y-47901449D01*
X208215229Y-47707811D01*
X208105542Y-47543653D01*
X207682757Y-47120868D01*
X207682889Y-46969206D01*
X207572914Y-46703046D01*
X207369456Y-46499232D01*
X207103488Y-46388793D01*
X206815503Y-46388542D01*
X206641652Y-46460376D01*
X206641825Y-46262439D01*
X206531850Y-45996279D01*
X206330358Y-45794434D01*
X206656596Y-45468196D01*
X206766283Y-45304038D01*
X206804800Y-45110400D01*
X206804800Y-45081033D01*
X206966976Y-45148374D01*
X207254961Y-45148625D01*
X207521121Y-45038650D01*
X207629360Y-44930600D01*
X210563896Y-44930600D01*
X210757534Y-44892083D01*
X210783901Y-44874465D01*
X210783901Y-51092101D01*
X210822418Y-51285739D01*
X210932105Y-51449897D01*
X211670907Y-52188699D01*
X211670775Y-52340361D01*
X211780750Y-52606521D01*
X211984208Y-52810335D01*
X212250176Y-52920774D01*
X212538161Y-52921025D01*
X212804321Y-52811050D01*
X213008135Y-52607592D01*
X213118574Y-52341624D01*
X213118825Y-52053639D01*
X213008850Y-51787479D01*
X212805392Y-51583665D01*
X212539424Y-51473226D01*
X212386485Y-51473093D01*
X212232780Y-51319388D01*
X212372517Y-51261650D01*
X212576331Y-51058192D01*
X212686770Y-50792224D01*
X212687021Y-50504239D01*
X212577046Y-50238079D01*
X212468996Y-50129840D01*
X212468996Y-48174761D01*
X214185377Y-48174761D01*
X214295352Y-48440921D01*
X214498810Y-48644735D01*
X214764778Y-48755174D01*
X214917717Y-48755307D01*
X218950000Y-52787590D01*
X218950000Y-58142632D01*
X218914824Y-58128026D01*
X218626839Y-58127775D01*
X218360679Y-58237750D01*
X218252440Y-58345800D01*
X217433740Y-58345800D01*
X217326592Y-58238465D01*
X217060624Y-58128026D01*
X216772639Y-58127775D01*
X216506479Y-58237750D01*
X216302665Y-58441208D01*
X216192226Y-58707176D01*
X216191975Y-58995161D01*
X216301950Y-59261321D01*
X216505408Y-59465135D01*
X216771376Y-59575574D01*
X217059361Y-59575825D01*
X217325521Y-59465850D01*
X217433760Y-59357800D01*
X218252460Y-59357800D01*
X218359608Y-59465135D01*
X218625576Y-59575574D01*
X218913561Y-59575825D01*
X218950000Y-59560769D01*
X218950000Y-67427260D01*
X218842665Y-67534408D01*
X218732226Y-67800376D01*
X218731975Y-68088361D01*
X218841950Y-68354521D01*
X219045408Y-68558335D01*
X219311376Y-68668774D01*
X219599361Y-68669025D01*
X219865521Y-68559050D01*
X220069335Y-68355592D01*
X220179774Y-68089624D01*
X220179834Y-68020588D01*
X240047636Y-68020588D01*
X240173818Y-68325971D01*
X240407260Y-68559821D01*
X240712423Y-68686535D01*
X241042848Y-68686824D01*
X241348231Y-68560642D01*
X241582081Y-68327200D01*
X241708795Y-68022037D01*
X241708796Y-68020588D01*
X244446916Y-68020588D01*
X244573098Y-68325971D01*
X244806540Y-68559821D01*
X245111703Y-68686535D01*
X245442128Y-68686824D01*
X245747511Y-68560642D01*
X245981361Y-68327200D01*
X246108075Y-68022037D01*
X246108364Y-67691612D01*
X245982182Y-67386229D01*
X245748740Y-67152379D01*
X245443577Y-67025665D01*
X245113152Y-67025376D01*
X244807769Y-67151558D01*
X244573919Y-67385000D01*
X244447205Y-67690163D01*
X244446916Y-68020588D01*
X241708796Y-68020588D01*
X241709084Y-67691612D01*
X241582902Y-67386229D01*
X241349460Y-67152379D01*
X241044297Y-67025665D01*
X240713872Y-67025376D01*
X240408489Y-67151558D01*
X240174639Y-67385000D01*
X240047925Y-67690163D01*
X240047636Y-68020588D01*
X220179834Y-68020588D01*
X220180025Y-67801639D01*
X220070050Y-67535479D01*
X219962000Y-67427240D01*
X219962000Y-65802361D01*
X223303975Y-65802361D01*
X223413950Y-66068521D01*
X223617408Y-66272335D01*
X223883376Y-66382774D01*
X224171361Y-66383025D01*
X224437521Y-66273050D01*
X224641335Y-66069592D01*
X224751774Y-65803624D01*
X224751907Y-65650685D01*
X232347231Y-58055361D01*
X236130975Y-58055361D01*
X236240950Y-58321521D01*
X236349000Y-58429760D01*
X236349000Y-61712260D01*
X236241665Y-61819408D01*
X236131226Y-62085376D01*
X236130975Y-62373361D01*
X236240950Y-62639521D01*
X236444408Y-62843335D01*
X236710376Y-62953774D01*
X236998361Y-62954025D01*
X237264521Y-62844050D01*
X237468335Y-62640592D01*
X237578774Y-62374624D01*
X237579025Y-62086639D01*
X237469050Y-61820479D01*
X237361000Y-61712240D01*
X237361000Y-58429740D01*
X237468335Y-58322592D01*
X237578774Y-58056624D01*
X237579025Y-57768639D01*
X237469050Y-57502479D01*
X237265592Y-57298665D01*
X236999624Y-57188226D01*
X236711639Y-57187975D01*
X236445479Y-57297950D01*
X236241665Y-57501408D01*
X236131226Y-57767376D01*
X236130975Y-58055361D01*
X232347231Y-58055361D01*
X237212796Y-53189796D01*
X237322483Y-53025638D01*
X237361000Y-52832000D01*
X237361000Y-52079740D01*
X237468335Y-51972592D01*
X237578774Y-51706624D01*
X237579025Y-51418639D01*
X237469050Y-51152479D01*
X237265592Y-50948665D01*
X236999624Y-50838226D01*
X236711639Y-50837975D01*
X236445479Y-50947950D01*
X236241665Y-51151408D01*
X236220083Y-51203383D01*
X236199050Y-51152479D01*
X235995592Y-50948665D01*
X235729624Y-50838226D01*
X235441639Y-50837975D01*
X235175479Y-50947950D01*
X234971665Y-51151408D01*
X234861226Y-51417376D01*
X234860975Y-51705361D01*
X234932922Y-51879486D01*
X234323301Y-52489107D01*
X234171639Y-52488975D01*
X233905479Y-52598950D01*
X233701665Y-52802408D01*
X233591226Y-53068376D01*
X233590975Y-53356361D01*
X233700950Y-53622521D01*
X233904408Y-53826335D01*
X234170376Y-53936774D01*
X234458361Y-53937025D01*
X234724521Y-53827050D01*
X234928335Y-53623592D01*
X235038774Y-53357624D01*
X235038907Y-53204685D01*
X235942796Y-52300796D01*
X236052483Y-52136638D01*
X236057062Y-52113618D01*
X236198335Y-51972592D01*
X236219917Y-51920617D01*
X236240950Y-51971521D01*
X236349000Y-52079760D01*
X236349000Y-52622408D01*
X224036301Y-64935107D01*
X223884639Y-64934975D01*
X223618479Y-65044950D01*
X223414665Y-65248408D01*
X223304226Y-65514376D01*
X223303975Y-65802361D01*
X219962000Y-65802361D01*
X219962000Y-60722361D01*
X225081975Y-60722361D01*
X225191950Y-60988521D01*
X225395408Y-61192335D01*
X225661376Y-61302774D01*
X225949361Y-61303025D01*
X226215521Y-61193050D01*
X226419335Y-60989592D01*
X226529774Y-60723624D01*
X226530025Y-60435639D01*
X226420050Y-60169479D01*
X226312000Y-60061240D01*
X226312000Y-59772592D01*
X227539592Y-58545000D01*
X229235000Y-58545000D01*
X229428638Y-58506483D01*
X229592796Y-58396796D01*
X230862796Y-57126796D01*
X230972483Y-56962638D01*
X231011000Y-56769000D01*
X231011000Y-50174740D01*
X231118335Y-50067592D01*
X231228774Y-49801624D01*
X231229025Y-49513639D01*
X231119050Y-49247479D01*
X230915592Y-49043665D01*
X230649624Y-48933226D01*
X230361639Y-48932975D01*
X230095479Y-49042950D01*
X229891665Y-49246408D01*
X229781226Y-49512376D01*
X229780975Y-49800361D01*
X229890950Y-50066521D01*
X229999000Y-50174760D01*
X229999000Y-56559408D01*
X229025408Y-57533000D01*
X227330000Y-57533000D01*
X227136362Y-57571517D01*
X226972204Y-57681204D01*
X225448204Y-59205204D01*
X225338517Y-59369362D01*
X225300000Y-59563000D01*
X225300000Y-60061260D01*
X225192665Y-60168408D01*
X225082226Y-60434376D01*
X225081975Y-60722361D01*
X219962000Y-60722361D01*
X219962000Y-60568792D01*
X220200376Y-60667774D01*
X220488361Y-60668025D01*
X220754521Y-60558050D01*
X220958335Y-60354592D01*
X221008346Y-60234152D01*
X221077408Y-60303335D01*
X221343376Y-60413774D01*
X221631361Y-60414025D01*
X221897521Y-60304050D01*
X222005760Y-60196000D01*
X223774000Y-60196000D01*
X223967638Y-60157483D01*
X224131796Y-60047796D01*
X226036796Y-58142796D01*
X226146483Y-57978638D01*
X226185000Y-57785000D01*
X226185000Y-56259036D01*
X227722234Y-56259036D01*
X227894142Y-56675086D01*
X228212180Y-56993679D01*
X228627929Y-57166313D01*
X229078096Y-57166706D01*
X229494146Y-56994798D01*
X229812739Y-56676760D01*
X229985373Y-56261011D01*
X229985766Y-55810844D01*
X229813858Y-55394794D01*
X229495820Y-55076201D01*
X229080071Y-54903567D01*
X228629904Y-54903174D01*
X228213854Y-55075082D01*
X227895261Y-55393120D01*
X227722627Y-55808869D01*
X227722234Y-56259036D01*
X226185000Y-56259036D01*
X226185000Y-56089592D01*
X228446834Y-53827758D01*
X228709376Y-53936774D01*
X228997361Y-53937025D01*
X229263521Y-53827050D01*
X229467335Y-53623592D01*
X229577774Y-53357624D01*
X229578025Y-53069639D01*
X229468050Y-52803479D01*
X229264592Y-52599665D01*
X228998624Y-52489226D01*
X228710639Y-52488975D01*
X228444479Y-52598950D01*
X228333811Y-52709425D01*
X228152362Y-52745517D01*
X228054285Y-52811050D01*
X227988204Y-52855204D01*
X225321204Y-55522204D01*
X225211517Y-55686362D01*
X225173000Y-55880000D01*
X225173000Y-57575408D01*
X223564408Y-59184000D01*
X222005740Y-59184000D01*
X221898592Y-59076665D01*
X221632624Y-58966226D01*
X221344639Y-58965975D01*
X221078479Y-59075950D01*
X220926000Y-59228163D01*
X220926000Y-56882658D01*
X222220673Y-55587985D01*
X222266361Y-55588025D01*
X222532521Y-55478050D01*
X222736335Y-55274592D01*
X222846774Y-55008624D01*
X222847025Y-54720639D01*
X222737050Y-54454479D01*
X222533592Y-54250665D01*
X222267624Y-54140226D01*
X221979639Y-54139975D01*
X221713479Y-54249950D01*
X221509665Y-54453408D01*
X221399226Y-54719376D01*
X221399185Y-54766157D01*
X219962000Y-56203342D01*
X219962000Y-52577998D01*
X219923483Y-52384360D01*
X219813796Y-52220202D01*
X218970750Y-51377156D01*
X227722234Y-51377156D01*
X227894142Y-51793206D01*
X228212180Y-52111799D01*
X228627929Y-52284433D01*
X229078096Y-52284826D01*
X229494146Y-52112918D01*
X229812739Y-51794880D01*
X229985373Y-51379131D01*
X229985766Y-50928964D01*
X229813858Y-50512914D01*
X229495820Y-50194321D01*
X229080071Y-50021687D01*
X228629904Y-50021294D01*
X228213854Y-50193202D01*
X227895261Y-50511240D01*
X227722627Y-50926989D01*
X227722234Y-51377156D01*
X218970750Y-51377156D01*
X215633295Y-48039701D01*
X215633427Y-47888039D01*
X215523452Y-47621879D01*
X215319994Y-47418065D01*
X215054026Y-47307626D01*
X214766041Y-47307375D01*
X214499881Y-47417350D01*
X214296067Y-47620808D01*
X214185628Y-47886776D01*
X214185377Y-48174761D01*
X212468996Y-48174761D01*
X212468996Y-45472398D01*
X213275501Y-44665893D01*
X213427163Y-44666025D01*
X213693323Y-44556050D01*
X213897137Y-44352592D01*
X214007576Y-44086624D01*
X214007827Y-43798639D01*
X213937196Y-43627698D01*
X214283802Y-43627698D01*
X215317800Y-44661696D01*
X215317800Y-45735658D01*
X215210465Y-45842806D01*
X215100026Y-46108774D01*
X215099775Y-46396759D01*
X215209750Y-46662919D01*
X215413208Y-46866733D01*
X215679176Y-46977172D01*
X215967161Y-46977423D01*
X216233321Y-46867448D01*
X216437135Y-46663990D01*
X216547574Y-46398022D01*
X216547825Y-46110037D01*
X216437850Y-45843877D01*
X216329800Y-45735638D01*
X216329800Y-44452104D01*
X216291283Y-44258466D01*
X216181596Y-44094308D01*
X215189088Y-43101800D01*
X216763600Y-43101800D01*
X216957238Y-43063283D01*
X217121396Y-42953596D01*
X217212499Y-42862493D01*
X217364161Y-42862625D01*
X217630321Y-42752650D01*
X217738560Y-42644600D01*
X218509808Y-42644600D01*
X219102400Y-43237192D01*
X219102400Y-45303860D01*
X218995065Y-45411008D01*
X218884626Y-45676976D01*
X218884375Y-45964961D01*
X218994350Y-46231121D01*
X219197808Y-46434935D01*
X219463776Y-46545374D01*
X219751761Y-46545625D01*
X220017921Y-46435650D01*
X220221735Y-46232192D01*
X220332174Y-45966224D01*
X220332425Y-45678239D01*
X220222450Y-45412079D01*
X220114400Y-45303840D01*
X220114400Y-43027600D01*
X220075883Y-42833962D01*
X219966196Y-42669804D01*
X219394891Y-42098499D01*
X220586301Y-42098499D01*
X220779939Y-42059982D01*
X220909394Y-41973483D01*
X221072561Y-41973625D01*
X221338721Y-41863650D01*
X221542535Y-41660192D01*
X221652974Y-41394224D01*
X221653225Y-41106239D01*
X221543250Y-40840079D01*
X221339792Y-40636265D01*
X221073824Y-40525826D01*
X220785839Y-40525575D01*
X220519679Y-40635550D01*
X220315865Y-40839008D01*
X220213098Y-41086499D01*
X218509891Y-41086499D01*
X218441391Y-41017999D01*
X218277233Y-40908312D01*
X218083595Y-40869795D01*
X209180373Y-40869795D01*
X208986735Y-40908312D01*
X208822577Y-41017999D01*
X207163379Y-42677197D01*
X207011717Y-42677065D01*
X206804800Y-42762561D01*
X206804800Y-36149864D01*
X206955008Y-36300335D01*
X207220976Y-36410774D01*
X207508961Y-36411025D01*
X207775121Y-36301050D01*
X207883360Y-36193000D01*
X217595408Y-36193000D01*
X226987107Y-45584699D01*
X226986975Y-45736361D01*
X227096950Y-46002521D01*
X227300408Y-46206335D01*
X227566376Y-46316774D01*
X227854361Y-46317025D01*
X228120521Y-46207050D01*
X228324335Y-46003592D01*
X228434774Y-45737624D01*
X228435025Y-45449639D01*
X228325050Y-45183479D01*
X228121592Y-44979665D01*
X227855624Y-44869226D01*
X227702685Y-44869093D01*
X218854453Y-36020861D01*
X222478475Y-36020861D01*
X222588450Y-36287021D01*
X222636809Y-36335465D01*
X222665726Y-36480839D01*
X222791671Y-36669329D01*
X223236171Y-37113829D01*
X223424661Y-37239774D01*
X223647000Y-37284000D01*
X225438342Y-37284000D01*
X227300171Y-39145829D01*
X227488661Y-39271774D01*
X227711000Y-39316000D01*
X229883342Y-39316000D01*
X231194000Y-40626658D01*
X231194000Y-40704092D01*
X231117454Y-40585135D01*
X230990134Y-40498141D01*
X230839000Y-40467536D01*
X228139000Y-40467536D01*
X227997810Y-40494103D01*
X227868135Y-40577546D01*
X227781141Y-40704866D01*
X227750536Y-40856000D01*
X227750536Y-42456000D01*
X227777103Y-42597190D01*
X227860546Y-42726865D01*
X227987866Y-42813859D01*
X228139000Y-42844464D01*
X230839000Y-42844464D01*
X230980190Y-42817897D01*
X231109865Y-42734454D01*
X231194000Y-42611318D01*
X231194000Y-46114342D01*
X228756327Y-48552015D01*
X228710639Y-48551975D01*
X228444479Y-48661950D01*
X228240665Y-48865408D01*
X228130226Y-49131376D01*
X228129975Y-49419361D01*
X228239950Y-49685521D01*
X228443408Y-49889335D01*
X228709376Y-49999774D01*
X228997361Y-50000025D01*
X229263521Y-49890050D01*
X229467335Y-49686592D01*
X229577774Y-49420624D01*
X229577815Y-49373843D01*
X232185829Y-46765829D01*
X232311774Y-46577339D01*
X232356000Y-46355000D01*
X232356000Y-46048231D01*
X232816400Y-46048231D01*
X232816400Y-46407769D01*
X232911140Y-46884057D01*
X233180935Y-47287834D01*
X233584712Y-47557629D01*
X234061000Y-47652369D01*
X234537288Y-47557629D01*
X234941065Y-47287834D01*
X235210860Y-46884057D01*
X235305600Y-46407769D01*
X235305600Y-46048231D01*
X235356400Y-46048231D01*
X235356400Y-46407769D01*
X235451140Y-46884057D01*
X235720935Y-47287834D01*
X235989076Y-47467000D01*
X235987665Y-47468408D01*
X235877226Y-47734376D01*
X235876975Y-48022361D01*
X235986950Y-48288521D01*
X236190408Y-48492335D01*
X236456376Y-48602774D01*
X236577222Y-48602879D01*
X240159000Y-52520449D01*
X240159000Y-53838260D01*
X240051665Y-53945408D01*
X239941226Y-54211376D01*
X239940975Y-54499361D01*
X240050950Y-54765521D01*
X240254408Y-54969335D01*
X240520376Y-55079774D01*
X240808361Y-55080025D01*
X241074521Y-54970050D01*
X241278335Y-54766592D01*
X241299917Y-54714617D01*
X241320950Y-54765521D01*
X241524408Y-54969335D01*
X241790376Y-55079774D01*
X242078361Y-55080025D01*
X242344521Y-54970050D01*
X242548335Y-54766592D01*
X242658774Y-54500624D01*
X242659025Y-54212639D01*
X242549050Y-53946479D01*
X242441000Y-53838240D01*
X242441000Y-51054000D01*
X242424829Y-50972702D01*
X242413869Y-50890535D01*
X242405672Y-50876393D01*
X242402483Y-50860362D01*
X242356431Y-50791440D01*
X242314861Y-50719722D01*
X239864851Y-47935619D01*
X239865025Y-47735639D01*
X239755050Y-47469479D01*
X239752715Y-47467140D01*
X240021065Y-47287834D01*
X240290860Y-46884057D01*
X240293704Y-46869757D01*
X240389046Y-47142320D01*
X240778964Y-47578732D01*
X241306209Y-47832709D01*
X241321974Y-47835358D01*
X241554000Y-47714217D01*
X241554000Y-46355000D01*
X241534000Y-46355000D01*
X241534000Y-46101000D01*
X241554000Y-46101000D01*
X241554000Y-44741783D01*
X241808000Y-44741783D01*
X241808000Y-46101000D01*
X241828000Y-46101000D01*
X241828000Y-46355000D01*
X241808000Y-46355000D01*
X241808000Y-47714217D01*
X242040026Y-47835358D01*
X242055791Y-47832709D01*
X242583036Y-47578732D01*
X242972954Y-47142320D01*
X243068296Y-46869757D01*
X243071140Y-46884057D01*
X243340935Y-47287834D01*
X243744712Y-47557629D01*
X244221000Y-47652369D01*
X244697288Y-47557629D01*
X245101065Y-47287834D01*
X245370860Y-46884057D01*
X245465600Y-46407769D01*
X245465600Y-46048231D01*
X245370860Y-45571943D01*
X245130354Y-45212000D01*
X245508936Y-45212000D01*
X245508936Y-47244000D01*
X245535503Y-47385190D01*
X245618946Y-47514865D01*
X245746266Y-47601859D01*
X245897400Y-47632464D01*
X247624600Y-47632464D01*
X247765790Y-47605897D01*
X247895465Y-47522454D01*
X247982459Y-47395134D01*
X248013064Y-47244000D01*
X248013064Y-45212000D01*
X247986497Y-45070810D01*
X247903054Y-44941135D01*
X247775734Y-44854141D01*
X247624600Y-44823536D01*
X245897400Y-44823536D01*
X245756210Y-44850103D01*
X245626535Y-44933546D01*
X245539541Y-45060866D01*
X245508936Y-45212000D01*
X245130354Y-45212000D01*
X245101065Y-45168166D01*
X244697288Y-44898371D01*
X244221000Y-44803631D01*
X243744712Y-44898371D01*
X243340935Y-45168166D01*
X243071140Y-45571943D01*
X243068296Y-45586243D01*
X242972954Y-45313680D01*
X242583036Y-44877268D01*
X242055791Y-44623291D01*
X242040026Y-44620642D01*
X241808000Y-44741783D01*
X241554000Y-44741783D01*
X241321974Y-44620642D01*
X241306209Y-44623291D01*
X240778964Y-44877268D01*
X240389046Y-45313680D01*
X240293704Y-45586243D01*
X240290860Y-45571943D01*
X240021065Y-45168166D01*
X239617288Y-44898371D01*
X239141000Y-44803631D01*
X238664712Y-44898371D01*
X238260935Y-45168166D01*
X237991140Y-45571943D01*
X237896400Y-46048231D01*
X237896400Y-46407769D01*
X237991140Y-46884057D01*
X238260935Y-47287834D01*
X238529076Y-47467000D01*
X238527665Y-47468408D01*
X238417226Y-47734376D01*
X238416975Y-48022361D01*
X238526950Y-48288521D01*
X238730408Y-48492335D01*
X238996376Y-48602774D01*
X239103978Y-48602868D01*
X241429000Y-51244938D01*
X241429000Y-53838260D01*
X241321665Y-53945408D01*
X241300083Y-53997383D01*
X241279050Y-53946479D01*
X241171000Y-53838240D01*
X241171000Y-52324000D01*
X241153908Y-52238071D01*
X241140677Y-52151467D01*
X241134725Y-52141634D01*
X241132483Y-52130362D01*
X241083812Y-52057521D01*
X241038443Y-51982567D01*
X237324864Y-47920840D01*
X237325025Y-47735639D01*
X237215050Y-47469479D01*
X237212715Y-47467140D01*
X237481065Y-47287834D01*
X237750860Y-46884057D01*
X237845600Y-46407769D01*
X237845600Y-46048231D01*
X237750860Y-45571943D01*
X237481065Y-45168166D01*
X237077288Y-44898371D01*
X236601000Y-44803631D01*
X236124712Y-44898371D01*
X235720935Y-45168166D01*
X235451140Y-45571943D01*
X235356400Y-46048231D01*
X235305600Y-46048231D01*
X235210860Y-45571943D01*
X234941065Y-45168166D01*
X234537288Y-44898371D01*
X234061000Y-44803631D01*
X233584712Y-44898371D01*
X233180935Y-45168166D01*
X232911140Y-45571943D01*
X232816400Y-46048231D01*
X232356000Y-46048231D01*
X232356000Y-40386000D01*
X232311774Y-40163661D01*
X232185829Y-39975171D01*
X231470019Y-39259361D01*
X232574975Y-39259361D01*
X232684950Y-39525521D01*
X232888408Y-39729335D01*
X233154376Y-39839774D01*
X233442361Y-39840025D01*
X233708521Y-39730050D01*
X233816760Y-39622000D01*
X235214208Y-39622000D01*
X235115226Y-39860376D01*
X235114975Y-40148361D01*
X235224950Y-40414521D01*
X235277872Y-40467536D01*
X233727000Y-40467536D01*
X233585810Y-40494103D01*
X233456135Y-40577546D01*
X233369141Y-40704866D01*
X233338536Y-40856000D01*
X233338536Y-42456000D01*
X233365103Y-42597190D01*
X233448546Y-42726865D01*
X233575866Y-42813859D01*
X233727000Y-42844464D01*
X236427000Y-42844464D01*
X236568190Y-42817897D01*
X236697865Y-42734454D01*
X236784859Y-42607134D01*
X236815464Y-42456000D01*
X236815464Y-40856000D01*
X236788897Y-40714810D01*
X236705454Y-40585135D01*
X236596954Y-40511000D01*
X239172951Y-40511000D01*
X239069535Y-40577546D01*
X238982541Y-40704866D01*
X238951936Y-40856000D01*
X238951936Y-42456000D01*
X238978503Y-42597190D01*
X239061946Y-42726865D01*
X239189266Y-42813859D01*
X239340400Y-42844464D01*
X242040400Y-42844464D01*
X242181590Y-42817897D01*
X242311265Y-42734454D01*
X242398259Y-42607134D01*
X242428864Y-42456000D01*
X242428864Y-40856000D01*
X242402297Y-40714810D01*
X242318854Y-40585135D01*
X242191534Y-40498141D01*
X242040400Y-40467536D01*
X241136695Y-40467536D01*
X241132483Y-40446362D01*
X241022796Y-40282204D01*
X240387796Y-39647204D01*
X240350076Y-39622000D01*
X245281408Y-39622000D01*
X245747000Y-40087592D01*
X245747000Y-40467536D01*
X244903000Y-40467536D01*
X244761810Y-40494103D01*
X244632135Y-40577546D01*
X244545141Y-40704866D01*
X244514536Y-40856000D01*
X244514536Y-42456000D01*
X244541103Y-42597190D01*
X244624546Y-42726865D01*
X244751866Y-42813859D01*
X244903000Y-42844464D01*
X247603000Y-42844464D01*
X247744190Y-42817897D01*
X247873865Y-42734454D01*
X247960859Y-42607134D01*
X247991464Y-42456000D01*
X247991464Y-40856000D01*
X247964897Y-40714810D01*
X247881454Y-40585135D01*
X247754134Y-40498141D01*
X247603000Y-40467536D01*
X246759000Y-40467536D01*
X246759000Y-39878000D01*
X246720483Y-39684362D01*
X246610796Y-39520204D01*
X245848796Y-38758204D01*
X245684638Y-38648517D01*
X245491000Y-38610000D01*
X233816740Y-38610000D01*
X233709592Y-38502665D01*
X233443624Y-38392226D01*
X233155639Y-38391975D01*
X232889479Y-38501950D01*
X232685665Y-38705408D01*
X232575226Y-38971376D01*
X232574975Y-39259361D01*
X231470019Y-39259361D01*
X230534829Y-38324171D01*
X230346339Y-38198226D01*
X230124000Y-38154000D01*
X227951658Y-38154000D01*
X226373658Y-36576000D01*
X227724088Y-36576000D01*
X227813986Y-37027949D01*
X228069995Y-37411093D01*
X228453139Y-37667102D01*
X228905088Y-37757000D01*
X230072912Y-37757000D01*
X230524861Y-37667102D01*
X230908005Y-37411093D01*
X231164014Y-37027949D01*
X231253912Y-36576000D01*
X233312088Y-36576000D01*
X233401986Y-37027949D01*
X233657995Y-37411093D01*
X234041139Y-37667102D01*
X234493088Y-37757000D01*
X235660912Y-37757000D01*
X236112861Y-37667102D01*
X236496005Y-37411093D01*
X236752014Y-37027949D01*
X236841912Y-36576000D01*
X238925488Y-36576000D01*
X239015386Y-37027949D01*
X239271395Y-37411093D01*
X239654539Y-37667102D01*
X240106488Y-37757000D01*
X241274312Y-37757000D01*
X241726261Y-37667102D01*
X242109405Y-37411093D01*
X242365414Y-37027949D01*
X242455312Y-36576000D01*
X244488088Y-36576000D01*
X244577986Y-37027949D01*
X244833995Y-37411093D01*
X245217139Y-37667102D01*
X245669088Y-37757000D01*
X246836912Y-37757000D01*
X247288861Y-37667102D01*
X247672005Y-37411093D01*
X247928014Y-37027949D01*
X248017912Y-36576000D01*
X247928014Y-36124051D01*
X247672005Y-35740907D01*
X247288861Y-35484898D01*
X246836912Y-35395000D01*
X245669088Y-35395000D01*
X245217139Y-35484898D01*
X244833995Y-35740907D01*
X244577986Y-36124051D01*
X244488088Y-36576000D01*
X242455312Y-36576000D01*
X242365414Y-36124051D01*
X242109405Y-35740907D01*
X241726261Y-35484898D01*
X241274312Y-35395000D01*
X240106488Y-35395000D01*
X239654539Y-35484898D01*
X239271395Y-35740907D01*
X239015386Y-36124051D01*
X238925488Y-36576000D01*
X236841912Y-36576000D01*
X236752014Y-36124051D01*
X236496005Y-35740907D01*
X236112861Y-35484898D01*
X235660912Y-35395000D01*
X234493088Y-35395000D01*
X234041139Y-35484898D01*
X233657995Y-35740907D01*
X233401986Y-36124051D01*
X233312088Y-36576000D01*
X231253912Y-36576000D01*
X231164014Y-36124051D01*
X230908005Y-35740907D01*
X230524861Y-35484898D01*
X230072912Y-35395000D01*
X228905088Y-35395000D01*
X228453139Y-35484898D01*
X228069995Y-35740907D01*
X227813986Y-36124051D01*
X227724088Y-36576000D01*
X226373658Y-36576000D01*
X226089829Y-36292171D01*
X225901339Y-36166226D01*
X225679000Y-36122000D01*
X223887658Y-36122000D01*
X223885640Y-36119982D01*
X223926274Y-36022124D01*
X223926525Y-35734139D01*
X223816550Y-35467979D01*
X223613092Y-35264165D01*
X223347124Y-35153726D01*
X223059139Y-35153475D01*
X222792979Y-35263450D01*
X222589165Y-35466908D01*
X222478726Y-35732876D01*
X222478475Y-36020861D01*
X218854453Y-36020861D01*
X218162796Y-35329204D01*
X217998638Y-35219517D01*
X217805000Y-35181000D01*
X207883340Y-35181000D01*
X207776192Y-35073665D01*
X207510224Y-34963226D01*
X207222239Y-34962975D01*
X206956079Y-35072950D01*
X206804800Y-35223965D01*
X206804800Y-32416792D01*
X207397392Y-31824200D01*
X208681800Y-31824200D01*
X208875438Y-31785683D01*
X209039596Y-31675996D01*
X209073099Y-31642493D01*
X218074761Y-31642493D01*
X218284563Y-32150251D01*
X218672705Y-32539072D01*
X219180097Y-32749759D01*
X219729493Y-32750239D01*
X220237251Y-32540437D01*
X220256189Y-32521532D01*
X221023073Y-32521532D01*
X221121736Y-32788387D01*
X221731461Y-33014908D01*
X222381460Y-32990856D01*
X222870264Y-32788387D01*
X222968927Y-32521532D01*
X221996000Y-31548605D01*
X221023073Y-32521532D01*
X220256189Y-32521532D01*
X220564423Y-32213836D01*
X220576613Y-32243264D01*
X220843468Y-32341927D01*
X221816395Y-31369000D01*
X222175605Y-31369000D01*
X223148532Y-32341927D01*
X223415387Y-32243264D01*
X223426786Y-32212582D01*
X223752705Y-32539072D01*
X224260097Y-32749759D01*
X224809493Y-32750239D01*
X225317251Y-32540437D01*
X225706072Y-32152295D01*
X225833655Y-31845039D01*
X227547096Y-31845039D01*
X227564633Y-31927819D01*
X227834500Y-32420896D01*
X228272517Y-32773166D01*
X228812000Y-32931000D01*
X229362000Y-32931000D01*
X229362000Y-31623000D01*
X229616000Y-31623000D01*
X229616000Y-32931000D01*
X230166000Y-32931000D01*
X230705483Y-32773166D01*
X231143500Y-32420896D01*
X231413367Y-31927819D01*
X231430904Y-31845039D01*
X233135096Y-31845039D01*
X233152633Y-31927819D01*
X233422500Y-32420896D01*
X233860517Y-32773166D01*
X234400000Y-32931000D01*
X234950000Y-32931000D01*
X234950000Y-31623000D01*
X235204000Y-31623000D01*
X235204000Y-32931000D01*
X235754000Y-32931000D01*
X236293483Y-32773166D01*
X236731500Y-32420896D01*
X237001367Y-31927819D01*
X237018904Y-31845039D01*
X238748496Y-31845039D01*
X238766033Y-31927819D01*
X239035900Y-32420896D01*
X239473917Y-32773166D01*
X240013400Y-32931000D01*
X240563400Y-32931000D01*
X240563400Y-31623000D01*
X240817400Y-31623000D01*
X240817400Y-32931000D01*
X241367400Y-32931000D01*
X241906883Y-32773166D01*
X242344900Y-32420896D01*
X242614767Y-31927819D01*
X242632304Y-31845039D01*
X244311096Y-31845039D01*
X244328633Y-31927819D01*
X244598500Y-32420896D01*
X245036517Y-32773166D01*
X245576000Y-32931000D01*
X246126000Y-32931000D01*
X246126000Y-31623000D01*
X246380000Y-31623000D01*
X246380000Y-32931000D01*
X246930000Y-32931000D01*
X247469483Y-32773166D01*
X247907500Y-32420896D01*
X248177367Y-31927819D01*
X248194904Y-31845039D01*
X248072915Y-31623000D01*
X246380000Y-31623000D01*
X246126000Y-31623000D01*
X244433085Y-31623000D01*
X244311096Y-31845039D01*
X242632304Y-31845039D01*
X242510315Y-31623000D01*
X240817400Y-31623000D01*
X240563400Y-31623000D01*
X238870485Y-31623000D01*
X238748496Y-31845039D01*
X237018904Y-31845039D01*
X236896915Y-31623000D01*
X235204000Y-31623000D01*
X234950000Y-31623000D01*
X233257085Y-31623000D01*
X233135096Y-31845039D01*
X231430904Y-31845039D01*
X231308915Y-31623000D01*
X229616000Y-31623000D01*
X229362000Y-31623000D01*
X227669085Y-31623000D01*
X227547096Y-31845039D01*
X225833655Y-31845039D01*
X225916759Y-31644903D01*
X225917194Y-31146961D01*
X227547096Y-31146961D01*
X227669085Y-31369000D01*
X229362000Y-31369000D01*
X229362000Y-30061000D01*
X229616000Y-30061000D01*
X229616000Y-31369000D01*
X231308915Y-31369000D01*
X231430904Y-31146961D01*
X233135096Y-31146961D01*
X233257085Y-31369000D01*
X234950000Y-31369000D01*
X234950000Y-30061000D01*
X235204000Y-30061000D01*
X235204000Y-31369000D01*
X236896915Y-31369000D01*
X237018904Y-31146961D01*
X238748496Y-31146961D01*
X238870485Y-31369000D01*
X240563400Y-31369000D01*
X240563400Y-30061000D01*
X240817400Y-30061000D01*
X240817400Y-31369000D01*
X242510315Y-31369000D01*
X242632304Y-31146961D01*
X244311096Y-31146961D01*
X244433085Y-31369000D01*
X246126000Y-31369000D01*
X246126000Y-30061000D01*
X246380000Y-30061000D01*
X246380000Y-31369000D01*
X248072915Y-31369000D01*
X248194904Y-31146961D01*
X248177367Y-31064181D01*
X247907500Y-30571104D01*
X247469483Y-30218834D01*
X246930000Y-30061000D01*
X246380000Y-30061000D01*
X246126000Y-30061000D01*
X245576000Y-30061000D01*
X245036517Y-30218834D01*
X244598500Y-30571104D01*
X244328633Y-31064181D01*
X244311096Y-31146961D01*
X242632304Y-31146961D01*
X242614767Y-31064181D01*
X242344900Y-30571104D01*
X241906883Y-30218834D01*
X241367400Y-30061000D01*
X240817400Y-30061000D01*
X240563400Y-30061000D01*
X240013400Y-30061000D01*
X239473917Y-30218834D01*
X239035900Y-30571104D01*
X238766033Y-31064181D01*
X238748496Y-31146961D01*
X237018904Y-31146961D01*
X237001367Y-31064181D01*
X236731500Y-30571104D01*
X236293483Y-30218834D01*
X235754000Y-30061000D01*
X235204000Y-30061000D01*
X234950000Y-30061000D01*
X234400000Y-30061000D01*
X233860517Y-30218834D01*
X233422500Y-30571104D01*
X233152633Y-31064181D01*
X233135096Y-31146961D01*
X231430904Y-31146961D01*
X231413367Y-31064181D01*
X231143500Y-30571104D01*
X230705483Y-30218834D01*
X230166000Y-30061000D01*
X229616000Y-30061000D01*
X229362000Y-30061000D01*
X228812000Y-30061000D01*
X228272517Y-30218834D01*
X227834500Y-30571104D01*
X227564633Y-31064181D01*
X227547096Y-31146961D01*
X225917194Y-31146961D01*
X225917239Y-31095507D01*
X225707437Y-30587749D01*
X225319295Y-30198928D01*
X224811903Y-29988241D01*
X224262507Y-29987761D01*
X223754749Y-30197563D01*
X223427577Y-30524164D01*
X223415387Y-30494736D01*
X223148532Y-30396073D01*
X222175605Y-31369000D01*
X221816395Y-31369000D01*
X220843468Y-30396073D01*
X220576613Y-30494736D01*
X220565214Y-30525418D01*
X220256805Y-30216468D01*
X221023073Y-30216468D01*
X221996000Y-31189395D01*
X222968927Y-30216468D01*
X222870264Y-29949613D01*
X222260539Y-29723092D01*
X221610540Y-29747144D01*
X221121736Y-29949613D01*
X221023073Y-30216468D01*
X220256805Y-30216468D01*
X220239295Y-30198928D01*
X219731903Y-29988241D01*
X219182507Y-29987761D01*
X218674749Y-30197563D01*
X218285928Y-30585705D01*
X218075241Y-31093097D01*
X218074761Y-31642493D01*
X209073099Y-31642493D01*
X211296026Y-29419566D01*
X211684140Y-29580725D01*
X212313101Y-29581274D01*
X212894395Y-29341088D01*
X213339525Y-28896734D01*
X213580725Y-28315860D01*
X213581274Y-27686899D01*
X213341088Y-27105605D01*
X213036016Y-26800000D01*
X213911536Y-26800000D01*
X213911536Y-29200000D01*
X213938103Y-29341190D01*
X214021546Y-29470865D01*
X214148866Y-29557859D01*
X214300000Y-29588464D01*
X216700000Y-29588464D01*
X216841190Y-29561897D01*
X216970865Y-29478454D01*
X217057859Y-29351134D01*
X217088464Y-29200000D01*
X217088464Y-26828750D01*
X217567000Y-26828750D01*
X217567000Y-27669309D01*
X217663673Y-27902698D01*
X217842301Y-28081327D01*
X218075690Y-28178000D01*
X218916250Y-28178000D01*
X219075000Y-28019250D01*
X219075000Y-26670000D01*
X217725750Y-26670000D01*
X217567000Y-26828750D01*
X217088464Y-26828750D01*
X217088464Y-26800000D01*
X217061897Y-26658810D01*
X216978454Y-26529135D01*
X216851134Y-26442141D01*
X216700000Y-26411536D01*
X214300000Y-26411536D01*
X214158810Y-26438103D01*
X214029135Y-26521546D01*
X213942141Y-26648866D01*
X213911536Y-26800000D01*
X213036016Y-26800000D01*
X212896734Y-26660475D01*
X212315860Y-26419275D01*
X211686899Y-26418726D01*
X211105605Y-26658912D01*
X210660475Y-27103266D01*
X210419275Y-27684140D01*
X210418726Y-28313101D01*
X210580291Y-28704117D01*
X208472208Y-30812200D01*
X207187800Y-30812200D01*
X206994162Y-30850717D01*
X206830004Y-30960404D01*
X205941004Y-31849404D01*
X205831317Y-32013562D01*
X205792800Y-32207200D01*
X205792800Y-41791273D01*
X205681424Y-41745026D01*
X205393439Y-41744775D01*
X205127279Y-41854750D01*
X204923465Y-42058208D01*
X204813026Y-42324176D01*
X204812775Y-42612161D01*
X204922750Y-42878321D01*
X205030800Y-42986560D01*
X205030800Y-44186260D01*
X204923465Y-44293408D01*
X204813026Y-44559376D01*
X204812775Y-44847361D01*
X204922750Y-45113521D01*
X205098864Y-45289944D01*
X204759045Y-45629763D01*
X204649358Y-45793921D01*
X204610841Y-45987559D01*
X204610841Y-48029170D01*
X204503506Y-48136318D01*
X204393067Y-48402286D01*
X204392816Y-48690271D01*
X199756000Y-48690271D01*
X199756000Y-29297175D01*
X200382430Y-29297175D01*
X200505565Y-29584788D01*
X201187734Y-29844707D01*
X201917443Y-29823786D01*
X202494435Y-29584788D01*
X202617570Y-29297175D01*
X201500000Y-28179605D01*
X200382430Y-29297175D01*
X199756000Y-29297175D01*
X199756000Y-28610063D01*
X199915212Y-28994435D01*
X200202825Y-29117570D01*
X201320395Y-28000000D01*
X201679605Y-28000000D01*
X202797175Y-29117570D01*
X203084788Y-28994435D01*
X203344388Y-28313101D01*
X203418726Y-28313101D01*
X203658912Y-28894395D01*
X204103266Y-29339525D01*
X204494000Y-29501772D01*
X204494000Y-38271416D01*
X204415471Y-38349808D01*
X204305032Y-38615776D01*
X204304781Y-38903761D01*
X204414756Y-39169921D01*
X204618214Y-39373735D01*
X204884182Y-39484174D01*
X205172167Y-39484425D01*
X205438327Y-39374450D01*
X205642141Y-39170992D01*
X205752580Y-38905024D01*
X205752831Y-38617039D01*
X205642856Y-38350879D01*
X205506000Y-38213784D01*
X205506000Y-29501570D01*
X205894395Y-29341088D01*
X206339525Y-28896734D01*
X206580725Y-28315860D01*
X206580727Y-28313101D01*
X206918726Y-28313101D01*
X207158912Y-28894395D01*
X207603266Y-29339525D01*
X208184140Y-29580725D01*
X208813101Y-29581274D01*
X209394395Y-29341088D01*
X209839525Y-28896734D01*
X210080725Y-28315860D01*
X210081274Y-27686899D01*
X209841088Y-27105605D01*
X209396734Y-26660475D01*
X208815860Y-26419275D01*
X208186899Y-26418726D01*
X207605605Y-26658912D01*
X207160475Y-27103266D01*
X206919275Y-27684140D01*
X206918726Y-28313101D01*
X206580727Y-28313101D01*
X206581274Y-27686899D01*
X206341088Y-27105605D01*
X205896734Y-26660475D01*
X205315860Y-26419275D01*
X204686899Y-26418726D01*
X204105605Y-26658912D01*
X203660475Y-27103266D01*
X203419275Y-27684140D01*
X203418726Y-28313101D01*
X203344388Y-28313101D01*
X203344707Y-28312266D01*
X203323786Y-27582557D01*
X203084788Y-27005565D01*
X202797175Y-26882430D01*
X201679605Y-28000000D01*
X201320395Y-28000000D01*
X200202825Y-26882430D01*
X199915212Y-27005565D01*
X199756000Y-27423424D01*
X199756000Y-26702825D01*
X200382430Y-26702825D01*
X201500000Y-27820395D01*
X202617570Y-26702825D01*
X202494435Y-26415212D01*
X201812266Y-26155293D01*
X201082557Y-26176214D01*
X200505565Y-26415212D01*
X200382430Y-26702825D01*
X199756000Y-26702825D01*
X199756000Y-25416691D01*
X217567000Y-25416691D01*
X217567000Y-26257250D01*
X217725750Y-26416000D01*
X219075000Y-26416000D01*
X219075000Y-25066750D01*
X219329000Y-25066750D01*
X219329000Y-26416000D01*
X219349000Y-26416000D01*
X219349000Y-26670000D01*
X219329000Y-26670000D01*
X219329000Y-28019250D01*
X219487750Y-28178000D01*
X220328310Y-28178000D01*
X220561699Y-28081327D01*
X220740327Y-27902698D01*
X220837000Y-27669309D01*
X220837000Y-27591154D01*
X220958705Y-27713072D01*
X221466097Y-27923759D01*
X222015493Y-27924239D01*
X222523251Y-27714437D01*
X222912072Y-27326295D01*
X223122759Y-26818903D01*
X223123111Y-26416000D01*
X227724088Y-26416000D01*
X227813986Y-26867949D01*
X228069995Y-27251093D01*
X228453139Y-27507102D01*
X228905088Y-27597000D01*
X230072912Y-27597000D01*
X230524861Y-27507102D01*
X230908005Y-27251093D01*
X231164014Y-26867949D01*
X231184484Y-26765039D01*
X233135096Y-26765039D01*
X233152633Y-26847819D01*
X233422500Y-27340896D01*
X233860517Y-27693166D01*
X234400000Y-27851000D01*
X234950000Y-27851000D01*
X234950000Y-26543000D01*
X235204000Y-26543000D01*
X235204000Y-27851000D01*
X235754000Y-27851000D01*
X236293483Y-27693166D01*
X236731500Y-27340896D01*
X237001367Y-26847819D01*
X237018904Y-26765039D01*
X238748496Y-26765039D01*
X238766033Y-26847819D01*
X239035900Y-27340896D01*
X239473917Y-27693166D01*
X240013400Y-27851000D01*
X240563400Y-27851000D01*
X240563400Y-26543000D01*
X240817400Y-26543000D01*
X240817400Y-27851000D01*
X241367400Y-27851000D01*
X241906883Y-27693166D01*
X242344900Y-27340896D01*
X242614767Y-26847819D01*
X242632304Y-26765039D01*
X244311096Y-26765039D01*
X244328633Y-26847819D01*
X244598500Y-27340896D01*
X245036517Y-27693166D01*
X245576000Y-27851000D01*
X246126000Y-27851000D01*
X246126000Y-26543000D01*
X246380000Y-26543000D01*
X246380000Y-27851000D01*
X246930000Y-27851000D01*
X247469483Y-27693166D01*
X247907500Y-27340896D01*
X248177367Y-26847819D01*
X248194904Y-26765039D01*
X248072915Y-26543000D01*
X246380000Y-26543000D01*
X246126000Y-26543000D01*
X244433085Y-26543000D01*
X244311096Y-26765039D01*
X242632304Y-26765039D01*
X242510315Y-26543000D01*
X240817400Y-26543000D01*
X240563400Y-26543000D01*
X238870485Y-26543000D01*
X238748496Y-26765039D01*
X237018904Y-26765039D01*
X236896915Y-26543000D01*
X235204000Y-26543000D01*
X234950000Y-26543000D01*
X233257085Y-26543000D01*
X233135096Y-26765039D01*
X231184484Y-26765039D01*
X231253912Y-26416000D01*
X231184485Y-26066961D01*
X233135096Y-26066961D01*
X233257085Y-26289000D01*
X234950000Y-26289000D01*
X234950000Y-24981000D01*
X235204000Y-24981000D01*
X235204000Y-26289000D01*
X236896915Y-26289000D01*
X237018904Y-26066961D01*
X238748496Y-26066961D01*
X238870485Y-26289000D01*
X240563400Y-26289000D01*
X240563400Y-24981000D01*
X240817400Y-24981000D01*
X240817400Y-26289000D01*
X242510315Y-26289000D01*
X242632304Y-26066961D01*
X244311096Y-26066961D01*
X244433085Y-26289000D01*
X246126000Y-26289000D01*
X246126000Y-24981000D01*
X246380000Y-24981000D01*
X246380000Y-26289000D01*
X248072915Y-26289000D01*
X248194904Y-26066961D01*
X248177367Y-25984181D01*
X247907500Y-25491104D01*
X247469483Y-25138834D01*
X246930000Y-24981000D01*
X246380000Y-24981000D01*
X246126000Y-24981000D01*
X245576000Y-24981000D01*
X245036517Y-25138834D01*
X244598500Y-25491104D01*
X244328633Y-25984181D01*
X244311096Y-26066961D01*
X242632304Y-26066961D01*
X242614767Y-25984181D01*
X242344900Y-25491104D01*
X241906883Y-25138834D01*
X241367400Y-24981000D01*
X240817400Y-24981000D01*
X240563400Y-24981000D01*
X240013400Y-24981000D01*
X239473917Y-25138834D01*
X239035900Y-25491104D01*
X238766033Y-25984181D01*
X238748496Y-26066961D01*
X237018904Y-26066961D01*
X237001367Y-25984181D01*
X236731500Y-25491104D01*
X236293483Y-25138834D01*
X235754000Y-24981000D01*
X235204000Y-24981000D01*
X234950000Y-24981000D01*
X234400000Y-24981000D01*
X233860517Y-25138834D01*
X233422500Y-25491104D01*
X233152633Y-25984181D01*
X233135096Y-26066961D01*
X231184485Y-26066961D01*
X231164014Y-25964051D01*
X230908005Y-25580907D01*
X230524861Y-25324898D01*
X230072912Y-25235000D01*
X228905088Y-25235000D01*
X228453139Y-25324898D01*
X228069995Y-25580907D01*
X227813986Y-25964051D01*
X227724088Y-26416000D01*
X223123111Y-26416000D01*
X223123239Y-26269507D01*
X222913437Y-25761749D01*
X222525295Y-25372928D01*
X222017903Y-25162241D01*
X221468507Y-25161761D01*
X220960749Y-25371563D01*
X220837000Y-25495096D01*
X220837000Y-25416691D01*
X220740327Y-25183302D01*
X220561699Y-25004673D01*
X220328310Y-24908000D01*
X219487750Y-24908000D01*
X219329000Y-25066750D01*
X219075000Y-25066750D01*
X218916250Y-24908000D01*
X218075690Y-24908000D01*
X217842301Y-25004673D01*
X217663673Y-25183302D01*
X217567000Y-25416691D01*
X199756000Y-25416691D01*
X199756000Y-24356000D01*
X248844000Y-24356000D01*
X248844000Y-70273000D01*
M02*
