G04 #@! TF.FileFunction,Legend,Top*
%FSLAX46Y46*%
G04 Gerber Fmt 4.6, Leading zero omitted, Abs format (unit mm)*
G04 Created by KiCad (PCBNEW 4.0.5-e0-6337~49~ubuntu16.04.1) date Thu Jan 26 10:19:32 2017*
%MOMM*%
%LPD*%
G01*
G04 APERTURE LIST*
%ADD10C,0.100000*%
%ADD11C,0.150000*%
G04 APERTURE END LIST*
D10*
D11*
X249023933Y-48171269D02*
X248457267Y-48171269D01*
X248390600Y-48204602D01*
X248357267Y-48237935D01*
X248323933Y-48304602D01*
X248323933Y-48437935D01*
X248357267Y-48504602D01*
X248390600Y-48537935D01*
X248457267Y-48571269D01*
X249023933Y-48571269D01*
X248357267Y-48871268D02*
X248323933Y-48971268D01*
X248323933Y-49137935D01*
X248357267Y-49204602D01*
X248390600Y-49237935D01*
X248457267Y-49271268D01*
X248523933Y-49271268D01*
X248590600Y-49237935D01*
X248623933Y-49204602D01*
X248657267Y-49137935D01*
X248690600Y-49004602D01*
X248723933Y-48937935D01*
X248757267Y-48904602D01*
X248823933Y-48871268D01*
X248890600Y-48871268D01*
X248957267Y-48904602D01*
X248990600Y-48937935D01*
X249023933Y-49004602D01*
X249023933Y-49171268D01*
X248990600Y-49271268D01*
X248690600Y-49804602D02*
X248657267Y-49904602D01*
X248623933Y-49937935D01*
X248557267Y-49971269D01*
X248457267Y-49971269D01*
X248390600Y-49937935D01*
X248357267Y-49904602D01*
X248323933Y-49837935D01*
X248323933Y-49571269D01*
X249023933Y-49571269D01*
X249023933Y-49804602D01*
X248990600Y-49871269D01*
X248957267Y-49904602D01*
X248890600Y-49937935D01*
X248823933Y-49937935D01*
X248757267Y-49904602D01*
X248723933Y-49871269D01*
X248690600Y-49804602D01*
X248690600Y-49571269D01*
X248790600Y-50804602D02*
X248090600Y-50804602D01*
X248757267Y-50804602D02*
X248790600Y-50871268D01*
X248790600Y-51004602D01*
X248757267Y-51071268D01*
X248723933Y-51104602D01*
X248657267Y-51137935D01*
X248457267Y-51137935D01*
X248390600Y-51104602D01*
X248357267Y-51071268D01*
X248323933Y-51004602D01*
X248323933Y-50871268D01*
X248357267Y-50804602D01*
X248323933Y-51537935D02*
X248357267Y-51471268D01*
X248390600Y-51437935D01*
X248457267Y-51404601D01*
X248657267Y-51404601D01*
X248723933Y-51437935D01*
X248757267Y-51471268D01*
X248790600Y-51537935D01*
X248790600Y-51637935D01*
X248757267Y-51704601D01*
X248723933Y-51737935D01*
X248657267Y-51771268D01*
X248457267Y-51771268D01*
X248390600Y-51737935D01*
X248357267Y-51704601D01*
X248323933Y-51637935D01*
X248323933Y-51537935D01*
X248790600Y-51971268D02*
X248790600Y-52237934D01*
X249023933Y-52071268D02*
X248423933Y-52071268D01*
X248357267Y-52104601D01*
X248323933Y-52171268D01*
X248323933Y-52237934D01*
X248357267Y-52737934D02*
X248323933Y-52671268D01*
X248323933Y-52537934D01*
X248357267Y-52471268D01*
X248423933Y-52437934D01*
X248690600Y-52437934D01*
X248757267Y-52471268D01*
X248790600Y-52537934D01*
X248790600Y-52671268D01*
X248757267Y-52737934D01*
X248690600Y-52771268D01*
X248623933Y-52771268D01*
X248557267Y-52437934D01*
X248790600Y-53071268D02*
X248323933Y-53071268D01*
X248723933Y-53071268D02*
X248757267Y-53104601D01*
X248790600Y-53171268D01*
X248790600Y-53271268D01*
X248757267Y-53337934D01*
X248690600Y-53371268D01*
X248323933Y-53371268D01*
X248790600Y-53604601D02*
X248790600Y-53871267D01*
X249023933Y-53704601D02*
X248423933Y-53704601D01*
X248357267Y-53737934D01*
X248323933Y-53804601D01*
X248323933Y-53871267D01*
X248323933Y-54104601D02*
X248790600Y-54104601D01*
X249023933Y-54104601D02*
X248990600Y-54071267D01*
X248957267Y-54104601D01*
X248990600Y-54137934D01*
X249023933Y-54104601D01*
X248957267Y-54104601D01*
X248323933Y-54537934D02*
X248357267Y-54471267D01*
X248390600Y-54437934D01*
X248457267Y-54404600D01*
X248657267Y-54404600D01*
X248723933Y-54437934D01*
X248757267Y-54471267D01*
X248790600Y-54537934D01*
X248790600Y-54637934D01*
X248757267Y-54704600D01*
X248723933Y-54737934D01*
X248657267Y-54771267D01*
X248457267Y-54771267D01*
X248390600Y-54737934D01*
X248357267Y-54704600D01*
X248323933Y-54637934D01*
X248323933Y-54537934D01*
X248357267Y-55037933D02*
X248323933Y-55104600D01*
X248323933Y-55237933D01*
X248357267Y-55304600D01*
X248423933Y-55337933D01*
X248457267Y-55337933D01*
X248523933Y-55304600D01*
X248557267Y-55237933D01*
X248557267Y-55137933D01*
X248590600Y-55071267D01*
X248657267Y-55037933D01*
X248690600Y-55037933D01*
X248757267Y-55071267D01*
X248790600Y-55137933D01*
X248790600Y-55237933D01*
X248757267Y-55304600D01*
X248790600Y-55537934D02*
X248790600Y-55804600D01*
X249023933Y-55637934D02*
X248423933Y-55637934D01*
X248357267Y-55671267D01*
X248323933Y-55737934D01*
X248323933Y-55804600D01*
X248323933Y-56337934D02*
X248690600Y-56337934D01*
X248757267Y-56304600D01*
X248790600Y-56237934D01*
X248790600Y-56104600D01*
X248757267Y-56037934D01*
X248357267Y-56337934D02*
X248323933Y-56271267D01*
X248323933Y-56104600D01*
X248357267Y-56037934D01*
X248423933Y-56004600D01*
X248490600Y-56004600D01*
X248557267Y-56037934D01*
X248590600Y-56104600D01*
X248590600Y-56271267D01*
X248623933Y-56337934D01*
X248790600Y-56571267D02*
X248790600Y-56837933D01*
X249023933Y-56671267D02*
X248423933Y-56671267D01*
X248357267Y-56704600D01*
X248323933Y-56771267D01*
X248323933Y-56837933D01*
X249057267Y-57571267D02*
X248157267Y-56971267D01*
X248790600Y-58104600D02*
X248223933Y-58104600D01*
X248157267Y-58071266D01*
X248123933Y-58037933D01*
X248090600Y-57971266D01*
X248090600Y-57871266D01*
X248123933Y-57804600D01*
X248357267Y-58104600D02*
X248323933Y-58037933D01*
X248323933Y-57904600D01*
X248357267Y-57837933D01*
X248390600Y-57804600D01*
X248457267Y-57771266D01*
X248657267Y-57771266D01*
X248723933Y-57804600D01*
X248757267Y-57837933D01*
X248790600Y-57904600D01*
X248790600Y-58037933D01*
X248757267Y-58104600D01*
X248323933Y-58737933D02*
X248690600Y-58737933D01*
X248757267Y-58704599D01*
X248790600Y-58637933D01*
X248790600Y-58504599D01*
X248757267Y-58437933D01*
X248357267Y-58737933D02*
X248323933Y-58671266D01*
X248323933Y-58504599D01*
X248357267Y-58437933D01*
X248423933Y-58404599D01*
X248490600Y-58404599D01*
X248557267Y-58437933D01*
X248590600Y-58504599D01*
X248590600Y-58671266D01*
X248623933Y-58737933D01*
X248323933Y-59171266D02*
X248357267Y-59104599D01*
X248423933Y-59071266D01*
X249023933Y-59071266D01*
X248790600Y-59371266D02*
X248323933Y-59537933D01*
X248790600Y-59704599D01*
X248323933Y-60271266D02*
X248690600Y-60271266D01*
X248757267Y-60237932D01*
X248790600Y-60171266D01*
X248790600Y-60037932D01*
X248757267Y-59971266D01*
X248357267Y-60271266D02*
X248323933Y-60204599D01*
X248323933Y-60037932D01*
X248357267Y-59971266D01*
X248423933Y-59937932D01*
X248490600Y-59937932D01*
X248557267Y-59971266D01*
X248590600Y-60037932D01*
X248590600Y-60204599D01*
X248623933Y-60271266D01*
X248790600Y-60604599D02*
X248323933Y-60604599D01*
X248723933Y-60604599D02*
X248757267Y-60637932D01*
X248790600Y-60704599D01*
X248790600Y-60804599D01*
X248757267Y-60871265D01*
X248690600Y-60904599D01*
X248323933Y-60904599D01*
X248323933Y-61337932D02*
X248357267Y-61271265D01*
X248390600Y-61237932D01*
X248457267Y-61204598D01*
X248657267Y-61204598D01*
X248723933Y-61237932D01*
X248757267Y-61271265D01*
X248790600Y-61337932D01*
X248790600Y-61437932D01*
X248757267Y-61504598D01*
X248723933Y-61537932D01*
X248657267Y-61571265D01*
X248457267Y-61571265D01*
X248390600Y-61537932D01*
X248357267Y-61504598D01*
X248323933Y-61437932D01*
X248323933Y-61337932D01*
X248357267Y-61837931D02*
X248323933Y-61904598D01*
X248323933Y-62037931D01*
X248357267Y-62104598D01*
X248423933Y-62137931D01*
X248457267Y-62137931D01*
X248523933Y-62104598D01*
X248557267Y-62037931D01*
X248557267Y-61937931D01*
X248590600Y-61871265D01*
X248657267Y-61837931D01*
X248690600Y-61837931D01*
X248757267Y-61871265D01*
X248790600Y-61937931D01*
X248790600Y-62037931D01*
X248757267Y-62104598D01*
X248790600Y-62337932D02*
X248790600Y-62604598D01*
X249023933Y-62437932D02*
X248423933Y-62437932D01*
X248357267Y-62471265D01*
X248323933Y-62537932D01*
X248323933Y-62604598D01*
X248323933Y-63137932D02*
X248690600Y-63137932D01*
X248757267Y-63104598D01*
X248790600Y-63037932D01*
X248790600Y-62904598D01*
X248757267Y-62837932D01*
X248357267Y-63137932D02*
X248323933Y-63071265D01*
X248323933Y-62904598D01*
X248357267Y-62837932D01*
X248423933Y-62804598D01*
X248490600Y-62804598D01*
X248557267Y-62837932D01*
X248590600Y-62904598D01*
X248590600Y-63071265D01*
X248623933Y-63137932D01*
X248790600Y-63371265D02*
X248790600Y-63637931D01*
X249023933Y-63471265D02*
X248423933Y-63471265D01*
X248357267Y-63504598D01*
X248323933Y-63571265D01*
X248323933Y-63637931D01*
X224031334Y-33463667D02*
X224031334Y-32763667D01*
X224264667Y-33263667D01*
X224498000Y-32763667D01*
X224498000Y-33463667D01*
X224964667Y-32763667D02*
X225098000Y-32763667D01*
X225164667Y-32797000D01*
X225231334Y-32863667D01*
X225264667Y-32997000D01*
X225264667Y-33230333D01*
X225231334Y-33363667D01*
X225164667Y-33430333D01*
X225098000Y-33463667D01*
X224964667Y-33463667D01*
X224898000Y-33430333D01*
X224831334Y-33363667D01*
X224798000Y-33230333D01*
X224798000Y-32997000D01*
X224831334Y-32863667D01*
X224898000Y-32797000D01*
X224964667Y-32763667D01*
X225564667Y-33463667D02*
X225564667Y-32763667D01*
X225731333Y-32763667D01*
X225831333Y-32797000D01*
X225898000Y-32863667D01*
X225931333Y-32930333D01*
X225964667Y-33063667D01*
X225964667Y-33163667D01*
X225931333Y-33297000D01*
X225898000Y-33363667D01*
X225831333Y-33430333D01*
X225731333Y-33463667D01*
X225564667Y-33463667D01*
X226264667Y-33097000D02*
X226498000Y-33097000D01*
X226598000Y-33463667D02*
X226264667Y-33463667D01*
X226264667Y-32763667D01*
X226598000Y-32763667D01*
X222869334Y-28698000D02*
X222836000Y-28731333D01*
X222736000Y-28764667D01*
X222669334Y-28764667D01*
X222569334Y-28731333D01*
X222502667Y-28664667D01*
X222469334Y-28598000D01*
X222436000Y-28464667D01*
X222436000Y-28364667D01*
X222469334Y-28231333D01*
X222502667Y-28164667D01*
X222569334Y-28098000D01*
X222669334Y-28064667D01*
X222736000Y-28064667D01*
X222836000Y-28098000D01*
X222869334Y-28131333D01*
X223169334Y-28398000D02*
X223402667Y-28398000D01*
X223502667Y-28764667D02*
X223169334Y-28764667D01*
X223169334Y-28064667D01*
X223502667Y-28064667D01*
X224136000Y-28764667D02*
X223802667Y-28764667D01*
X223802667Y-28064667D01*
X224702667Y-28764667D02*
X224369334Y-28764667D01*
X224369334Y-28064667D01*
X225602667Y-28064667D02*
X225736000Y-28064667D01*
X225802667Y-28098000D01*
X225869334Y-28164667D01*
X225902667Y-28298000D01*
X225902667Y-28531333D01*
X225869334Y-28664667D01*
X225802667Y-28731333D01*
X225736000Y-28764667D01*
X225602667Y-28764667D01*
X225536000Y-28731333D01*
X225469334Y-28664667D01*
X225436000Y-28531333D01*
X225436000Y-28298000D01*
X225469334Y-28164667D01*
X225536000Y-28098000D01*
X225602667Y-28064667D01*
X226202667Y-28764667D02*
X226202667Y-28064667D01*
X226602667Y-28764667D01*
X226602667Y-28064667D01*
X213234400Y-48299000D02*
X212234400Y-48299000D01*
X212234400Y-49999000D02*
X213234400Y-49999000D01*
X214987000Y-37935800D02*
X213987000Y-37935800D01*
X213987000Y-39635800D02*
X214987000Y-39635800D01*
X219616400Y-40474000D02*
X220616400Y-40474000D01*
X220616400Y-38774000D02*
X219616400Y-38774000D01*
X200318000Y-65143000D02*
X200318000Y-66143000D01*
X202018000Y-66143000D02*
X202018000Y-65143000D01*
X202934600Y-55550400D02*
X202934600Y-54350400D01*
X204684600Y-54350400D02*
X204684600Y-55550400D01*
X200318000Y-54602000D02*
X200318000Y-55602000D01*
X202018000Y-55602000D02*
X202018000Y-54602000D01*
X216254200Y-44984000D02*
X216778000Y-45503200D01*
X219101800Y-45503200D02*
X216254200Y-45503200D01*
X216254200Y-45503200D02*
X216254200Y-43904800D01*
X216254200Y-43904800D02*
X219101800Y-43904800D01*
X219101800Y-43904800D02*
X219101800Y-45503200D01*
X207402400Y-54350400D02*
X207402400Y-55550400D01*
X205652400Y-55550400D02*
X205652400Y-54350400D01*
X210273000Y-58777000D02*
X210273000Y-57777000D01*
X208573000Y-57777000D02*
X208573000Y-58777000D01*
X204394000Y-42794000D02*
X204394000Y-42819000D01*
X208544000Y-42794000D02*
X208544000Y-42909000D01*
X208544000Y-51694000D02*
X208544000Y-51579000D01*
X204394000Y-51694000D02*
X204394000Y-51579000D01*
X204394000Y-42794000D02*
X208544000Y-42794000D01*
X204394000Y-51694000D02*
X208544000Y-51694000D01*
X204394000Y-42819000D02*
X203019000Y-42819000D01*
X206281200Y-32484600D02*
X206281200Y-32534600D01*
X210431200Y-32484600D02*
X210431200Y-32629600D01*
X210431200Y-37634600D02*
X210431200Y-37489600D01*
X206281200Y-37634600D02*
X206281200Y-37489600D01*
X206281200Y-32484600D02*
X210431200Y-32484600D01*
X206281200Y-37634600D02*
X210431200Y-37634600D01*
X206281200Y-32534600D02*
X204881200Y-32534600D01*
X215067400Y-42200800D02*
X213867400Y-42200800D01*
X213867400Y-40450800D02*
X215067400Y-40450800D01*
X227853240Y-48895000D02*
X228254560Y-48694340D01*
X228254560Y-48694340D02*
X228854000Y-48592740D01*
X228854000Y-48592740D02*
X229354380Y-48694340D01*
X229354380Y-48694340D02*
X230052880Y-49093120D01*
X230052880Y-49093120D02*
X230454200Y-49695100D01*
X230454200Y-49695100D02*
X230654860Y-50294540D01*
X230654860Y-50294540D02*
X230654860Y-56893460D01*
X230654860Y-56893460D02*
X230454200Y-57594500D01*
X230454200Y-57594500D02*
X230154480Y-57993280D01*
X230154480Y-57993280D02*
X229654100Y-58394600D01*
X229654100Y-58394600D02*
X229054660Y-58595260D01*
X229054660Y-58595260D02*
X228554280Y-58595260D01*
X228554280Y-58595260D02*
X228053900Y-58394600D01*
X228053900Y-58394600D02*
X227454460Y-57894220D01*
X227454460Y-57894220D02*
X227154740Y-57393840D01*
X227154740Y-57393840D02*
X227053140Y-56893460D01*
X227053140Y-56794400D02*
X227053140Y-50192940D01*
X227053140Y-50192940D02*
X227154740Y-49794160D01*
X227154740Y-49794160D02*
X227454460Y-49293780D01*
X227454460Y-49293780D02*
X227954840Y-48793400D01*
X226524820Y-56784240D02*
X226573080Y-57243980D01*
X226573080Y-57243980D02*
X226684840Y-57642760D01*
X226684840Y-57642760D02*
X226903280Y-58074560D01*
X226903280Y-58074560D02*
X227134420Y-58364120D01*
X227134420Y-58364120D02*
X227484940Y-58694320D01*
X227484940Y-58694320D02*
X228023420Y-58983880D01*
X228023420Y-58983880D02*
X228622860Y-59113420D01*
X228622860Y-59113420D02*
X229133400Y-59113420D01*
X229133400Y-59113420D02*
X229834440Y-58943240D01*
X229834440Y-58943240D02*
X230423720Y-58544460D01*
X230423720Y-58544460D02*
X230794560Y-58084720D01*
X230794560Y-58084720D02*
X231002840Y-57663080D01*
X231002840Y-57663080D02*
X231162860Y-57213500D01*
X231162860Y-57213500D02*
X231193340Y-56774080D01*
X230974900Y-49433480D02*
X230753920Y-49055020D01*
X230753920Y-49055020D02*
X230474520Y-48734980D01*
X230474520Y-48734980D02*
X230144320Y-48483520D01*
X230144320Y-48483520D02*
X229593140Y-48183800D01*
X229593140Y-48183800D02*
X229123240Y-48074580D01*
X229123240Y-48074580D02*
X228663500Y-48054260D01*
X228663500Y-48054260D02*
X228203760Y-48143160D01*
X228203760Y-48143160D02*
X227754180Y-48333660D01*
X227754180Y-48333660D02*
X227284280Y-48694340D01*
X227284280Y-48694340D02*
X226964240Y-49044860D01*
X226964240Y-49044860D02*
X226733100Y-49433480D01*
X226733100Y-49433480D02*
X226593400Y-49862740D01*
X226593400Y-49862740D02*
X226524820Y-50304700D01*
X231183180Y-56794400D02*
X231183180Y-50342800D01*
X231183180Y-50342800D02*
X231145080Y-49923700D01*
X231145080Y-49923700D02*
X230974900Y-49433480D01*
X226524820Y-56794400D02*
X226524820Y-50342800D01*
X231759000Y-60374000D02*
X229759000Y-60374000D01*
X229759000Y-63324000D02*
X231759000Y-63324000D01*
X219345000Y-63324000D02*
X221345000Y-63324000D01*
X221345000Y-60374000D02*
X219345000Y-60374000D01*
X218645000Y-68310000D02*
X218645000Y-66310000D01*
X215695000Y-66310000D02*
X215695000Y-68310000D01*
X229284000Y-65802000D02*
X229284000Y-67802000D01*
X232234000Y-67802000D02*
X232234000Y-65802000D01*
X221345000Y-70280000D02*
X219345000Y-70280000D01*
X219345000Y-73230000D02*
X221345000Y-73230000D01*
X229759000Y-73230000D02*
X231759000Y-73230000D01*
X231759000Y-70280000D02*
X229759000Y-70280000D01*
X246134000Y-63334000D02*
X247134000Y-63334000D01*
X247134000Y-61634000D02*
X246134000Y-61634000D01*
X239022000Y-63334000D02*
X240022000Y-63334000D01*
X240022000Y-61634000D02*
X239022000Y-61634000D01*
X217258000Y-72128000D02*
X217258000Y-71128000D01*
X215558000Y-71128000D02*
X215558000Y-72128000D01*
X215765000Y-62650000D02*
X214765000Y-62650000D01*
X214765000Y-64350000D02*
X215765000Y-64350000D01*
X205677400Y-65149600D02*
X205677400Y-66149600D01*
X207377400Y-66149600D02*
X207377400Y-65149600D01*
X220996000Y-51132000D02*
X222996000Y-51132000D01*
X222996000Y-48182000D02*
X220996000Y-48182000D01*
X232068000Y-54999000D02*
X232068000Y-55999000D01*
X233768000Y-55999000D02*
X233768000Y-54999000D01*
X233768000Y-51046000D02*
X233768000Y-50046000D01*
X232068000Y-50046000D02*
X232068000Y-51046000D01*
X217512000Y-55364000D02*
X217512000Y-54364000D01*
X215812000Y-54364000D02*
X215812000Y-55364000D01*
X214718000Y-54602000D02*
X214718000Y-53602000D01*
X213018000Y-53602000D02*
X213018000Y-54602000D01*
X200191000Y-50157000D02*
X200191000Y-51157000D01*
X201891000Y-51157000D02*
X201891000Y-50157000D01*
X213234400Y-45174800D02*
X212234400Y-45174800D01*
X212234400Y-46874800D02*
X213234400Y-46874800D01*
X205030200Y-40171000D02*
X204030200Y-40171000D01*
X204030200Y-41871000D02*
X205030200Y-41871000D01*
X214374600Y-34022400D02*
X215374600Y-34022400D01*
X215374600Y-32322400D02*
X214374600Y-32322400D01*
X201287000Y-39331000D02*
X202287000Y-39331000D01*
X202287000Y-37631000D02*
X201287000Y-37631000D01*
X225409760Y-60549840D02*
X225409760Y-60598100D01*
X226110800Y-63348820D02*
X225409760Y-63348820D01*
X225409760Y-63348820D02*
X225409760Y-63099900D01*
X225409760Y-60549840D02*
X225409760Y-60349180D01*
X225409760Y-60349180D02*
X226110800Y-60349180D01*
X225409760Y-70455840D02*
X225409760Y-70504100D01*
X226110800Y-73254820D02*
X225409760Y-73254820D01*
X225409760Y-73254820D02*
X225409760Y-73005900D01*
X225409760Y-70455840D02*
X225409760Y-70255180D01*
X225409760Y-70255180D02*
X226110800Y-70255180D01*
X219003000Y-27857000D02*
X219003000Y-27657000D01*
X219003000Y-25263000D02*
X219003000Y-25443000D01*
X222230744Y-25573357D02*
G75*
G03X219003000Y-25257000I-1727744J-1003643D01*
G01*
X221555006Y-25443932D02*
G75*
G03X219452000Y-25443000I-1052006J-1133068D01*
G01*
X219015780Y-27883726D02*
G75*
G03X222253000Y-27537000I1497220J1306726D01*
G01*
X219489111Y-27656253D02*
G75*
G03X221537000Y-27637000I1013889J1079253D01*
G01*
X220214974Y-32401865D02*
G75*
G03X223736000Y-32369000I1751026J1032865D01*
G01*
X220913920Y-32467070D02*
G75*
G03X223016000Y-32469000I1052080J1132070D01*
G01*
X223701829Y-30350456D02*
G75*
G03X220216000Y-30375000I-1735829J-1018544D01*
G01*
X222980063Y-30259744D02*
G75*
G03X220936000Y-30275000I-1014063J-1075256D01*
G01*
X239227360Y-72306180D02*
X246928640Y-72306180D01*
X239227360Y-73306940D02*
X246928640Y-73306940D01*
X246928640Y-73306940D02*
X246928640Y-64107060D01*
X246928640Y-64107060D02*
X239227360Y-64107060D01*
X239227360Y-64107060D02*
X239227360Y-73306940D01*
X245491000Y-47498000D02*
X232791000Y-47498000D01*
X232791000Y-47498000D02*
X232791000Y-44958000D01*
X232791000Y-44958000D02*
X245491000Y-44958000D01*
X248311000Y-47778000D02*
X246761000Y-47778000D01*
X245491000Y-47498000D02*
X245491000Y-44958000D01*
X246761000Y-44678000D02*
X248311000Y-44678000D01*
X248311000Y-44678000D02*
X248311000Y-47778000D01*
X210260600Y-62625000D02*
X211460600Y-62625000D01*
X211460600Y-64375000D02*
X210260600Y-64375000D01*
X202960000Y-66243800D02*
X202960000Y-65043800D01*
X204710000Y-65043800D02*
X204710000Y-66243800D01*
X223682000Y-38749000D02*
X224882000Y-38749000D01*
X224882000Y-40499000D02*
X223682000Y-40499000D01*
X201916000Y-41498000D02*
X201916000Y-42698000D01*
X200166000Y-42698000D02*
X200166000Y-41498000D01*
X216295000Y-50320500D02*
X216295000Y-49120500D01*
X218045000Y-49120500D02*
X218045000Y-50320500D01*
X201916000Y-45689000D02*
X201916000Y-46889000D01*
X200166000Y-46889000D02*
X200166000Y-45689000D01*
X210298000Y-53563000D02*
X210298000Y-54763000D01*
X208548000Y-54763000D02*
X208548000Y-53563000D01*
X230089000Y-46468000D02*
X228889000Y-46468000D01*
X228889000Y-44718000D02*
X230089000Y-44718000D01*
X224882000Y-43547000D02*
X223682000Y-43547000D01*
X223682000Y-41797000D02*
X224882000Y-41797000D01*
X224882000Y-46468000D02*
X223682000Y-46468000D01*
X223682000Y-44718000D02*
X224882000Y-44718000D01*
X202189600Y-34199800D02*
X200989600Y-34199800D01*
X200989600Y-32449800D02*
X202189600Y-32449800D01*
X201010000Y-35066000D02*
X202210000Y-35066000D01*
X202210000Y-36816000D02*
X201010000Y-36816000D01*
X211822000Y-39852000D02*
X211822000Y-41052000D01*
X210072000Y-41052000D02*
X210072000Y-39852000D01*
X207278000Y-41047000D02*
X207278000Y-39847000D01*
X209028000Y-39847000D02*
X209028000Y-41047000D01*
X215443400Y-36587400D02*
X214243400Y-36587400D01*
X214243400Y-34837400D02*
X215443400Y-34837400D01*
X225390000Y-27418000D02*
X224190000Y-27418000D01*
X224190000Y-25668000D02*
X225390000Y-25668000D01*
X223555000Y-33796000D02*
X224755000Y-33796000D01*
X224755000Y-35546000D02*
X223555000Y-35546000D01*
X219237000Y-33796000D02*
X220437000Y-33796000D01*
X220437000Y-35546000D02*
X219237000Y-35546000D01*
X222080000Y-64100000D02*
X222080000Y-64150000D01*
X226230000Y-64100000D02*
X226230000Y-64245000D01*
X226230000Y-69250000D02*
X226230000Y-69105000D01*
X222080000Y-69250000D02*
X222080000Y-69105000D01*
X222080000Y-64100000D02*
X226230000Y-64100000D01*
X222080000Y-69250000D02*
X226230000Y-69250000D01*
X222080000Y-64150000D02*
X220680000Y-64150000D01*
X247875000Y-50862000D02*
X247625000Y-50862000D01*
X247875000Y-58612000D02*
X247540000Y-58612000D01*
X234725000Y-58612000D02*
X235060000Y-58612000D01*
X234725000Y-50862000D02*
X235060000Y-50862000D01*
X247875000Y-50862000D02*
X247875000Y-58612000D01*
X234725000Y-50862000D02*
X234725000Y-58612000D01*
X247625000Y-50862000D02*
X247625000Y-49062000D01*
X209388000Y-71290000D02*
X209438000Y-71290000D01*
X209388000Y-67140000D02*
X209533000Y-67140000D01*
X214538000Y-67140000D02*
X214393000Y-67140000D01*
X214538000Y-71290000D02*
X214393000Y-71290000D01*
X209388000Y-71290000D02*
X209388000Y-67140000D01*
X214538000Y-71290000D02*
X214538000Y-67140000D01*
X209438000Y-71290000D02*
X209438000Y-72690000D01*
X201767600Y-57242000D02*
X201767600Y-57292000D01*
X205917600Y-57242000D02*
X205917600Y-57387000D01*
X205917600Y-62392000D02*
X205917600Y-62247000D01*
X201767600Y-62392000D02*
X201767600Y-62247000D01*
X201767600Y-57242000D02*
X205917600Y-57242000D01*
X201767600Y-62392000D02*
X205917600Y-62392000D01*
X201767600Y-57292000D02*
X200367600Y-57292000D01*
X201760000Y-67910000D02*
X201760000Y-67960000D01*
X205910000Y-67910000D02*
X205910000Y-68055000D01*
X205910000Y-73060000D02*
X205910000Y-72915000D01*
X201760000Y-73060000D02*
X201760000Y-72915000D01*
X201760000Y-67910000D02*
X205910000Y-67910000D01*
X201760000Y-73060000D02*
X205910000Y-73060000D01*
X201760000Y-67960000D02*
X200360000Y-67960000D01*
X223996000Y-52697000D02*
X219996000Y-52697000D01*
X225271000Y-58097000D02*
X219996000Y-58097000D01*
X233856000Y-64786000D02*
X233856000Y-66786000D01*
X236806000Y-66786000D02*
X236806000Y-64786000D01*
X236806000Y-72120000D02*
X236806000Y-70120000D01*
X233856000Y-70120000D02*
X233856000Y-72120000D01*
X203200000Y-25200000D02*
X203200000Y-24400000D01*
X206700000Y-25200000D02*
X206700000Y-24400000D01*
X213800000Y-25200000D02*
X213800000Y-24400000D01*
X210300000Y-25200000D02*
X210300000Y-24400000D01*
X217300000Y-24400000D02*
X199700000Y-24400000D01*
X217300000Y-25300000D02*
X199700000Y-25300000D01*
X217300000Y-31700000D02*
X217300000Y-24400000D01*
X199700000Y-24400000D02*
X199700000Y-31700000D01*
X199700000Y-31700000D02*
X217300000Y-31700000D01*
X231989000Y-24296000D02*
X231989000Y-43696000D01*
X226989000Y-43696000D02*
X226989000Y-24296000D01*
X231989000Y-39116000D02*
X231389000Y-39116000D01*
X226989000Y-39116000D02*
X227589000Y-39116000D01*
X231989000Y-43696000D02*
X231689000Y-43696000D01*
X231989000Y-24296000D02*
X231389000Y-24296000D01*
X226989000Y-43696000D02*
X227289000Y-43696000D01*
X226989000Y-24296000D02*
X227589000Y-24296000D01*
X237577000Y-24296000D02*
X237577000Y-43696000D01*
X232577000Y-43696000D02*
X232577000Y-24296000D01*
X237577000Y-39116000D02*
X236977000Y-39116000D01*
X232577000Y-39116000D02*
X233177000Y-39116000D01*
X237577000Y-43696000D02*
X237277000Y-43696000D01*
X237577000Y-24296000D02*
X236977000Y-24296000D01*
X232577000Y-43696000D02*
X232877000Y-43696000D01*
X232577000Y-24296000D02*
X233177000Y-24296000D01*
X248753000Y-24296000D02*
X248753000Y-43696000D01*
X243753000Y-43696000D02*
X243753000Y-24296000D01*
X248753000Y-39116000D02*
X248153000Y-39116000D01*
X243753000Y-39116000D02*
X244353000Y-39116000D01*
X248753000Y-43696000D02*
X248453000Y-43696000D01*
X248753000Y-24296000D02*
X248153000Y-24296000D01*
X243753000Y-43696000D02*
X244053000Y-43696000D01*
X243753000Y-24296000D02*
X244353000Y-24296000D01*
X243190400Y-24296000D02*
X243190400Y-43696000D01*
X238190400Y-43696000D02*
X238190400Y-24296000D01*
X243190400Y-39116000D02*
X242590400Y-39116000D01*
X238190400Y-39116000D02*
X238790400Y-39116000D01*
X243190400Y-43696000D02*
X242890400Y-43696000D01*
X243190400Y-24296000D02*
X242590400Y-24296000D01*
X238190400Y-43696000D02*
X238490400Y-43696000D01*
X238190400Y-24296000D02*
X238790400Y-24296000D01*
X212284400Y-47976600D02*
X212251066Y-48009933D01*
X212151066Y-48043267D01*
X212084400Y-48043267D01*
X211984400Y-48009933D01*
X211917733Y-47943267D01*
X211884400Y-47876600D01*
X211851066Y-47743267D01*
X211851066Y-47643267D01*
X211884400Y-47509933D01*
X211917733Y-47443267D01*
X211984400Y-47376600D01*
X212084400Y-47343267D01*
X212151066Y-47343267D01*
X212251066Y-47376600D01*
X212284400Y-47409933D01*
X212551066Y-47409933D02*
X212584400Y-47376600D01*
X212651066Y-47343267D01*
X212817733Y-47343267D01*
X212884400Y-47376600D01*
X212917733Y-47409933D01*
X212951066Y-47476600D01*
X212951066Y-47543267D01*
X212917733Y-47643267D01*
X212517733Y-48043267D01*
X212951066Y-48043267D01*
X213551067Y-47343267D02*
X213417733Y-47343267D01*
X213351067Y-47376600D01*
X213317733Y-47409933D01*
X213251067Y-47509933D01*
X213217733Y-47643267D01*
X213217733Y-47909933D01*
X213251067Y-47976600D01*
X213284400Y-48009933D01*
X213351067Y-48043267D01*
X213484400Y-48043267D01*
X213551067Y-48009933D01*
X213584400Y-47976600D01*
X213617733Y-47909933D01*
X213617733Y-47743267D01*
X213584400Y-47676600D01*
X213551067Y-47643267D01*
X213484400Y-47609933D01*
X213351067Y-47609933D01*
X213284400Y-47643267D01*
X213251067Y-47676600D01*
X213217733Y-47743267D01*
X214027600Y-37562600D02*
X213994266Y-37595933D01*
X213894266Y-37629267D01*
X213827600Y-37629267D01*
X213727600Y-37595933D01*
X213660933Y-37529267D01*
X213627600Y-37462600D01*
X213594266Y-37329267D01*
X213594266Y-37229267D01*
X213627600Y-37095933D01*
X213660933Y-37029267D01*
X213727600Y-36962600D01*
X213827600Y-36929267D01*
X213894266Y-36929267D01*
X213994266Y-36962600D01*
X214027600Y-36995933D01*
X214294266Y-36995933D02*
X214327600Y-36962600D01*
X214394266Y-36929267D01*
X214560933Y-36929267D01*
X214627600Y-36962600D01*
X214660933Y-36995933D01*
X214694266Y-37062600D01*
X214694266Y-37129267D01*
X214660933Y-37229267D01*
X214260933Y-37629267D01*
X214694266Y-37629267D01*
X215027600Y-37629267D02*
X215160933Y-37629267D01*
X215227600Y-37595933D01*
X215260933Y-37562600D01*
X215327600Y-37462600D01*
X215360933Y-37329267D01*
X215360933Y-37062600D01*
X215327600Y-36995933D01*
X215294267Y-36962600D01*
X215227600Y-36929267D01*
X215094267Y-36929267D01*
X215027600Y-36962600D01*
X214994267Y-36995933D01*
X214960933Y-37062600D01*
X214960933Y-37229267D01*
X214994267Y-37295933D01*
X215027600Y-37329267D01*
X215094267Y-37362600D01*
X215227600Y-37362600D01*
X215294267Y-37329267D01*
X215327600Y-37295933D01*
X215360933Y-37229267D01*
X219666400Y-38350000D02*
X219633066Y-38383333D01*
X219533066Y-38416667D01*
X219466400Y-38416667D01*
X219366400Y-38383333D01*
X219299733Y-38316667D01*
X219266400Y-38250000D01*
X219233066Y-38116667D01*
X219233066Y-38016667D01*
X219266400Y-37883333D01*
X219299733Y-37816667D01*
X219366400Y-37750000D01*
X219466400Y-37716667D01*
X219533066Y-37716667D01*
X219633066Y-37750000D01*
X219666400Y-37783333D01*
X219933066Y-37783333D02*
X219966400Y-37750000D01*
X220033066Y-37716667D01*
X220199733Y-37716667D01*
X220266400Y-37750000D01*
X220299733Y-37783333D01*
X220333066Y-37850000D01*
X220333066Y-37916667D01*
X220299733Y-38016667D01*
X219899733Y-38416667D01*
X220333066Y-38416667D01*
X220966400Y-37716667D02*
X220633067Y-37716667D01*
X220599733Y-38050000D01*
X220633067Y-38016667D01*
X220699733Y-37983333D01*
X220866400Y-37983333D01*
X220933067Y-38016667D01*
X220966400Y-38050000D01*
X220999733Y-38116667D01*
X220999733Y-38283333D01*
X220966400Y-38350000D01*
X220933067Y-38383333D01*
X220866400Y-38416667D01*
X220699733Y-38416667D01*
X220633067Y-38383333D01*
X220599733Y-38350000D01*
X200718000Y-63597600D02*
X200684666Y-63630933D01*
X200584666Y-63664267D01*
X200518000Y-63664267D01*
X200418000Y-63630933D01*
X200351333Y-63564267D01*
X200318000Y-63497600D01*
X200284666Y-63364267D01*
X200284666Y-63264267D01*
X200318000Y-63130933D01*
X200351333Y-63064267D01*
X200418000Y-62997600D01*
X200518000Y-62964267D01*
X200584666Y-62964267D01*
X200684666Y-62997600D01*
X200718000Y-63030933D01*
X201384666Y-63664267D02*
X200984666Y-63664267D01*
X201184666Y-63664267D02*
X201184666Y-62964267D01*
X201118000Y-63064267D01*
X201051333Y-63130933D01*
X200984666Y-63164267D01*
X202018000Y-62964267D02*
X201684667Y-62964267D01*
X201651333Y-63297600D01*
X201684667Y-63264267D01*
X201751333Y-63230933D01*
X201918000Y-63230933D01*
X201984667Y-63264267D01*
X202018000Y-63297600D01*
X202051333Y-63364267D01*
X202051333Y-63530933D01*
X202018000Y-63597600D01*
X201984667Y-63630933D01*
X201918000Y-63664267D01*
X201751333Y-63664267D01*
X201684667Y-63630933D01*
X201651333Y-63597600D01*
X203718334Y-53174067D02*
X203485000Y-52840733D01*
X203318334Y-53174067D02*
X203318334Y-52474067D01*
X203585000Y-52474067D01*
X203651667Y-52507400D01*
X203685000Y-52540733D01*
X203718334Y-52607400D01*
X203718334Y-52707400D01*
X203685000Y-52774067D01*
X203651667Y-52807400D01*
X203585000Y-52840733D01*
X203318334Y-52840733D01*
X204385000Y-53174067D02*
X203985000Y-53174067D01*
X204185000Y-53174067D02*
X204185000Y-52474067D01*
X204118334Y-52574067D01*
X204051667Y-52640733D01*
X203985000Y-52674067D01*
X200692600Y-53253200D02*
X200659266Y-53286533D01*
X200559266Y-53319867D01*
X200492600Y-53319867D01*
X200392600Y-53286533D01*
X200325933Y-53219867D01*
X200292600Y-53153200D01*
X200259266Y-53019867D01*
X200259266Y-52919867D01*
X200292600Y-52786533D01*
X200325933Y-52719867D01*
X200392600Y-52653200D01*
X200492600Y-52619867D01*
X200559266Y-52619867D01*
X200659266Y-52653200D01*
X200692600Y-52686533D01*
X201359266Y-53319867D02*
X200959266Y-53319867D01*
X201159266Y-53319867D02*
X201159266Y-52619867D01*
X201092600Y-52719867D01*
X201025933Y-52786533D01*
X200959266Y-52819867D01*
X201592600Y-52619867D02*
X202025933Y-52619867D01*
X201792600Y-52886533D01*
X201892600Y-52886533D01*
X201959267Y-52919867D01*
X201992600Y-52953200D01*
X202025933Y-53019867D01*
X202025933Y-53186533D01*
X201992600Y-53253200D01*
X201959267Y-53286533D01*
X201892600Y-53319867D01*
X201692600Y-53319867D01*
X201625933Y-53286533D01*
X201592600Y-53253200D01*
X215262667Y-45237333D02*
X215829333Y-45237333D01*
X215896000Y-45204000D01*
X215929333Y-45170667D01*
X215962667Y-45104000D01*
X215962667Y-44970667D01*
X215929333Y-44904000D01*
X215896000Y-44870667D01*
X215829333Y-44837333D01*
X215262667Y-44837333D01*
X215562667Y-44404000D02*
X215529333Y-44470667D01*
X215496000Y-44504000D01*
X215429333Y-44537334D01*
X215396000Y-44537334D01*
X215329333Y-44504000D01*
X215296000Y-44470667D01*
X215262667Y-44404000D01*
X215262667Y-44270667D01*
X215296000Y-44204000D01*
X215329333Y-44170667D01*
X215396000Y-44137334D01*
X215429333Y-44137334D01*
X215496000Y-44170667D01*
X215529333Y-44204000D01*
X215562667Y-44270667D01*
X215562667Y-44404000D01*
X215596000Y-44470667D01*
X215629333Y-44504000D01*
X215696000Y-44537334D01*
X215829333Y-44537334D01*
X215896000Y-44504000D01*
X215929333Y-44470667D01*
X215962667Y-44404000D01*
X215962667Y-44270667D01*
X215929333Y-44204000D01*
X215896000Y-44170667D01*
X215829333Y-44137334D01*
X215696000Y-44137334D01*
X215629333Y-44170667D01*
X215596000Y-44204000D01*
X215562667Y-44270667D01*
X206385334Y-53174067D02*
X206152000Y-52840733D01*
X205985334Y-53174067D02*
X205985334Y-52474067D01*
X206252000Y-52474067D01*
X206318667Y-52507400D01*
X206352000Y-52540733D01*
X206385334Y-52607400D01*
X206385334Y-52707400D01*
X206352000Y-52774067D01*
X206318667Y-52807400D01*
X206252000Y-52840733D01*
X205985334Y-52840733D01*
X206985334Y-52474067D02*
X206852000Y-52474067D01*
X206785334Y-52507400D01*
X206752000Y-52540733D01*
X206685334Y-52640733D01*
X206652000Y-52774067D01*
X206652000Y-53040733D01*
X206685334Y-53107400D01*
X206718667Y-53140733D01*
X206785334Y-53174067D01*
X206918667Y-53174067D01*
X206985334Y-53140733D01*
X207018667Y-53107400D01*
X207052000Y-53040733D01*
X207052000Y-52874067D01*
X207018667Y-52807400D01*
X206985334Y-52774067D01*
X206918667Y-52740733D01*
X206785334Y-52740733D01*
X206718667Y-52774067D01*
X206685334Y-52807400D01*
X206652000Y-52874067D01*
X211273200Y-58507800D02*
X211306533Y-58541134D01*
X211339867Y-58641134D01*
X211339867Y-58707800D01*
X211306533Y-58807800D01*
X211239867Y-58874467D01*
X211173200Y-58907800D01*
X211039867Y-58941134D01*
X210939867Y-58941134D01*
X210806533Y-58907800D01*
X210739867Y-58874467D01*
X210673200Y-58807800D01*
X210639867Y-58707800D01*
X210639867Y-58641134D01*
X210673200Y-58541134D01*
X210706533Y-58507800D01*
X211339867Y-57841134D02*
X211339867Y-58241134D01*
X211339867Y-58041134D02*
X210639867Y-58041134D01*
X210739867Y-58107800D01*
X210806533Y-58174467D01*
X210839867Y-58241134D01*
X210873200Y-57241133D02*
X211339867Y-57241133D01*
X210606533Y-57407800D02*
X211106533Y-57574467D01*
X211106533Y-57141133D01*
X205917867Y-46860667D02*
X205917867Y-47427333D01*
X205951200Y-47494000D01*
X205984533Y-47527333D01*
X206051200Y-47560667D01*
X206184533Y-47560667D01*
X206251200Y-47527333D01*
X206284533Y-47494000D01*
X206317867Y-47427333D01*
X206317867Y-46860667D01*
X206584533Y-46860667D02*
X207051200Y-46860667D01*
X206751200Y-47560667D01*
X207822867Y-34668667D02*
X207822867Y-35235333D01*
X207856200Y-35302000D01*
X207889533Y-35335333D01*
X207956200Y-35368667D01*
X208089533Y-35368667D01*
X208156200Y-35335333D01*
X208189533Y-35302000D01*
X208222867Y-35235333D01*
X208222867Y-34668667D01*
X208589533Y-35368667D02*
X208722866Y-35368667D01*
X208789533Y-35335333D01*
X208822866Y-35302000D01*
X208889533Y-35202000D01*
X208922866Y-35068667D01*
X208922866Y-34802000D01*
X208889533Y-34735333D01*
X208856200Y-34702000D01*
X208789533Y-34668667D01*
X208656200Y-34668667D01*
X208589533Y-34702000D01*
X208556200Y-34735333D01*
X208522866Y-34802000D01*
X208522866Y-34968667D01*
X208556200Y-35035333D01*
X208589533Y-35068667D01*
X208656200Y-35102000D01*
X208789533Y-35102000D01*
X208856200Y-35068667D01*
X208889533Y-35035333D01*
X208922866Y-34968667D01*
X214027600Y-43242667D02*
X213794266Y-42909333D01*
X213627600Y-43242667D02*
X213627600Y-42542667D01*
X213894266Y-42542667D01*
X213960933Y-42576000D01*
X213994266Y-42609333D01*
X214027600Y-42676000D01*
X214027600Y-42776000D01*
X213994266Y-42842667D01*
X213960933Y-42876000D01*
X213894266Y-42909333D01*
X213627600Y-42909333D01*
X214694266Y-43242667D02*
X214294266Y-43242667D01*
X214494266Y-43242667D02*
X214494266Y-42542667D01*
X214427600Y-42642667D01*
X214360933Y-42709333D01*
X214294266Y-42742667D01*
X214927600Y-42542667D02*
X215394267Y-42542667D01*
X215094267Y-43242667D01*
X225620333Y-48130667D02*
X226087000Y-48830667D01*
X226087000Y-48130667D02*
X225620333Y-48830667D01*
X226720333Y-48830667D02*
X226320333Y-48830667D01*
X226520333Y-48830667D02*
X226520333Y-48130667D01*
X226453667Y-48230667D01*
X226387000Y-48297333D01*
X226320333Y-48330667D01*
X230642334Y-59940000D02*
X230609000Y-59973333D01*
X230509000Y-60006667D01*
X230442334Y-60006667D01*
X230342334Y-59973333D01*
X230275667Y-59906667D01*
X230242334Y-59840000D01*
X230209000Y-59706667D01*
X230209000Y-59606667D01*
X230242334Y-59473333D01*
X230275667Y-59406667D01*
X230342334Y-59340000D01*
X230442334Y-59306667D01*
X230509000Y-59306667D01*
X230609000Y-59340000D01*
X230642334Y-59373333D01*
X230909000Y-59373333D02*
X230942334Y-59340000D01*
X231009000Y-59306667D01*
X231175667Y-59306667D01*
X231242334Y-59340000D01*
X231275667Y-59373333D01*
X231309000Y-59440000D01*
X231309000Y-59506667D01*
X231275667Y-59606667D01*
X230875667Y-60006667D01*
X231309000Y-60006667D01*
X218958334Y-59940000D02*
X218925000Y-59973333D01*
X218825000Y-60006667D01*
X218758334Y-60006667D01*
X218658334Y-59973333D01*
X218591667Y-59906667D01*
X218558334Y-59840000D01*
X218525000Y-59706667D01*
X218525000Y-59606667D01*
X218558334Y-59473333D01*
X218591667Y-59406667D01*
X218658334Y-59340000D01*
X218758334Y-59306667D01*
X218825000Y-59306667D01*
X218925000Y-59340000D01*
X218958334Y-59373333D01*
X219191667Y-59306667D02*
X219625000Y-59306667D01*
X219391667Y-59573333D01*
X219491667Y-59573333D01*
X219558334Y-59606667D01*
X219591667Y-59640000D01*
X219625000Y-59706667D01*
X219625000Y-59873333D01*
X219591667Y-59940000D01*
X219558334Y-59973333D01*
X219491667Y-60006667D01*
X219291667Y-60006667D01*
X219225000Y-59973333D01*
X219191667Y-59940000D01*
X217053334Y-65020000D02*
X217020000Y-65053333D01*
X216920000Y-65086667D01*
X216853334Y-65086667D01*
X216753334Y-65053333D01*
X216686667Y-64986667D01*
X216653334Y-64920000D01*
X216620000Y-64786667D01*
X216620000Y-64686667D01*
X216653334Y-64553333D01*
X216686667Y-64486667D01*
X216753334Y-64420000D01*
X216853334Y-64386667D01*
X216920000Y-64386667D01*
X217020000Y-64420000D01*
X217053334Y-64453333D01*
X217653334Y-64620000D02*
X217653334Y-65086667D01*
X217486667Y-64353333D02*
X217320000Y-64853333D01*
X217753334Y-64853333D01*
X230642334Y-67052000D02*
X230609000Y-67085333D01*
X230509000Y-67118667D01*
X230442334Y-67118667D01*
X230342334Y-67085333D01*
X230275667Y-67018667D01*
X230242334Y-66952000D01*
X230209000Y-66818667D01*
X230209000Y-66718667D01*
X230242334Y-66585333D01*
X230275667Y-66518667D01*
X230342334Y-66452000D01*
X230442334Y-66418667D01*
X230509000Y-66418667D01*
X230609000Y-66452000D01*
X230642334Y-66485333D01*
X231275667Y-66418667D02*
X230942334Y-66418667D01*
X230909000Y-66752000D01*
X230942334Y-66718667D01*
X231009000Y-66685333D01*
X231175667Y-66685333D01*
X231242334Y-66718667D01*
X231275667Y-66752000D01*
X231309000Y-66818667D01*
X231309000Y-66985333D01*
X231275667Y-67052000D01*
X231242334Y-67085333D01*
X231175667Y-67118667D01*
X231009000Y-67118667D01*
X230942334Y-67085333D01*
X230909000Y-67052000D01*
X220228334Y-69973000D02*
X220195000Y-70006333D01*
X220095000Y-70039667D01*
X220028334Y-70039667D01*
X219928334Y-70006333D01*
X219861667Y-69939667D01*
X219828334Y-69873000D01*
X219795000Y-69739667D01*
X219795000Y-69639667D01*
X219828334Y-69506333D01*
X219861667Y-69439667D01*
X219928334Y-69373000D01*
X220028334Y-69339667D01*
X220095000Y-69339667D01*
X220195000Y-69373000D01*
X220228334Y-69406333D01*
X220828334Y-69339667D02*
X220695000Y-69339667D01*
X220628334Y-69373000D01*
X220595000Y-69406333D01*
X220528334Y-69506333D01*
X220495000Y-69639667D01*
X220495000Y-69906333D01*
X220528334Y-69973000D01*
X220561667Y-70006333D01*
X220628334Y-70039667D01*
X220761667Y-70039667D01*
X220828334Y-70006333D01*
X220861667Y-69973000D01*
X220895000Y-69906333D01*
X220895000Y-69739667D01*
X220861667Y-69673000D01*
X220828334Y-69639667D01*
X220761667Y-69606333D01*
X220628334Y-69606333D01*
X220561667Y-69639667D01*
X220528334Y-69673000D01*
X220495000Y-69739667D01*
X230642334Y-69973000D02*
X230609000Y-70006333D01*
X230509000Y-70039667D01*
X230442334Y-70039667D01*
X230342334Y-70006333D01*
X230275667Y-69939667D01*
X230242334Y-69873000D01*
X230209000Y-69739667D01*
X230209000Y-69639667D01*
X230242334Y-69506333D01*
X230275667Y-69439667D01*
X230342334Y-69373000D01*
X230442334Y-69339667D01*
X230509000Y-69339667D01*
X230609000Y-69373000D01*
X230642334Y-69406333D01*
X230875667Y-69339667D02*
X231342334Y-69339667D01*
X231042334Y-70039667D01*
X246517334Y-61337000D02*
X246484000Y-61370333D01*
X246384000Y-61403667D01*
X246317334Y-61403667D01*
X246217334Y-61370333D01*
X246150667Y-61303667D01*
X246117334Y-61237000D01*
X246084000Y-61103667D01*
X246084000Y-61003667D01*
X246117334Y-60870333D01*
X246150667Y-60803667D01*
X246217334Y-60737000D01*
X246317334Y-60703667D01*
X246384000Y-60703667D01*
X246484000Y-60737000D01*
X246517334Y-60770333D01*
X246850667Y-61403667D02*
X246984000Y-61403667D01*
X247050667Y-61370333D01*
X247084000Y-61337000D01*
X247150667Y-61237000D01*
X247184000Y-61103667D01*
X247184000Y-60837000D01*
X247150667Y-60770333D01*
X247117334Y-60737000D01*
X247050667Y-60703667D01*
X246917334Y-60703667D01*
X246850667Y-60737000D01*
X246817334Y-60770333D01*
X246784000Y-60837000D01*
X246784000Y-61003667D01*
X246817334Y-61070333D01*
X246850667Y-61103667D01*
X246917334Y-61137000D01*
X247050667Y-61137000D01*
X247117334Y-61103667D01*
X247150667Y-61070333D01*
X247184000Y-61003667D01*
X239072000Y-61337000D02*
X239038666Y-61370333D01*
X238938666Y-61403667D01*
X238872000Y-61403667D01*
X238772000Y-61370333D01*
X238705333Y-61303667D01*
X238672000Y-61237000D01*
X238638666Y-61103667D01*
X238638666Y-61003667D01*
X238672000Y-60870333D01*
X238705333Y-60803667D01*
X238772000Y-60737000D01*
X238872000Y-60703667D01*
X238938666Y-60703667D01*
X239038666Y-60737000D01*
X239072000Y-60770333D01*
X239738666Y-61403667D02*
X239338666Y-61403667D01*
X239538666Y-61403667D02*
X239538666Y-60703667D01*
X239472000Y-60803667D01*
X239405333Y-60870333D01*
X239338666Y-60903667D01*
X240172000Y-60703667D02*
X240238667Y-60703667D01*
X240305333Y-60737000D01*
X240338667Y-60770333D01*
X240372000Y-60837000D01*
X240405333Y-60970333D01*
X240405333Y-61137000D01*
X240372000Y-61270333D01*
X240338667Y-61337000D01*
X240305333Y-61370333D01*
X240238667Y-61403667D01*
X240172000Y-61403667D01*
X240105333Y-61370333D01*
X240072000Y-61337000D01*
X240038667Y-61270333D01*
X240005333Y-61137000D01*
X240005333Y-60970333D01*
X240038667Y-60837000D01*
X240072000Y-60770333D01*
X240105333Y-60737000D01*
X240172000Y-60703667D01*
X218055000Y-72078000D02*
X218088333Y-72111334D01*
X218121667Y-72211334D01*
X218121667Y-72278000D01*
X218088333Y-72378000D01*
X218021667Y-72444667D01*
X217955000Y-72478000D01*
X217821667Y-72511334D01*
X217721667Y-72511334D01*
X217588333Y-72478000D01*
X217521667Y-72444667D01*
X217455000Y-72378000D01*
X217421667Y-72278000D01*
X217421667Y-72211334D01*
X217455000Y-72111334D01*
X217488333Y-72078000D01*
X218121667Y-71411334D02*
X218121667Y-71811334D01*
X218121667Y-71611334D02*
X217421667Y-71611334D01*
X217521667Y-71678000D01*
X217588333Y-71744667D01*
X217621667Y-71811334D01*
X218121667Y-70744667D02*
X218121667Y-71144667D01*
X218121667Y-70944667D02*
X217421667Y-70944667D01*
X217521667Y-71011333D01*
X217588333Y-71078000D01*
X217621667Y-71144667D01*
X214688000Y-62353000D02*
X214654666Y-62386333D01*
X214554666Y-62419667D01*
X214488000Y-62419667D01*
X214388000Y-62386333D01*
X214321333Y-62319667D01*
X214288000Y-62253000D01*
X214254666Y-62119667D01*
X214254666Y-62019667D01*
X214288000Y-61886333D01*
X214321333Y-61819667D01*
X214388000Y-61753000D01*
X214488000Y-61719667D01*
X214554666Y-61719667D01*
X214654666Y-61753000D01*
X214688000Y-61786333D01*
X215354666Y-62419667D02*
X214954666Y-62419667D01*
X215154666Y-62419667D02*
X215154666Y-61719667D01*
X215088000Y-61819667D01*
X215021333Y-61886333D01*
X214954666Y-61919667D01*
X215621333Y-61786333D02*
X215654667Y-61753000D01*
X215721333Y-61719667D01*
X215888000Y-61719667D01*
X215954667Y-61753000D01*
X215988000Y-61786333D01*
X216021333Y-61853000D01*
X216021333Y-61919667D01*
X215988000Y-62019667D01*
X215588000Y-62419667D01*
X216021333Y-62419667D01*
X206077400Y-63597600D02*
X206044066Y-63630933D01*
X205944066Y-63664267D01*
X205877400Y-63664267D01*
X205777400Y-63630933D01*
X205710733Y-63564267D01*
X205677400Y-63497600D01*
X205644066Y-63364267D01*
X205644066Y-63264267D01*
X205677400Y-63130933D01*
X205710733Y-63064267D01*
X205777400Y-62997600D01*
X205877400Y-62964267D01*
X205944066Y-62964267D01*
X206044066Y-62997600D01*
X206077400Y-63030933D01*
X206744066Y-63664267D02*
X206344066Y-63664267D01*
X206544066Y-63664267D02*
X206544066Y-62964267D01*
X206477400Y-63064267D01*
X206410733Y-63130933D01*
X206344066Y-63164267D01*
X207344067Y-62964267D02*
X207210733Y-62964267D01*
X207144067Y-62997600D01*
X207110733Y-63030933D01*
X207044067Y-63130933D01*
X207010733Y-63264267D01*
X207010733Y-63530933D01*
X207044067Y-63597600D01*
X207077400Y-63630933D01*
X207144067Y-63664267D01*
X207277400Y-63664267D01*
X207344067Y-63630933D01*
X207377400Y-63597600D01*
X207410733Y-63530933D01*
X207410733Y-63364267D01*
X207377400Y-63297600D01*
X207344067Y-63264267D01*
X207277400Y-63230933D01*
X207144067Y-63230933D01*
X207077400Y-63264267D01*
X207044067Y-63297600D01*
X207010733Y-63364267D01*
X221546000Y-47875000D02*
X221512666Y-47908333D01*
X221412666Y-47941667D01*
X221346000Y-47941667D01*
X221246000Y-47908333D01*
X221179333Y-47841667D01*
X221146000Y-47775000D01*
X221112666Y-47641667D01*
X221112666Y-47541667D01*
X221146000Y-47408333D01*
X221179333Y-47341667D01*
X221246000Y-47275000D01*
X221346000Y-47241667D01*
X221412666Y-47241667D01*
X221512666Y-47275000D01*
X221546000Y-47308333D01*
X222212666Y-47941667D02*
X221812666Y-47941667D01*
X222012666Y-47941667D02*
X222012666Y-47241667D01*
X221946000Y-47341667D01*
X221879333Y-47408333D01*
X221812666Y-47441667D01*
X222546000Y-47941667D02*
X222679333Y-47941667D01*
X222746000Y-47908333D01*
X222779333Y-47875000D01*
X222846000Y-47775000D01*
X222879333Y-47641667D01*
X222879333Y-47375000D01*
X222846000Y-47308333D01*
X222812667Y-47275000D01*
X222746000Y-47241667D01*
X222612667Y-47241667D01*
X222546000Y-47275000D01*
X222512667Y-47308333D01*
X222479333Y-47375000D01*
X222479333Y-47541667D01*
X222512667Y-47608333D01*
X222546000Y-47641667D01*
X222612667Y-47675000D01*
X222746000Y-47675000D01*
X222812667Y-47641667D01*
X222846000Y-47608333D01*
X222879333Y-47541667D01*
X232468000Y-53590000D02*
X232434666Y-53623333D01*
X232334666Y-53656667D01*
X232268000Y-53656667D01*
X232168000Y-53623333D01*
X232101333Y-53556667D01*
X232068000Y-53490000D01*
X232034666Y-53356667D01*
X232034666Y-53256667D01*
X232068000Y-53123333D01*
X232101333Y-53056667D01*
X232168000Y-52990000D01*
X232268000Y-52956667D01*
X232334666Y-52956667D01*
X232434666Y-52990000D01*
X232468000Y-53023333D01*
X233134666Y-53656667D02*
X232734666Y-53656667D01*
X232934666Y-53656667D02*
X232934666Y-52956667D01*
X232868000Y-53056667D01*
X232801333Y-53123333D01*
X232734666Y-53156667D01*
X233368000Y-52956667D02*
X233834667Y-52956667D01*
X233534667Y-53656667D01*
X232468000Y-48637000D02*
X232434666Y-48670333D01*
X232334666Y-48703667D01*
X232268000Y-48703667D01*
X232168000Y-48670333D01*
X232101333Y-48603667D01*
X232068000Y-48537000D01*
X232034666Y-48403667D01*
X232034666Y-48303667D01*
X232068000Y-48170333D01*
X232101333Y-48103667D01*
X232168000Y-48037000D01*
X232268000Y-48003667D01*
X232334666Y-48003667D01*
X232434666Y-48037000D01*
X232468000Y-48070333D01*
X233134666Y-48703667D02*
X232734666Y-48703667D01*
X232934666Y-48703667D02*
X232934666Y-48003667D01*
X232868000Y-48103667D01*
X232801333Y-48170333D01*
X232734666Y-48203667D01*
X233534667Y-48303667D02*
X233468000Y-48270333D01*
X233434667Y-48237000D01*
X233401333Y-48170333D01*
X233401333Y-48137000D01*
X233434667Y-48070333D01*
X233468000Y-48037000D01*
X233534667Y-48003667D01*
X233668000Y-48003667D01*
X233734667Y-48037000D01*
X233768000Y-48070333D01*
X233801333Y-48137000D01*
X233801333Y-48170333D01*
X233768000Y-48237000D01*
X233734667Y-48270333D01*
X233668000Y-48303667D01*
X233534667Y-48303667D01*
X233468000Y-48337000D01*
X233434667Y-48370333D01*
X233401333Y-48437000D01*
X233401333Y-48570333D01*
X233434667Y-48637000D01*
X233468000Y-48670333D01*
X233534667Y-48703667D01*
X233668000Y-48703667D01*
X233734667Y-48670333D01*
X233768000Y-48637000D01*
X233801333Y-48570333D01*
X233801333Y-48437000D01*
X233768000Y-48370333D01*
X233734667Y-48337000D01*
X233668000Y-48303667D01*
X216212000Y-52878800D02*
X216178666Y-52912133D01*
X216078666Y-52945467D01*
X216012000Y-52945467D01*
X215912000Y-52912133D01*
X215845333Y-52845467D01*
X215812000Y-52778800D01*
X215778666Y-52645467D01*
X215778666Y-52545467D01*
X215812000Y-52412133D01*
X215845333Y-52345467D01*
X215912000Y-52278800D01*
X216012000Y-52245467D01*
X216078666Y-52245467D01*
X216178666Y-52278800D01*
X216212000Y-52312133D01*
X216478666Y-52312133D02*
X216512000Y-52278800D01*
X216578666Y-52245467D01*
X216745333Y-52245467D01*
X216812000Y-52278800D01*
X216845333Y-52312133D01*
X216878666Y-52378800D01*
X216878666Y-52445467D01*
X216845333Y-52545467D01*
X216445333Y-52945467D01*
X216878666Y-52945467D01*
X217312000Y-52245467D02*
X217378667Y-52245467D01*
X217445333Y-52278800D01*
X217478667Y-52312133D01*
X217512000Y-52378800D01*
X217545333Y-52512133D01*
X217545333Y-52678800D01*
X217512000Y-52812133D01*
X217478667Y-52878800D01*
X217445333Y-52912133D01*
X217378667Y-52945467D01*
X217312000Y-52945467D01*
X217245333Y-52912133D01*
X217212000Y-52878800D01*
X217178667Y-52812133D01*
X217145333Y-52678800D01*
X217145333Y-52512133D01*
X217178667Y-52378800D01*
X217212000Y-52312133D01*
X217245333Y-52278800D01*
X217312000Y-52245467D01*
X213418000Y-52116800D02*
X213384666Y-52150133D01*
X213284666Y-52183467D01*
X213218000Y-52183467D01*
X213118000Y-52150133D01*
X213051333Y-52083467D01*
X213018000Y-52016800D01*
X212984666Y-51883467D01*
X212984666Y-51783467D01*
X213018000Y-51650133D01*
X213051333Y-51583467D01*
X213118000Y-51516800D01*
X213218000Y-51483467D01*
X213284666Y-51483467D01*
X213384666Y-51516800D01*
X213418000Y-51550133D01*
X213684666Y-51550133D02*
X213718000Y-51516800D01*
X213784666Y-51483467D01*
X213951333Y-51483467D01*
X214018000Y-51516800D01*
X214051333Y-51550133D01*
X214084666Y-51616800D01*
X214084666Y-51683467D01*
X214051333Y-51783467D01*
X213651333Y-52183467D01*
X214084666Y-52183467D01*
X214751333Y-52183467D02*
X214351333Y-52183467D01*
X214551333Y-52183467D02*
X214551333Y-51483467D01*
X214484667Y-51583467D01*
X214418000Y-51650133D01*
X214351333Y-51683467D01*
X200591000Y-48662400D02*
X200557666Y-48695733D01*
X200457666Y-48729067D01*
X200391000Y-48729067D01*
X200291000Y-48695733D01*
X200224333Y-48629067D01*
X200191000Y-48562400D01*
X200157666Y-48429067D01*
X200157666Y-48329067D01*
X200191000Y-48195733D01*
X200224333Y-48129067D01*
X200291000Y-48062400D01*
X200391000Y-48029067D01*
X200457666Y-48029067D01*
X200557666Y-48062400D01*
X200591000Y-48095733D01*
X200857666Y-48095733D02*
X200891000Y-48062400D01*
X200957666Y-48029067D01*
X201124333Y-48029067D01*
X201191000Y-48062400D01*
X201224333Y-48095733D01*
X201257666Y-48162400D01*
X201257666Y-48229067D01*
X201224333Y-48329067D01*
X200824333Y-48729067D01*
X201257666Y-48729067D01*
X201524333Y-48095733D02*
X201557667Y-48062400D01*
X201624333Y-48029067D01*
X201791000Y-48029067D01*
X201857667Y-48062400D01*
X201891000Y-48095733D01*
X201924333Y-48162400D01*
X201924333Y-48229067D01*
X201891000Y-48329067D01*
X201491000Y-48729067D01*
X201924333Y-48729067D01*
X212284400Y-44877800D02*
X212251066Y-44911133D01*
X212151066Y-44944467D01*
X212084400Y-44944467D01*
X211984400Y-44911133D01*
X211917733Y-44844467D01*
X211884400Y-44777800D01*
X211851066Y-44644467D01*
X211851066Y-44544467D01*
X211884400Y-44411133D01*
X211917733Y-44344467D01*
X211984400Y-44277800D01*
X212084400Y-44244467D01*
X212151066Y-44244467D01*
X212251066Y-44277800D01*
X212284400Y-44311133D01*
X212551066Y-44311133D02*
X212584400Y-44277800D01*
X212651066Y-44244467D01*
X212817733Y-44244467D01*
X212884400Y-44277800D01*
X212917733Y-44311133D01*
X212951066Y-44377800D01*
X212951066Y-44444467D01*
X212917733Y-44544467D01*
X212517733Y-44944467D01*
X212951066Y-44944467D01*
X213184400Y-44244467D02*
X213617733Y-44244467D01*
X213384400Y-44511133D01*
X213484400Y-44511133D01*
X213551067Y-44544467D01*
X213584400Y-44577800D01*
X213617733Y-44644467D01*
X213617733Y-44811133D01*
X213584400Y-44877800D01*
X213551067Y-44911133D01*
X213484400Y-44944467D01*
X213284400Y-44944467D01*
X213217733Y-44911133D01*
X213184400Y-44877800D01*
X205054800Y-39797800D02*
X205021466Y-39831133D01*
X204921466Y-39864467D01*
X204854800Y-39864467D01*
X204754800Y-39831133D01*
X204688133Y-39764467D01*
X204654800Y-39697800D01*
X204621466Y-39564467D01*
X204621466Y-39464467D01*
X204654800Y-39331133D01*
X204688133Y-39264467D01*
X204754800Y-39197800D01*
X204854800Y-39164467D01*
X204921466Y-39164467D01*
X205021466Y-39197800D01*
X205054800Y-39231133D01*
X205321466Y-39231133D02*
X205354800Y-39197800D01*
X205421466Y-39164467D01*
X205588133Y-39164467D01*
X205654800Y-39197800D01*
X205688133Y-39231133D01*
X205721466Y-39297800D01*
X205721466Y-39364467D01*
X205688133Y-39464467D01*
X205288133Y-39864467D01*
X205721466Y-39864467D01*
X206321467Y-39397800D02*
X206321467Y-39864467D01*
X206154800Y-39131133D02*
X205988133Y-39631133D01*
X206421467Y-39631133D01*
X212873400Y-33622400D02*
X212906733Y-33655734D01*
X212940067Y-33755734D01*
X212940067Y-33822400D01*
X212906733Y-33922400D01*
X212840067Y-33989067D01*
X212773400Y-34022400D01*
X212640067Y-34055734D01*
X212540067Y-34055734D01*
X212406733Y-34022400D01*
X212340067Y-33989067D01*
X212273400Y-33922400D01*
X212240067Y-33822400D01*
X212240067Y-33755734D01*
X212273400Y-33655734D01*
X212306733Y-33622400D01*
X212306733Y-33355734D02*
X212273400Y-33322400D01*
X212240067Y-33255734D01*
X212240067Y-33089067D01*
X212273400Y-33022400D01*
X212306733Y-32989067D01*
X212373400Y-32955734D01*
X212440067Y-32955734D01*
X212540067Y-32989067D01*
X212940067Y-33389067D01*
X212940067Y-32955734D01*
X212240067Y-32722400D02*
X212240067Y-32255733D01*
X212940067Y-32555733D01*
X204313600Y-38931000D02*
X204346933Y-38964334D01*
X204380267Y-39064334D01*
X204380267Y-39131000D01*
X204346933Y-39231000D01*
X204280267Y-39297667D01*
X204213600Y-39331000D01*
X204080267Y-39364334D01*
X203980267Y-39364334D01*
X203846933Y-39331000D01*
X203780267Y-39297667D01*
X203713600Y-39231000D01*
X203680267Y-39131000D01*
X203680267Y-39064334D01*
X203713600Y-38964334D01*
X203746933Y-38931000D01*
X203746933Y-38664334D02*
X203713600Y-38631000D01*
X203680267Y-38564334D01*
X203680267Y-38397667D01*
X203713600Y-38331000D01*
X203746933Y-38297667D01*
X203813600Y-38264334D01*
X203880267Y-38264334D01*
X203980267Y-38297667D01*
X204380267Y-38697667D01*
X204380267Y-38264334D01*
X203980267Y-37864333D02*
X203946933Y-37931000D01*
X203913600Y-37964333D01*
X203846933Y-37997667D01*
X203813600Y-37997667D01*
X203746933Y-37964333D01*
X203713600Y-37931000D01*
X203680267Y-37864333D01*
X203680267Y-37731000D01*
X203713600Y-37664333D01*
X203746933Y-37631000D01*
X203813600Y-37597667D01*
X203846933Y-37597667D01*
X203913600Y-37631000D01*
X203946933Y-37664333D01*
X203980267Y-37731000D01*
X203980267Y-37864333D01*
X204013600Y-37931000D01*
X204046933Y-37964333D01*
X204113600Y-37997667D01*
X204246933Y-37997667D01*
X204313600Y-37964333D01*
X204346933Y-37931000D01*
X204380267Y-37864333D01*
X204380267Y-37731000D01*
X204346933Y-37664333D01*
X204313600Y-37631000D01*
X204246933Y-37597667D01*
X204113600Y-37597667D01*
X204046933Y-37631000D01*
X204013600Y-37664333D01*
X203980267Y-37731000D01*
X224126667Y-62365666D02*
X223426667Y-62365666D01*
X223426667Y-62199000D01*
X223460000Y-62099000D01*
X223526667Y-62032333D01*
X223593333Y-61999000D01*
X223726667Y-61965666D01*
X223826667Y-61965666D01*
X223960000Y-61999000D01*
X224026667Y-62032333D01*
X224093333Y-62099000D01*
X224126667Y-62199000D01*
X224126667Y-62365666D01*
X224126667Y-61299000D02*
X224126667Y-61699000D01*
X224126667Y-61499000D02*
X223426667Y-61499000D01*
X223526667Y-61565666D01*
X223593333Y-61632333D01*
X223626667Y-61699000D01*
X224126667Y-72271666D02*
X223426667Y-72271666D01*
X223426667Y-72105000D01*
X223460000Y-72005000D01*
X223526667Y-71938333D01*
X223593333Y-71905000D01*
X223726667Y-71871666D01*
X223826667Y-71871666D01*
X223960000Y-71905000D01*
X224026667Y-71938333D01*
X224093333Y-72005000D01*
X224126667Y-72105000D01*
X224126667Y-72271666D01*
X223493333Y-71605000D02*
X223460000Y-71571666D01*
X223426667Y-71505000D01*
X223426667Y-71338333D01*
X223460000Y-71271666D01*
X223493333Y-71238333D01*
X223560000Y-71205000D01*
X223626667Y-71205000D01*
X223726667Y-71238333D01*
X224126667Y-71638333D01*
X224126667Y-71205000D01*
X217796334Y-25081667D02*
X217796334Y-24381667D01*
X217963000Y-24381667D01*
X218063000Y-24415000D01*
X218129667Y-24481667D01*
X218163000Y-24548333D01*
X218196334Y-24681667D01*
X218196334Y-24781667D01*
X218163000Y-24915000D01*
X218129667Y-24981667D01*
X218063000Y-25048333D01*
X217963000Y-25081667D01*
X217796334Y-25081667D01*
X218429667Y-24381667D02*
X218863000Y-24381667D01*
X218629667Y-24648333D01*
X218729667Y-24648333D01*
X218796334Y-24681667D01*
X218829667Y-24715000D01*
X218863000Y-24781667D01*
X218863000Y-24948333D01*
X218829667Y-25015000D01*
X218796334Y-25048333D01*
X218729667Y-25081667D01*
X218529667Y-25081667D01*
X218463000Y-25048333D01*
X218429667Y-25015000D01*
X218939334Y-29907667D02*
X218939334Y-29207667D01*
X219106000Y-29207667D01*
X219206000Y-29241000D01*
X219272667Y-29307667D01*
X219306000Y-29374333D01*
X219339334Y-29507667D01*
X219339334Y-29607667D01*
X219306000Y-29741000D01*
X219272667Y-29807667D01*
X219206000Y-29874333D01*
X219106000Y-29907667D01*
X218939334Y-29907667D01*
X219939334Y-29441000D02*
X219939334Y-29907667D01*
X219772667Y-29174333D02*
X219606000Y-29674333D01*
X220039334Y-29674333D01*
X242561334Y-63689667D02*
X242561334Y-62989667D01*
X242828000Y-62989667D01*
X242894667Y-63023000D01*
X242928000Y-63056333D01*
X242961334Y-63123000D01*
X242961334Y-63223000D01*
X242928000Y-63289667D01*
X242894667Y-63323000D01*
X242828000Y-63356333D01*
X242561334Y-63356333D01*
X243628000Y-63689667D02*
X243228000Y-63689667D01*
X243428000Y-63689667D02*
X243428000Y-62989667D01*
X243361334Y-63089667D01*
X243294667Y-63156333D01*
X243228000Y-63189667D01*
X232345667Y-46744666D02*
X231645667Y-46744666D01*
X231645667Y-46478000D01*
X231679000Y-46411333D01*
X231712333Y-46378000D01*
X231779000Y-46344666D01*
X231879000Y-46344666D01*
X231945667Y-46378000D01*
X231979000Y-46411333D01*
X232012333Y-46478000D01*
X232012333Y-46744666D01*
X231645667Y-46111333D02*
X231645667Y-45678000D01*
X231912333Y-45911333D01*
X231912333Y-45811333D01*
X231945667Y-45744666D01*
X231979000Y-45711333D01*
X232045667Y-45678000D01*
X232212333Y-45678000D01*
X232279000Y-45711333D01*
X232312333Y-45744666D01*
X232345667Y-45811333D01*
X232345667Y-46011333D01*
X232312333Y-46078000D01*
X232279000Y-46111333D01*
X210743934Y-62419667D02*
X210510600Y-62086333D01*
X210343934Y-62419667D02*
X210343934Y-61719667D01*
X210610600Y-61719667D01*
X210677267Y-61753000D01*
X210710600Y-61786333D01*
X210743934Y-61853000D01*
X210743934Y-61953000D01*
X210710600Y-62019667D01*
X210677267Y-62053000D01*
X210610600Y-62086333D01*
X210343934Y-62086333D01*
X211010600Y-61786333D02*
X211043934Y-61753000D01*
X211110600Y-61719667D01*
X211277267Y-61719667D01*
X211343934Y-61753000D01*
X211377267Y-61786333D01*
X211410600Y-61853000D01*
X211410600Y-61919667D01*
X211377267Y-62019667D01*
X210977267Y-62419667D01*
X211410600Y-62419667D01*
X203718334Y-63664267D02*
X203485000Y-63330933D01*
X203318334Y-63664267D02*
X203318334Y-62964267D01*
X203585000Y-62964267D01*
X203651667Y-62997600D01*
X203685000Y-63030933D01*
X203718334Y-63097600D01*
X203718334Y-63197600D01*
X203685000Y-63264267D01*
X203651667Y-63297600D01*
X203585000Y-63330933D01*
X203318334Y-63330933D01*
X203951667Y-62964267D02*
X204385000Y-62964267D01*
X204151667Y-63230933D01*
X204251667Y-63230933D01*
X204318334Y-63264267D01*
X204351667Y-63297600D01*
X204385000Y-63364267D01*
X204385000Y-63530933D01*
X204351667Y-63597600D01*
X204318334Y-63630933D01*
X204251667Y-63664267D01*
X204051667Y-63664267D01*
X203985000Y-63630933D01*
X203951667Y-63597600D01*
X224165334Y-38416667D02*
X223932000Y-38083333D01*
X223765334Y-38416667D02*
X223765334Y-37716667D01*
X224032000Y-37716667D01*
X224098667Y-37750000D01*
X224132000Y-37783333D01*
X224165334Y-37850000D01*
X224165334Y-37950000D01*
X224132000Y-38016667D01*
X224098667Y-38050000D01*
X224032000Y-38083333D01*
X223765334Y-38083333D01*
X224765334Y-37950000D02*
X224765334Y-38416667D01*
X224598667Y-37683333D02*
X224432000Y-38183333D01*
X224865334Y-38183333D01*
X200924334Y-40372467D02*
X200691000Y-40039133D01*
X200524334Y-40372467D02*
X200524334Y-39672467D01*
X200791000Y-39672467D01*
X200857667Y-39705800D01*
X200891000Y-39739133D01*
X200924334Y-39805800D01*
X200924334Y-39905800D01*
X200891000Y-39972467D01*
X200857667Y-40005800D01*
X200791000Y-40039133D01*
X200524334Y-40039133D01*
X201557667Y-39672467D02*
X201224334Y-39672467D01*
X201191000Y-40005800D01*
X201224334Y-39972467D01*
X201291000Y-39939133D01*
X201457667Y-39939133D01*
X201524334Y-39972467D01*
X201557667Y-40005800D01*
X201591000Y-40072467D01*
X201591000Y-40239133D01*
X201557667Y-40305800D01*
X201524334Y-40339133D01*
X201457667Y-40372467D01*
X201291000Y-40372467D01*
X201224334Y-40339133D01*
X201191000Y-40305800D01*
X215326134Y-50049867D02*
X215092800Y-49716533D01*
X214926134Y-50049867D02*
X214926134Y-49349867D01*
X215192800Y-49349867D01*
X215259467Y-49383200D01*
X215292800Y-49416533D01*
X215326134Y-49483200D01*
X215326134Y-49583200D01*
X215292800Y-49649867D01*
X215259467Y-49683200D01*
X215192800Y-49716533D01*
X214926134Y-49716533D01*
X215559467Y-49349867D02*
X216026134Y-49349867D01*
X215726134Y-50049867D01*
X200924334Y-44573667D02*
X200691000Y-44240333D01*
X200524334Y-44573667D02*
X200524334Y-43873667D01*
X200791000Y-43873667D01*
X200857667Y-43907000D01*
X200891000Y-43940333D01*
X200924334Y-44007000D01*
X200924334Y-44107000D01*
X200891000Y-44173667D01*
X200857667Y-44207000D01*
X200791000Y-44240333D01*
X200524334Y-44240333D01*
X201324334Y-44173667D02*
X201257667Y-44140333D01*
X201224334Y-44107000D01*
X201191000Y-44040333D01*
X201191000Y-44007000D01*
X201224334Y-43940333D01*
X201257667Y-43907000D01*
X201324334Y-43873667D01*
X201457667Y-43873667D01*
X201524334Y-43907000D01*
X201557667Y-43940333D01*
X201591000Y-44007000D01*
X201591000Y-44040333D01*
X201557667Y-44107000D01*
X201524334Y-44140333D01*
X201457667Y-44173667D01*
X201324334Y-44173667D01*
X201257667Y-44207000D01*
X201224334Y-44240333D01*
X201191000Y-44307000D01*
X201191000Y-44440333D01*
X201224334Y-44507000D01*
X201257667Y-44540333D01*
X201324334Y-44573667D01*
X201457667Y-44573667D01*
X201524334Y-44540333D01*
X201557667Y-44507000D01*
X201591000Y-44440333D01*
X201591000Y-44307000D01*
X201557667Y-44240333D01*
X201524334Y-44207000D01*
X201457667Y-44173667D01*
X209306334Y-52511167D02*
X209073000Y-52177833D01*
X208906334Y-52511167D02*
X208906334Y-51811167D01*
X209173000Y-51811167D01*
X209239667Y-51844500D01*
X209273000Y-51877833D01*
X209306334Y-51944500D01*
X209306334Y-52044500D01*
X209273000Y-52111167D01*
X209239667Y-52144500D01*
X209173000Y-52177833D01*
X208906334Y-52177833D01*
X209639667Y-52511167D02*
X209773000Y-52511167D01*
X209839667Y-52477833D01*
X209873000Y-52444500D01*
X209939667Y-52344500D01*
X209973000Y-52211167D01*
X209973000Y-51944500D01*
X209939667Y-51877833D01*
X209906334Y-51844500D01*
X209839667Y-51811167D01*
X209706334Y-51811167D01*
X209639667Y-51844500D01*
X209606334Y-51877833D01*
X209573000Y-51944500D01*
X209573000Y-52111167D01*
X209606334Y-52177833D01*
X209639667Y-52211167D01*
X209706334Y-52244500D01*
X209839667Y-52244500D01*
X209906334Y-52211167D01*
X209939667Y-52177833D01*
X209973000Y-52111167D01*
X229039000Y-47459067D02*
X228805666Y-47125733D01*
X228639000Y-47459067D02*
X228639000Y-46759067D01*
X228905666Y-46759067D01*
X228972333Y-46792400D01*
X229005666Y-46825733D01*
X229039000Y-46892400D01*
X229039000Y-46992400D01*
X229005666Y-47059067D01*
X228972333Y-47092400D01*
X228905666Y-47125733D01*
X228639000Y-47125733D01*
X229705666Y-47459067D02*
X229305666Y-47459067D01*
X229505666Y-47459067D02*
X229505666Y-46759067D01*
X229439000Y-46859067D01*
X229372333Y-46925733D01*
X229305666Y-46959067D01*
X230139000Y-46759067D02*
X230205667Y-46759067D01*
X230272333Y-46792400D01*
X230305667Y-46825733D01*
X230339000Y-46892400D01*
X230372333Y-47025733D01*
X230372333Y-47192400D01*
X230339000Y-47325733D01*
X230305667Y-47392400D01*
X230272333Y-47425733D01*
X230205667Y-47459067D01*
X230139000Y-47459067D01*
X230072333Y-47425733D01*
X230039000Y-47392400D01*
X230005667Y-47325733D01*
X229972333Y-47192400D01*
X229972333Y-47025733D01*
X230005667Y-46892400D01*
X230039000Y-46825733D01*
X230072333Y-46792400D01*
X230139000Y-46759067D01*
X221292000Y-42988667D02*
X221058666Y-42655333D01*
X220892000Y-42988667D02*
X220892000Y-42288667D01*
X221158666Y-42288667D01*
X221225333Y-42322000D01*
X221258666Y-42355333D01*
X221292000Y-42422000D01*
X221292000Y-42522000D01*
X221258666Y-42588667D01*
X221225333Y-42622000D01*
X221158666Y-42655333D01*
X220892000Y-42655333D01*
X221958666Y-42988667D02*
X221558666Y-42988667D01*
X221758666Y-42988667D02*
X221758666Y-42288667D01*
X221692000Y-42388667D01*
X221625333Y-42455333D01*
X221558666Y-42488667D01*
X222625333Y-42988667D02*
X222225333Y-42988667D01*
X222425333Y-42988667D02*
X222425333Y-42288667D01*
X222358667Y-42388667D01*
X222292000Y-42455333D01*
X222225333Y-42488667D01*
X221165000Y-45884267D02*
X220931666Y-45550933D01*
X220765000Y-45884267D02*
X220765000Y-45184267D01*
X221031666Y-45184267D01*
X221098333Y-45217600D01*
X221131666Y-45250933D01*
X221165000Y-45317600D01*
X221165000Y-45417600D01*
X221131666Y-45484267D01*
X221098333Y-45517600D01*
X221031666Y-45550933D01*
X220765000Y-45550933D01*
X221831666Y-45884267D02*
X221431666Y-45884267D01*
X221631666Y-45884267D02*
X221631666Y-45184267D01*
X221565000Y-45284267D01*
X221498333Y-45350933D01*
X221431666Y-45384267D01*
X222098333Y-45250933D02*
X222131667Y-45217600D01*
X222198333Y-45184267D01*
X222365000Y-45184267D01*
X222431667Y-45217600D01*
X222465000Y-45250933D01*
X222498333Y-45317600D01*
X222498333Y-45384267D01*
X222465000Y-45484267D01*
X222065000Y-45884267D01*
X222498333Y-45884267D01*
X204024667Y-33774800D02*
X203691333Y-34008134D01*
X204024667Y-34174800D02*
X203324667Y-34174800D01*
X203324667Y-33908134D01*
X203358000Y-33841467D01*
X203391333Y-33808134D01*
X203458000Y-33774800D01*
X203558000Y-33774800D01*
X203624667Y-33808134D01*
X203658000Y-33841467D01*
X203691333Y-33908134D01*
X203691333Y-34174800D01*
X204024667Y-33108134D02*
X204024667Y-33508134D01*
X204024667Y-33308134D02*
X203324667Y-33308134D01*
X203424667Y-33374800D01*
X203491333Y-33441467D01*
X203524667Y-33508134D01*
X203324667Y-32874800D02*
X203324667Y-32441467D01*
X203591333Y-32674800D01*
X203591333Y-32574800D01*
X203624667Y-32508133D01*
X203658000Y-32474800D01*
X203724667Y-32441467D01*
X203891333Y-32441467D01*
X203958000Y-32474800D01*
X203991333Y-32508133D01*
X204024667Y-32574800D01*
X204024667Y-32774800D01*
X203991333Y-32841467D01*
X203958000Y-32874800D01*
X204050067Y-36391000D02*
X203716733Y-36624334D01*
X204050067Y-36791000D02*
X203350067Y-36791000D01*
X203350067Y-36524334D01*
X203383400Y-36457667D01*
X203416733Y-36424334D01*
X203483400Y-36391000D01*
X203583400Y-36391000D01*
X203650067Y-36424334D01*
X203683400Y-36457667D01*
X203716733Y-36524334D01*
X203716733Y-36791000D01*
X204050067Y-35724334D02*
X204050067Y-36124334D01*
X204050067Y-35924334D02*
X203350067Y-35924334D01*
X203450067Y-35991000D01*
X203516733Y-36057667D01*
X203550067Y-36124334D01*
X203583400Y-35124333D02*
X204050067Y-35124333D01*
X203316733Y-35291000D02*
X203816733Y-35457667D01*
X203816733Y-35024333D01*
X210497000Y-38696067D02*
X210263666Y-38362733D01*
X210097000Y-38696067D02*
X210097000Y-37996067D01*
X210363666Y-37996067D01*
X210430333Y-38029400D01*
X210463666Y-38062733D01*
X210497000Y-38129400D01*
X210497000Y-38229400D01*
X210463666Y-38296067D01*
X210430333Y-38329400D01*
X210363666Y-38362733D01*
X210097000Y-38362733D01*
X211163666Y-38696067D02*
X210763666Y-38696067D01*
X210963666Y-38696067D02*
X210963666Y-37996067D01*
X210897000Y-38096067D01*
X210830333Y-38162733D01*
X210763666Y-38196067D01*
X211797000Y-37996067D02*
X211463667Y-37996067D01*
X211430333Y-38329400D01*
X211463667Y-38296067D01*
X211530333Y-38262733D01*
X211697000Y-38262733D01*
X211763667Y-38296067D01*
X211797000Y-38329400D01*
X211830333Y-38396067D01*
X211830333Y-38562733D01*
X211797000Y-38629400D01*
X211763667Y-38662733D01*
X211697000Y-38696067D01*
X211530333Y-38696067D01*
X211463667Y-38662733D01*
X211430333Y-38629400D01*
X207703000Y-38670667D02*
X207469666Y-38337333D01*
X207303000Y-38670667D02*
X207303000Y-37970667D01*
X207569666Y-37970667D01*
X207636333Y-38004000D01*
X207669666Y-38037333D01*
X207703000Y-38104000D01*
X207703000Y-38204000D01*
X207669666Y-38270667D01*
X207636333Y-38304000D01*
X207569666Y-38337333D01*
X207303000Y-38337333D01*
X208369666Y-38670667D02*
X207969666Y-38670667D01*
X208169666Y-38670667D02*
X208169666Y-37970667D01*
X208103000Y-38070667D01*
X208036333Y-38137333D01*
X207969666Y-38170667D01*
X208969667Y-37970667D02*
X208836333Y-37970667D01*
X208769667Y-38004000D01*
X208736333Y-38037333D01*
X208669667Y-38137333D01*
X208636333Y-38270667D01*
X208636333Y-38537333D01*
X208669667Y-38604000D01*
X208703000Y-38637333D01*
X208769667Y-38670667D01*
X208903000Y-38670667D01*
X208969667Y-38637333D01*
X209003000Y-38604000D01*
X209036333Y-38537333D01*
X209036333Y-38370667D01*
X209003000Y-38304000D01*
X208969667Y-38270667D01*
X208903000Y-38237333D01*
X208769667Y-38237333D01*
X208703000Y-38270667D01*
X208669667Y-38304000D01*
X208636333Y-38370667D01*
X213067067Y-36137000D02*
X212733733Y-36370334D01*
X213067067Y-36537000D02*
X212367067Y-36537000D01*
X212367067Y-36270334D01*
X212400400Y-36203667D01*
X212433733Y-36170334D01*
X212500400Y-36137000D01*
X212600400Y-36137000D01*
X212667067Y-36170334D01*
X212700400Y-36203667D01*
X212733733Y-36270334D01*
X212733733Y-36537000D01*
X213067067Y-35470334D02*
X213067067Y-35870334D01*
X213067067Y-35670334D02*
X212367067Y-35670334D01*
X212467067Y-35737000D01*
X212533733Y-35803667D01*
X212567067Y-35870334D01*
X212667067Y-35070333D02*
X212633733Y-35137000D01*
X212600400Y-35170333D01*
X212533733Y-35203667D01*
X212500400Y-35203667D01*
X212433733Y-35170333D01*
X212400400Y-35137000D01*
X212367067Y-35070333D01*
X212367067Y-34937000D01*
X212400400Y-34870333D01*
X212433733Y-34837000D01*
X212500400Y-34803667D01*
X212533733Y-34803667D01*
X212600400Y-34837000D01*
X212633733Y-34870333D01*
X212667067Y-34937000D01*
X212667067Y-35070333D01*
X212700400Y-35137000D01*
X212733733Y-35170333D01*
X212800400Y-35203667D01*
X212933733Y-35203667D01*
X213000400Y-35170333D01*
X213033733Y-35137000D01*
X213067067Y-35070333D01*
X213067067Y-34937000D01*
X213033733Y-34870333D01*
X213000400Y-34837000D01*
X212933733Y-34803667D01*
X212800400Y-34803667D01*
X212733733Y-34837000D01*
X212700400Y-34870333D01*
X212667067Y-34937000D01*
X224340000Y-25335667D02*
X224106666Y-25002333D01*
X223940000Y-25335667D02*
X223940000Y-24635667D01*
X224206666Y-24635667D01*
X224273333Y-24669000D01*
X224306666Y-24702333D01*
X224340000Y-24769000D01*
X224340000Y-24869000D01*
X224306666Y-24935667D01*
X224273333Y-24969000D01*
X224206666Y-25002333D01*
X223940000Y-25002333D01*
X225006666Y-25335667D02*
X224606666Y-25335667D01*
X224806666Y-25335667D02*
X224806666Y-24635667D01*
X224740000Y-24735667D01*
X224673333Y-24802333D01*
X224606666Y-24835667D01*
X225340000Y-25335667D02*
X225473333Y-25335667D01*
X225540000Y-25302333D01*
X225573333Y-25269000D01*
X225640000Y-25169000D01*
X225673333Y-25035667D01*
X225673333Y-24769000D01*
X225640000Y-24702333D01*
X225606667Y-24669000D01*
X225540000Y-24635667D01*
X225406667Y-24635667D01*
X225340000Y-24669000D01*
X225306667Y-24702333D01*
X225273333Y-24769000D01*
X225273333Y-24935667D01*
X225306667Y-25002333D01*
X225340000Y-25035667D01*
X225406667Y-25069000D01*
X225540000Y-25069000D01*
X225606667Y-25035667D01*
X225640000Y-25002333D01*
X225673333Y-24935667D01*
X224213000Y-36511667D02*
X223979666Y-36178333D01*
X223813000Y-36511667D02*
X223813000Y-35811667D01*
X224079666Y-35811667D01*
X224146333Y-35845000D01*
X224179666Y-35878333D01*
X224213000Y-35945000D01*
X224213000Y-36045000D01*
X224179666Y-36111667D01*
X224146333Y-36145000D01*
X224079666Y-36178333D01*
X223813000Y-36178333D01*
X224479666Y-35878333D02*
X224513000Y-35845000D01*
X224579666Y-35811667D01*
X224746333Y-35811667D01*
X224813000Y-35845000D01*
X224846333Y-35878333D01*
X224879666Y-35945000D01*
X224879666Y-36011667D01*
X224846333Y-36111667D01*
X224446333Y-36511667D01*
X224879666Y-36511667D01*
X225313000Y-35811667D02*
X225379667Y-35811667D01*
X225446333Y-35845000D01*
X225479667Y-35878333D01*
X225513000Y-35945000D01*
X225546333Y-36078333D01*
X225546333Y-36245000D01*
X225513000Y-36378333D01*
X225479667Y-36445000D01*
X225446333Y-36478333D01*
X225379667Y-36511667D01*
X225313000Y-36511667D01*
X225246333Y-36478333D01*
X225213000Y-36445000D01*
X225179667Y-36378333D01*
X225146333Y-36245000D01*
X225146333Y-36078333D01*
X225179667Y-35945000D01*
X225213000Y-35878333D01*
X225246333Y-35845000D01*
X225313000Y-35811667D01*
X219387000Y-36587867D02*
X219153666Y-36254533D01*
X218987000Y-36587867D02*
X218987000Y-35887867D01*
X219253666Y-35887867D01*
X219320333Y-35921200D01*
X219353666Y-35954533D01*
X219387000Y-36021200D01*
X219387000Y-36121200D01*
X219353666Y-36187867D01*
X219320333Y-36221200D01*
X219253666Y-36254533D01*
X218987000Y-36254533D01*
X219653666Y-35954533D02*
X219687000Y-35921200D01*
X219753666Y-35887867D01*
X219920333Y-35887867D01*
X219987000Y-35921200D01*
X220020333Y-35954533D01*
X220053666Y-36021200D01*
X220053666Y-36087867D01*
X220020333Y-36187867D01*
X219620333Y-36587867D01*
X220053666Y-36587867D01*
X220720333Y-36587867D02*
X220320333Y-36587867D01*
X220520333Y-36587867D02*
X220520333Y-35887867D01*
X220453667Y-35987867D01*
X220387000Y-36054533D01*
X220320333Y-36087867D01*
X223621667Y-66291667D02*
X223621667Y-66858333D01*
X223655000Y-66925000D01*
X223688333Y-66958333D01*
X223755000Y-66991667D01*
X223888333Y-66991667D01*
X223955000Y-66958333D01*
X223988333Y-66925000D01*
X224021667Y-66858333D01*
X224021667Y-66291667D01*
X224721666Y-66991667D02*
X224321666Y-66991667D01*
X224521666Y-66991667D02*
X224521666Y-66291667D01*
X224455000Y-66391667D01*
X224388333Y-66458333D01*
X224321666Y-66491667D01*
X240766667Y-54353667D02*
X240766667Y-54920333D01*
X240800000Y-54987000D01*
X240833333Y-55020333D01*
X240900000Y-55053667D01*
X241033333Y-55053667D01*
X241100000Y-55020333D01*
X241133333Y-54987000D01*
X241166667Y-54920333D01*
X241166667Y-54353667D01*
X241466666Y-54420333D02*
X241500000Y-54387000D01*
X241566666Y-54353667D01*
X241733333Y-54353667D01*
X241800000Y-54387000D01*
X241833333Y-54420333D01*
X241866666Y-54487000D01*
X241866666Y-54553667D01*
X241833333Y-54653667D01*
X241433333Y-55053667D01*
X241866666Y-55053667D01*
X211429667Y-68831667D02*
X211429667Y-69398333D01*
X211463000Y-69465000D01*
X211496333Y-69498333D01*
X211563000Y-69531667D01*
X211696333Y-69531667D01*
X211763000Y-69498333D01*
X211796333Y-69465000D01*
X211829667Y-69398333D01*
X211829667Y-68831667D01*
X212096333Y-68831667D02*
X212529666Y-68831667D01*
X212296333Y-69098333D01*
X212396333Y-69098333D01*
X212463000Y-69131667D01*
X212496333Y-69165000D01*
X212529666Y-69231667D01*
X212529666Y-69398333D01*
X212496333Y-69465000D01*
X212463000Y-69498333D01*
X212396333Y-69531667D01*
X212196333Y-69531667D01*
X212129666Y-69498333D01*
X212096333Y-69465000D01*
X203301667Y-59433667D02*
X203301667Y-60000333D01*
X203335000Y-60067000D01*
X203368333Y-60100333D01*
X203435000Y-60133667D01*
X203568333Y-60133667D01*
X203635000Y-60100333D01*
X203668333Y-60067000D01*
X203701667Y-60000333D01*
X203701667Y-59433667D01*
X204335000Y-59667000D02*
X204335000Y-60133667D01*
X204168333Y-59400333D02*
X204001666Y-59900333D01*
X204435000Y-59900333D01*
X203301667Y-70101667D02*
X203301667Y-70668333D01*
X203335000Y-70735000D01*
X203368333Y-70768333D01*
X203435000Y-70801667D01*
X203568333Y-70801667D01*
X203635000Y-70768333D01*
X203668333Y-70735000D01*
X203701667Y-70668333D01*
X203701667Y-70101667D01*
X204368333Y-70101667D02*
X204035000Y-70101667D01*
X204001666Y-70435000D01*
X204035000Y-70401667D01*
X204101666Y-70368333D01*
X204268333Y-70368333D01*
X204335000Y-70401667D01*
X204368333Y-70435000D01*
X204401666Y-70501667D01*
X204401666Y-70668333D01*
X204368333Y-70735000D01*
X204335000Y-70768333D01*
X204268333Y-70801667D01*
X204101666Y-70801667D01*
X204035000Y-70768333D01*
X204001666Y-70735000D01*
X221462667Y-51686667D02*
X221462667Y-52253333D01*
X221496000Y-52320000D01*
X221529333Y-52353333D01*
X221596000Y-52386667D01*
X221729333Y-52386667D01*
X221796000Y-52353333D01*
X221829333Y-52320000D01*
X221862667Y-52253333D01*
X221862667Y-51686667D01*
X222496000Y-51686667D02*
X222362666Y-51686667D01*
X222296000Y-51720000D01*
X222262666Y-51753333D01*
X222196000Y-51853333D01*
X222162666Y-51986667D01*
X222162666Y-52253333D01*
X222196000Y-52320000D01*
X222229333Y-52353333D01*
X222296000Y-52386667D01*
X222429333Y-52386667D01*
X222496000Y-52353333D01*
X222529333Y-52320000D01*
X222562666Y-52253333D01*
X222562666Y-52086667D01*
X222529333Y-52020000D01*
X222496000Y-51986667D01*
X222429333Y-51953333D01*
X222296000Y-51953333D01*
X222229333Y-51986667D01*
X222196000Y-52020000D01*
X222162666Y-52086667D01*
X235214334Y-63496000D02*
X235181000Y-63529333D01*
X235081000Y-63562667D01*
X235014334Y-63562667D01*
X234914334Y-63529333D01*
X234847667Y-63462667D01*
X234814334Y-63396000D01*
X234781000Y-63262667D01*
X234781000Y-63162667D01*
X234814334Y-63029333D01*
X234847667Y-62962667D01*
X234914334Y-62896000D01*
X235014334Y-62862667D01*
X235081000Y-62862667D01*
X235181000Y-62896000D01*
X235214334Y-62929333D01*
X235881000Y-63562667D02*
X235481000Y-63562667D01*
X235681000Y-63562667D02*
X235681000Y-62862667D01*
X235614334Y-62962667D01*
X235547667Y-63029333D01*
X235481000Y-63062667D01*
X235214334Y-68830000D02*
X235181000Y-68863333D01*
X235081000Y-68896667D01*
X235014334Y-68896667D01*
X234914334Y-68863333D01*
X234847667Y-68796667D01*
X234814334Y-68730000D01*
X234781000Y-68596667D01*
X234781000Y-68496667D01*
X234814334Y-68363333D01*
X234847667Y-68296667D01*
X234914334Y-68230000D01*
X235014334Y-68196667D01*
X235081000Y-68196667D01*
X235181000Y-68230000D01*
X235214334Y-68263333D01*
X235614334Y-68496667D02*
X235547667Y-68463333D01*
X235514334Y-68430000D01*
X235481000Y-68363333D01*
X235481000Y-68330000D01*
X235514334Y-68263333D01*
X235547667Y-68230000D01*
X235614334Y-68196667D01*
X235747667Y-68196667D01*
X235814334Y-68230000D01*
X235847667Y-68263333D01*
X235881000Y-68330000D01*
X235881000Y-68363333D01*
X235847667Y-68430000D01*
X235814334Y-68463333D01*
X235747667Y-68496667D01*
X235614334Y-68496667D01*
X235547667Y-68530000D01*
X235514334Y-68563333D01*
X235481000Y-68630000D01*
X235481000Y-68763333D01*
X235514334Y-68830000D01*
X235547667Y-68863333D01*
X235614334Y-68896667D01*
X235747667Y-68896667D01*
X235814334Y-68863333D01*
X235847667Y-68830000D01*
X235881000Y-68763333D01*
X235881000Y-68630000D01*
X235847667Y-68563333D01*
X235814334Y-68530000D01*
X235747667Y-68496667D01*
X216958134Y-32803267D02*
X216958134Y-32103267D01*
X217224800Y-32103267D01*
X217291467Y-32136600D01*
X217324800Y-32169933D01*
X217358134Y-32236600D01*
X217358134Y-32336600D01*
X217324800Y-32403267D01*
X217291467Y-32436600D01*
X217224800Y-32469933D01*
X216958134Y-32469933D01*
X217624800Y-32169933D02*
X217658134Y-32136600D01*
X217724800Y-32103267D01*
X217891467Y-32103267D01*
X217958134Y-32136600D01*
X217991467Y-32169933D01*
X218024800Y-32236600D01*
X218024800Y-32303267D01*
X217991467Y-32403267D01*
X217591467Y-32803267D01*
X218024800Y-32803267D01*
X228972334Y-44258667D02*
X228972334Y-43558667D01*
X229372334Y-44258667D02*
X229072334Y-43858667D01*
X229372334Y-43558667D02*
X228972334Y-43958667D01*
X230039000Y-44258667D02*
X229639000Y-44258667D01*
X229839000Y-44258667D02*
X229839000Y-43558667D01*
X229772334Y-43658667D01*
X229705667Y-43725333D01*
X229639000Y-43758667D01*
X234560334Y-44258667D02*
X234560334Y-43558667D01*
X234960334Y-44258667D02*
X234660334Y-43858667D01*
X234960334Y-43558667D02*
X234560334Y-43958667D01*
X235227000Y-43625333D02*
X235260334Y-43592000D01*
X235327000Y-43558667D01*
X235493667Y-43558667D01*
X235560334Y-43592000D01*
X235593667Y-43625333D01*
X235627000Y-43692000D01*
X235627000Y-43758667D01*
X235593667Y-43858667D01*
X235193667Y-44258667D01*
X235627000Y-44258667D01*
X245736334Y-44258667D02*
X245736334Y-43558667D01*
X246136334Y-44258667D02*
X245836334Y-43858667D01*
X246136334Y-43558667D02*
X245736334Y-43958667D01*
X246369667Y-43558667D02*
X246803000Y-43558667D01*
X246569667Y-43825333D01*
X246669667Y-43825333D01*
X246736334Y-43858667D01*
X246769667Y-43892000D01*
X246803000Y-43958667D01*
X246803000Y-44125333D01*
X246769667Y-44192000D01*
X246736334Y-44225333D01*
X246669667Y-44258667D01*
X246469667Y-44258667D01*
X246403000Y-44225333D01*
X246369667Y-44192000D01*
X240173734Y-44258667D02*
X240173734Y-43558667D01*
X240573734Y-44258667D02*
X240273734Y-43858667D01*
X240573734Y-43558667D02*
X240173734Y-43958667D01*
X241173734Y-43792000D02*
X241173734Y-44258667D01*
X241007067Y-43525333D02*
X240840400Y-44025333D01*
X241273734Y-44025333D01*
M02*
