M48
INCH,TZ
T1C0.013
T2C0.032
T3C0.039
T4C0.039
T5C0.040
T6C0.047
%
G90
G05
T1
X79000Y-14640
X79170Y-20820
X79200Y-25010
X79730Y-24300
X79750Y-28500
X80501Y-26905
X80720Y-15260
X80755Y-19113
X80920Y-16720
X80920Y-17600
X81070Y-18270
X81310Y-25010
X81480Y-18548
X81540Y-17490
X81557Y-17087
X81640Y-14050
X81790Y-19600
X82250Y-25000
X82450Y-23791
X82662Y-27112
X83120Y-16770
X83387Y-17451
X83450Y-19940
X83620Y-20550
X83970Y-17300
X84340Y-26950
X84350Y-23730
X84420Y-17550
X84550Y-22550
X84610Y-18910
X84620Y-28200
X84700Y-22150
X84960Y-13540
X84970Y-18210
X85200Y-26500
X85400Y-23170
X85520Y-16590
X85620Y-25000
X86030Y-18570
X86130Y-23170
X86270Y-16090
X86400Y-26750
X86460Y-18040
X86750Y-23600
X86980Y-16240
X87200Y-23500
X87400Y-19550
X87450Y-21600
X87660Y-21925
X87875Y-14125
X88200Y-25850
X88650Y-26120
X88900Y-23850
X89300Y-21100
X89650Y-17950
X90100Y-19400
X90100Y-20950
X90750Y-19550
X90850Y-26460
X91200Y-20300
X91200Y-21450
X91440Y-27520
X91850Y-15400
X91870Y-24350
X92250Y-20950
X92650Y-28150
X92650Y-24880
X92750Y-20300
X92850Y-15750
X93150Y-18850
X93250Y-20300
X93250Y-22800
X93250Y-24500
X94150Y-18850
X94660Y-25730
X94750Y-21400
X95250Y-21400
X96330Y-25030
X97250Y-22790
T2
X90100Y-20139
X90100Y-22061
T3
X90350Y-10400
X90350Y-12400
X90350Y-14400
X90350Y-16400
X92550Y-10400
X92550Y-12400
X92550Y-14400
X92550Y-16400
X94760Y-10400
X94760Y-12400
X94760Y-14400
X94760Y-16400
X96950Y-10400
X96950Y-12400
X96950Y-14400
X96950Y-16400
T4
X86300Y-10450
X86400Y-12350
X87300Y-10450
X87400Y-12350
X88400Y-12350
T5
X92150Y-18200
X93150Y-18200
X94150Y-18200
X95150Y-18200
X96150Y-18200
X97150Y-18200
T6
X79331Y-11024
X80709Y-11024
X82087Y-11024
X83465Y-11024
X84843Y-11024
T0
M30
